{"glyphs":{"0":{"ha":849,"x_min":67,"x_max":783,"o":"m 425 -14 q 231 46 311 -14 q 109 217 151 106 q 67 486 67 329 q 109 755 67 643 q 231 926 151 867 q 425 986 311 986 q 618 926 538 986 q 741 755 699 867 q 783 486 783 643 q 741 217 783 329 q 618 46 699 106 q 425 -14 538 -14 m 425 88 q 610 191 544 88 q 675 486 675 294 q 610 781 675 678 q 425 885 544 885 q 239 781 304 885 q 174 486 174 678 q 239 191 174 294 q 425 88 304 88 z "},"1":{"ha":638,"x_min":99,"x_max":554,"o":"m 283 49 l 283 886 l 321 860 l 128 749 l 99 844 l 342 986 l 394 986 l 394 49 l 283 49 m 126 0 l 126 106 l 554 106 l 554 0 l 126 0 z "},"2":{"ha":761,"x_min":74,"x_max":713,"o":"m 122 0 l 89 82 l 422 449 q 470 506 444 474 q 519 574 496 538 q 558 647 543 610 q 574 719 574 683 q 550 806 574 769 q 485 863 526 843 q 389 883 444 883 q 299 860 343 883 q 217 791 254 838 q 160 676 181 744 l 74 729 q 146 870 99 813 q 259 957 193 928 q 401 986 325 986 q 548 953 483 986 q 649 861 613 919 q 686 728 686 803 q 674 642 686 685 q 639 556 663 600 q 581 467 615 513 q 503 374 547 422 l 221 71 l 203 106 l 713 106 l 713 0 l 122 0 z "},"3":{"ha":735,"x_min":28,"x_max":686,"o":"m 354 -14 q 174 33 253 -14 q 28 192 94 81 l 115 246 q 192 151 153 188 q 274 100 232 115 q 364 85 317 85 q 472 114 424 85 q 550 194 521 143 q 579 307 579 244 q 554 417 579 371 q 484 488 529 463 q 381 514 439 514 q 328 509 356 514 q 269 492 300 504 q 204 458 239 481 l 171 542 l 517 903 l 536 869 l 96 869 l 96 972 l 635 972 l 660 925 l 314 561 l 285 588 q 334 609 306 601 q 392 617 363 617 q 508 594 454 617 q 601 530 561 571 q 663 433 640 489 q 686 313 686 378 q 642 147 686 221 q 523 29 597 72 q 354 -14 449 -14 z "},"4":{"ha":861,"x_min":44,"x_max":803,"o":"m 528 0 l 528 838 l 557 832 l 163 351 l 157 365 l 803 365 l 803 264 l 92 264 l 44 357 l 547 972 l 633 972 l 633 0 l 528 0 z "},"5":{"ha":789,"x_min":54,"x_max":706,"o":"m 357 -11 q 183 33 261 -11 q 54 160 106 78 l 118 229 q 236 122 179 154 q 357 90 293 90 q 480 122 425 90 q 567 206 535 153 q 599 322 599 258 q 569 435 599 385 q 490 516 539 486 q 376 546 440 546 q 308 539 342 546 q 238 515 275 532 q 151 469 200 499 l 93 547 l 153 972 l 676 972 l 676 869 l 217 869 l 244 893 l 193 543 l 165 574 q 225 610 188 593 q 306 638 263 628 q 393 649 350 649 q 553 608 483 649 q 665 495 624 567 q 706 331 706 424 q 660 157 706 235 q 535 34 614 79 q 357 -11 456 -11 z "},"6":{"ha":796,"x_min":68,"x_max":725,"o":"m 399 -4 q 269 21 329 -4 q 164 92 208 46 q 94 199 119 138 q 68 336 68 261 q 85 452 68 388 q 135 591 101 517 q 219 749 168 665 l 365 983 l 472 983 l 476 971 l 315 710 q 244 584 275 644 q 192 472 213 524 q 165 381 172 421 l 140 478 q 218 580 175 539 q 313 642 261 621 q 422 664 364 664 q 574 620 506 664 q 684 504 643 576 q 725 343 725 432 q 683 165 725 244 q 567 41 640 86 q 399 -4 493 -4 m 400 97 q 512 128 463 97 q 590 211 561 158 q 619 332 619 264 q 590 447 619 394 q 511 530 560 499 q 401 561 463 561 q 286 531 338 561 q 206 448 235 500 q 176 332 176 396 q 206 213 176 267 q 285 128 235 160 q 400 97 336 97 z "},"7":{"ha":718,"x_min":56,"x_max":665,"o":"m 149 0 l 560 907 l 575 869 l 56 869 l 56 972 l 646 972 l 665 900 l 268 0 l 149 0 z "},"8":{"ha":804,"x_min":75,"x_max":731,"o":"m 401 -4 q 237 33 311 -4 q 119 134 163 71 q 75 274 75 197 q 88 360 75 319 q 128 433 101 400 q 193 492 156 465 q 281 535 231 518 l 276 511 q 185 556 224 525 q 126 629 146 588 q 106 717 106 671 q 145 849 106 790 q 252 943 185 908 q 401 978 319 978 q 552 943 485 978 q 660 849 619 908 q 700 717 700 790 q 680 631 700 671 q 621 559 660 590 q 526 511 582 528 l 525 532 q 633 473 586 511 q 705 383 679 435 q 731 274 731 332 q 686 133 731 196 q 567 33 642 69 q 401 -4 493 -4 m 401 99 q 513 123 464 99 q 592 188 563 147 q 621 278 621 228 q 592 374 621 332 q 515 441 564 417 q 401 465 465 465 q 291 441 340 465 q 213 374 242 417 q 183 278 183 332 q 213 188 183 229 q 291 123 242 147 q 401 99 340 99 m 401 563 q 499 583 456 563 q 566 638 542 603 q 590 718 590 672 q 566 798 590 763 q 499 854 542 833 q 401 875 456 875 q 305 854 347 875 q 238 798 263 833 q 214 718 214 763 q 238 638 214 672 q 305 583 263 604 q 401 563 347 563 z "},"9":{"ha":764,"x_min":50,"x_max":710,"o":"m 336 0 l 332 11 l 621 596 l 625 521 q 549 422 593 463 q 456 360 506 381 q 350 339 406 339 q 200 381 268 339 q 91 493 132 422 q 50 650 50 564 q 94 822 50 746 q 213 943 138 899 q 381 988 288 988 q 509 963 450 988 q 613 894 568 939 q 684 790 658 850 q 710 663 710 731 q 701 581 710 624 q 676 490 693 539 q 634 383 660 442 q 572 253 608 325 l 444 0 l 336 0 m 371 442 q 484 471 433 442 q 563 549 535 500 q 592 661 592 599 q 563 775 592 724 q 485 856 535 826 q 372 885 436 885 q 266 856 314 885 q 190 776 218 826 q 163 661 163 726 q 190 551 163 601 q 266 472 218 501 q 371 442 314 442 z "},"A":{"ha":931,"x_min":32,"x_max":899,"o":"m 32 0 l 407 972 l 525 972 l 899 0 l 781 0 l 543 625 q 528 669 539 635 q 501 746 517 703 q 472 828 486 789 q 450 889 458 868 l 476 889 q 456 828 468 865 q 428 750 443 790 q 401 675 414 710 q 382 619 389 640 l 146 0 l 32 0 m 190 268 l 231 375 l 690 375 l 736 268 l 190 268 z "},"Á":{"ha":931,"x_min":32,"x_max":899,"o":"m 32 0 l 407 972 l 525 972 l 899 0 l 781 0 l 543 625 q 528 669 539 635 q 501 746 517 703 q 472 828 486 789 q 450 889 458 868 l 476 889 q 456 828 468 865 q 428 750 443 790 q 401 675 414 710 q 382 619 389 640 l 146 0 l 32 0 m 190 268 l 231 375 l 690 375 l 736 268 l 190 268 m 378 1053 l 347 1108 l 586 1256 l 636 1163 l 378 1053 z "},"Ă":{"ha":931,"x_min":32,"x_max":899,"o":"m 32 0 l 407 972 l 525 972 l 899 0 l 781 0 l 543 625 q 528 669 539 635 q 501 746 517 703 q 472 828 486 789 q 450 889 458 868 l 476 889 q 456 828 468 865 q 428 750 443 790 q 401 675 414 710 q 382 619 389 640 l 146 0 l 32 0 m 190 268 l 231 375 l 690 375 l 736 268 l 190 268 m 465 1049 q 369 1072 413 1049 q 296 1135 325 1096 q 254 1224 267 1175 l 333 1236 q 383 1163 349 1193 q 465 1132 418 1132 q 548 1163 513 1132 q 597 1236 583 1193 l 676 1224 q 635 1135 665 1175 q 563 1072 606 1096 q 465 1049 519 1049 z "},"Ắ":{"ha":931,"x_min":32,"x_max":899,"o":"m 32 0 l 407 972 l 525 972 l 899 0 l 781 0 l 543 625 q 528 669 539 635 q 501 746 517 703 q 472 828 486 789 q 450 889 458 868 l 476 889 q 456 828 468 865 q 428 750 443 790 q 401 675 414 710 q 382 619 389 640 l 146 0 l 32 0 m 190 268 l 231 375 l 690 375 l 736 268 l 190 268 m 465 1049 q 329 1094 385 1049 q 254 1219 274 1140 l 329 1231 q 383 1155 347 1181 q 465 1129 418 1129 q 548 1155 513 1129 q 601 1231 583 1181 l 676 1219 q 602 1094 658 1140 q 465 1049 546 1049 m 468 1222 l 417 1263 l 531 1449 l 621 1383 l 468 1222 z "},"Ặ":{"ha":931,"x_min":32,"x_max":899,"o":"m 32 0 l 407 972 l 525 972 l 899 0 l 781 0 l 543 625 q 528 669 539 635 q 501 746 517 703 q 472 828 486 789 q 450 889 458 868 l 476 889 q 456 828 468 865 q 428 750 443 790 q 401 675 414 710 q 382 619 389 640 l 146 0 l 32 0 m 190 268 l 231 375 l 690 375 l 736 268 l 190 268 m 465 -256 q 408 -235 428 -256 q 389 -181 389 -215 q 409 -128 389 -149 q 465 -108 429 -108 q 522 -128 503 -108 q 542 -182 542 -147 q 522 -235 542 -214 q 465 -256 501 -256 m 465 1049 q 369 1072 413 1049 q 296 1135 325 1096 q 254 1224 267 1175 l 333 1236 q 383 1163 349 1193 q 465 1132 418 1132 q 548 1163 513 1132 q 597 1236 583 1193 l 676 1224 q 635 1135 665 1175 q 563 1072 606 1096 q 465 1049 519 1049 z "},"Ằ":{"ha":931,"x_min":32,"x_max":899,"o":"m 32 0 l 407 972 l 525 972 l 899 0 l 781 0 l 543 625 q 528 669 539 635 q 501 746 517 703 q 472 828 486 789 q 450 889 458 868 l 476 889 q 456 828 468 865 q 428 750 443 790 q 401 675 414 710 q 382 619 389 640 l 146 0 l 32 0 m 190 268 l 231 375 l 690 375 l 736 268 l 190 268 m 465 1049 q 329 1094 385 1049 q 254 1219 274 1139 l 329 1231 q 383 1154 349 1179 q 465 1129 417 1129 q 548 1154 513 1129 q 601 1231 583 1179 l 676 1219 q 602 1094 658 1139 q 465 1049 546 1049 m 471 1222 l 318 1383 l 408 1449 l 521 1263 l 471 1222 z "},"Ẳ":{"ha":931,"x_min":32,"x_max":899,"o":"m 32 0 l 407 972 l 525 972 l 899 0 l 781 0 l 543 625 q 528 669 539 635 q 501 746 517 703 q 472 828 486 789 q 450 889 458 868 l 476 889 q 456 828 468 865 q 428 750 443 790 q 401 675 414 710 q 382 619 389 640 l 146 0 l 32 0 m 190 268 l 231 375 l 690 375 l 736 268 l 190 268 m 465 1049 q 329 1094 385 1049 q 254 1219 274 1140 l 329 1231 q 383 1155 347 1181 q 465 1129 418 1129 q 548 1155 513 1129 q 601 1231 583 1181 l 676 1219 q 602 1094 658 1140 q 465 1049 546 1049 m 446 1224 q 434 1242 439 1232 q 429 1264 429 1253 q 438 1290 429 1278 q 469 1317 447 1301 q 502 1339 490 1329 q 514 1354 514 1349 q 498 1375 514 1368 q 460 1382 482 1382 q 411 1376 438 1382 q 361 1358 385 1369 l 343 1426 q 401 1448 371 1440 q 463 1456 432 1456 q 563 1428 528 1456 q 597 1363 597 1401 q 579 1321 597 1338 q 543 1293 561 1304 q 510 1271 521 1281 q 499 1253 499 1261 q 500 1245 499 1249 q 503 1238 501 1242 l 446 1224 z "},"Ẵ":{"ha":931,"x_min":32,"x_max":899,"o":"m 32 0 l 407 972 l 525 972 l 899 0 l 781 0 l 543 625 q 528 669 539 635 q 501 746 517 703 q 472 828 486 789 q 450 889 458 868 l 476 889 q 456 828 468 865 q 428 750 443 790 q 401 675 414 710 q 382 619 389 640 l 146 0 l 32 0 m 190 268 l 231 375 l 690 375 l 736 268 l 190 268 m 465 1049 q 329 1092 385 1049 q 254 1210 274 1135 l 329 1222 q 383 1153 347 1176 q 465 1129 418 1129 q 548 1153 513 1129 q 601 1222 583 1176 l 676 1210 q 602 1092 658 1135 q 465 1049 546 1049 m 568 1301 q 512 1310 539 1301 q 460 1329 485 1319 q 418 1346 436 1339 q 383 1353 400 1353 q 351 1340 365 1353 q 332 1303 338 1328 l 258 1314 q 297 1397 263 1363 q 376 1432 331 1432 q 428 1423 404 1432 q 476 1404 453 1414 q 515 1388 496 1396 q 551 1381 535 1381 q 583 1392 571 1381 q 601 1433 596 1404 l 674 1421 q 642 1336 669 1371 q 568 1301 615 1301 z "},"Ǎ":{"ha":931,"x_min":32,"x_max":899,"o":"m 32 0 l 407 972 l 525 972 l 899 0 l 781 0 l 543 625 q 528 669 539 635 q 501 746 517 703 q 472 828 486 789 q 450 889 458 868 l 476 889 q 456 828 468 865 q 428 750 443 790 q 401 675 414 710 q 382 619 389 640 l 146 0 l 32 0 m 190 268 l 231 375 l 690 375 l 736 268 l 190 268 m 419 1057 l 258 1190 l 300 1228 l 482 1131 l 449 1131 l 631 1228 l 672 1190 l 511 1057 l 419 1057 z "},"Â":{"ha":931,"x_min":32,"x_max":899,"o":"m 32 0 l 407 972 l 525 972 l 899 0 l 781 0 l 543 625 q 528 669 539 635 q 501 746 517 703 q 472 828 486 789 q 450 889 458 868 l 476 889 q 456 828 468 865 q 428 750 443 790 q 401 675 414 710 q 382 619 389 640 l 146 0 l 32 0 m 190 268 l 231 375 l 690 375 l 736 268 l 190 268 m 301 1056 l 261 1093 l 425 1225 l 507 1225 l 669 1093 l 631 1056 l 450 1154 l 482 1154 l 301 1056 z "},"Ấ":{"ha":931,"x_min":32,"x_max":899,"o":"m 32 0 l 407 972 l 525 972 l 899 0 l 781 0 l 543 625 q 528 669 539 635 q 501 746 517 703 q 472 828 486 789 q 450 889 458 868 l 476 889 q 456 828 468 865 q 428 750 443 790 q 401 675 414 710 q 382 619 389 640 l 146 0 l 32 0 m 190 268 l 231 375 l 690 375 l 736 268 l 190 268 m 301 1056 l 265 1094 l 426 1224 l 507 1224 l 667 1094 l 632 1056 l 450 1151 l 483 1151 l 301 1056 m 669 1199 l 615 1236 l 728 1424 l 818 1357 l 669 1199 z "},"Ậ":{"ha":931,"x_min":32,"x_max":899,"o":"m 32 0 l 407 972 l 525 972 l 899 0 l 781 0 l 543 625 q 528 669 539 635 q 501 746 517 703 q 472 828 486 789 q 450 889 458 868 l 476 889 q 456 828 468 865 q 428 750 443 790 q 401 675 414 710 q 382 619 389 640 l 146 0 l 32 0 m 190 268 l 231 375 l 690 375 l 736 268 l 190 268 m 465 -256 q 408 -235 428 -256 q 389 -181 389 -215 q 409 -128 389 -149 q 465 -108 429 -108 q 522 -128 503 -108 q 542 -182 542 -147 q 522 -235 542 -214 q 465 -256 501 -256 m 301 1056 l 261 1093 l 425 1225 l 507 1225 l 669 1093 l 631 1056 l 450 1154 l 482 1154 l 301 1056 z "},"Ầ":{"ha":931,"x_min":32,"x_max":899,"o":"m 32 0 l 407 972 l 525 972 l 899 0 l 781 0 l 543 625 q 528 669 539 635 q 501 746 517 703 q 472 828 486 789 q 450 889 458 868 l 476 889 q 456 828 468 865 q 428 750 443 790 q 401 675 414 710 q 382 619 389 640 l 146 0 l 32 0 m 190 268 l 231 375 l 690 375 l 736 268 l 190 268 m 300 1056 l 264 1094 l 425 1224 l 504 1224 l 665 1094 l 629 1056 l 447 1151 l 482 1151 l 300 1056 m 679 1200 l 528 1360 l 618 1426 l 731 1240 l 679 1200 z "},"Ẩ":{"ha":931,"x_min":32,"x_max":899,"o":"m 32 0 l 407 972 l 525 972 l 899 0 l 781 0 l 543 625 q 528 669 539 635 q 501 746 517 703 q 472 828 486 789 q 450 889 458 868 l 476 889 q 456 828 468 865 q 428 750 443 790 q 401 675 414 710 q 382 619 389 640 l 146 0 l 32 0 m 190 268 l 231 375 l 690 375 l 736 268 l 190 268 m 300 1056 l 264 1094 l 425 1224 l 504 1224 l 665 1094 l 629 1056 l 449 1151 l 482 1151 l 300 1056 m 643 1201 q 631 1220 636 1210 q 626 1242 626 1231 q 636 1267 626 1256 q 668 1294 646 1279 q 701 1316 689 1307 q 713 1332 713 1325 q 697 1352 713 1346 q 658 1358 681 1358 q 609 1353 635 1358 q 558 1336 583 1347 l 540 1404 q 599 1426 568 1418 q 660 1433 631 1433 q 760 1407 725 1433 q 796 1340 796 1381 q 778 1298 796 1314 q 742 1271 760 1282 q 707 1249 718 1258 q 696 1231 696 1239 q 700 1215 696 1224 l 643 1201 z "},"Ẫ":{"ha":931,"x_min":32,"x_max":899,"o":"m 32 0 l 407 972 l 525 972 l 899 0 l 781 0 l 543 625 q 528 669 539 635 q 501 746 517 703 q 472 828 486 789 q 450 889 458 868 l 476 889 q 456 828 468 865 q 428 750 443 790 q 401 675 414 710 q 382 619 389 640 l 146 0 l 32 0 m 190 268 l 231 375 l 690 375 l 736 268 l 190 268 m 301 1056 l 265 1094 l 425 1224 l 507 1224 l 667 1094 l 631 1056 l 450 1151 l 482 1151 l 301 1056 m 568 1296 q 512 1305 539 1296 q 460 1324 485 1314 q 418 1342 436 1335 q 383 1349 400 1349 q 351 1335 365 1349 q 332 1299 338 1322 l 258 1308 q 297 1393 263 1358 q 376 1428 331 1428 q 428 1419 404 1428 q 476 1400 453 1410 q 515 1384 496 1392 q 551 1376 535 1376 q 583 1388 571 1376 q 601 1429 596 1400 l 674 1417 q 642 1331 669 1365 q 568 1296 615 1296 z "},"Ȁ":{"ha":931,"x_min":32,"x_max":899,"o":"m 32 0 l 407 972 l 525 972 l 899 0 l 781 0 l 543 625 q 528 669 539 635 q 501 746 517 703 q 472 828 486 789 q 450 889 458 868 l 476 889 q 456 828 468 865 q 428 750 443 790 q 401 675 414 710 q 382 619 389 640 l 146 0 l 32 0 m 190 268 l 231 375 l 690 375 l 736 268 l 190 268 m 600 1047 l 376 1189 l 449 1269 l 639 1099 l 600 1047 m 354 1047 l 131 1189 l 201 1269 l 393 1099 l 354 1047 z "},"Ä":{"ha":931,"x_min":32,"x_max":899,"o":"m 32 0 l 407 972 l 525 972 l 899 0 l 781 0 l 543 625 q 528 669 539 635 q 501 746 517 703 q 472 828 486 789 q 450 889 458 868 l 476 889 q 456 828 468 865 q 428 750 443 790 q 401 675 414 710 q 382 619 389 640 l 146 0 l 32 0 m 190 268 l 231 375 l 690 375 l 736 268 l 190 268 m 596 1069 q 538 1090 557 1069 q 519 1142 519 1110 q 538 1192 519 1169 q 596 1214 557 1214 q 653 1194 635 1214 q 672 1142 672 1175 q 653 1092 672 1114 q 596 1069 635 1069 m 335 1069 q 278 1090 299 1069 q 258 1142 258 1110 q 278 1192 258 1169 q 335 1214 297 1214 q 393 1194 375 1214 q 411 1142 411 1175 q 393 1092 411 1114 q 335 1069 375 1069 z "},"Ạ":{"ha":931,"x_min":32,"x_max":899,"o":"m 32 0 l 407 972 l 525 972 l 899 0 l 781 0 l 543 625 q 528 669 539 635 q 501 746 517 703 q 472 828 486 789 q 450 889 458 868 l 476 889 q 456 828 468 865 q 428 750 443 790 q 401 675 414 710 q 382 619 389 640 l 146 0 l 32 0 m 190 268 l 231 375 l 690 375 l 736 268 l 190 268 m 465 -256 q 408 -235 428 -256 q 389 -181 389 -215 q 409 -128 389 -149 q 465 -108 429 -108 q 522 -128 503 -108 q 542 -182 542 -147 q 522 -235 542 -214 q 465 -256 501 -256 z "},"À":{"ha":931,"x_min":32,"x_max":899,"o":"m 32 0 l 407 972 l 525 972 l 899 0 l 781 0 l 543 625 q 528 669 539 635 q 501 746 517 703 q 472 828 486 789 q 450 889 458 868 l 476 889 q 456 828 468 865 q 428 750 443 790 q 401 675 414 710 q 382 619 389 640 l 146 0 l 32 0 m 190 268 l 231 375 l 690 375 l 736 268 l 190 268 m 561 1053 l 303 1163 l 354 1256 l 593 1108 l 561 1053 z "},"Ả":{"ha":931,"x_min":32,"x_max":899,"o":"m 32 0 l 407 972 l 525 972 l 899 0 l 781 0 l 543 625 q 528 669 539 635 q 501 746 517 703 q 472 828 486 789 q 450 889 458 868 l 476 889 q 456 828 468 865 q 428 750 443 790 q 401 675 414 710 q 382 619 389 640 l 146 0 l 32 0 m 190 268 l 231 375 l 690 375 l 736 268 l 190 268 m 440 1057 q 428 1078 433 1067 q 424 1100 424 1089 q 434 1129 424 1115 q 465 1157 444 1143 q 499 1181 488 1172 q 510 1201 510 1190 q 494 1225 510 1218 q 454 1232 478 1232 q 406 1226 432 1232 q 357 1210 381 1221 l 339 1278 q 396 1299 365 1292 q 456 1306 426 1306 q 558 1278 522 1306 q 593 1210 593 1251 q 576 1160 593 1179 q 539 1131 560 1142 q 505 1110 517 1119 q 493 1089 493 1101 q 494 1079 493 1083 q 497 1071 496 1075 l 440 1057 z "},"Ȃ":{"ha":931,"x_min":32,"x_max":899,"o":"m 32 0 l 407 972 l 525 972 l 899 0 l 781 0 l 543 625 q 528 669 539 635 q 501 746 517 703 q 472 828 486 789 q 450 889 458 868 l 476 889 q 456 828 468 865 q 428 750 443 790 q 401 675 414 710 q 382 619 389 640 l 146 0 l 32 0 m 190 268 l 231 375 l 690 375 l 736 268 l 190 268 m 333 1051 l 254 1063 q 296 1151 267 1111 q 369 1214 325 1190 q 465 1238 413 1238 q 563 1214 519 1238 q 635 1151 606 1190 q 676 1063 665 1111 l 597 1051 q 548 1123 583 1093 q 465 1153 513 1153 q 383 1123 418 1153 q 333 1051 347 1093 z "},"Ā":{"ha":931,"x_min":32,"x_max":899,"o":"m 32 0 l 407 972 l 525 972 l 899 0 l 781 0 l 543 625 q 528 669 539 635 q 501 746 517 703 q 472 828 486 789 q 450 889 458 868 l 476 889 q 456 828 468 865 q 428 750 443 790 q 401 675 414 710 q 382 619 389 640 l 146 0 l 32 0 m 190 268 l 231 375 l 690 375 l 736 268 l 190 268 m 250 1103 l 250 1182 l 682 1182 l 682 1103 l 250 1103 z "},"Ą":{"ha":931,"x_min":32,"x_max":918,"o":"m 32 0 l 407 972 l 525 972 l 899 0 l 781 0 l 543 625 q 528 669 539 635 q 501 746 517 703 q 472 828 486 789 q 450 889 458 868 l 476 889 q 456 828 468 865 q 428 750 443 790 q 401 675 414 710 q 382 619 389 640 l 146 0 l 32 0 m 190 268 l 231 375 l 690 375 l 736 268 l 190 268 m 776 -292 q 703 -272 736 -292 q 649 -221 669 -253 q 629 -150 629 -189 q 645 -81 629 -112 q 690 -22 661 -49 q 758 24 718 4 q 844 56 797 44 l 888 0 q 772 -53 819 -14 q 724 -140 724 -92 q 742 -190 724 -171 q 790 -210 761 -210 q 830 -198 813 -210 q 860 -167 847 -186 l 918 -210 q 863 -267 903 -243 q 776 -292 824 -292 z "},"Å":{"ha":931,"x_min":32,"x_max":899,"o":"m 32 0 l 407 972 l 525 972 l 899 0 l 781 0 l 543 625 q 528 669 539 635 q 501 746 517 703 q 472 828 486 789 q 450 889 458 868 l 476 889 q 456 828 468 865 q 428 750 443 790 q 401 675 414 710 q 382 619 389 640 l 146 0 l 32 0 m 190 268 l 231 375 l 690 375 l 736 268 l 190 268 m 465 949 q 395 967 428 949 q 342 1017 363 986 q 322 1085 322 1049 q 342 1156 322 1125 q 395 1207 363 1188 q 465 1226 428 1226 q 537 1207 504 1226 q 590 1156 569 1188 q 610 1085 610 1125 q 590 1017 610 1049 q 537 967 569 986 q 465 949 504 949 m 465 1011 q 522 1033 499 1011 q 544 1086 544 1056 q 522 1142 544 1122 q 465 1163 499 1163 q 410 1141 433 1163 q 388 1086 388 1119 q 410 1033 388 1056 q 465 1011 433 1011 z "},"Ǻ":{"ha":931,"x_min":32,"x_max":899,"o":"m 32 0 l 407 972 l 525 972 l 899 0 l 781 0 l 543 625 q 528 669 539 635 q 501 746 517 703 q 472 828 486 789 q 450 889 458 868 l 476 889 q 456 828 468 865 q 428 750 443 790 q 401 675 414 710 q 382 619 389 640 l 146 0 l 32 0 m 190 268 l 231 375 l 690 375 l 736 268 l 190 268 m 465 949 q 395 967 428 949 q 342 1017 363 986 q 322 1085 322 1049 q 342 1156 322 1125 q 395 1207 363 1188 q 465 1226 428 1226 q 537 1207 504 1226 q 590 1156 569 1188 q 610 1085 610 1125 q 590 1017 610 1049 q 537 967 569 986 q 465 949 504 949 m 465 1011 q 522 1033 499 1011 q 544 1086 544 1056 q 522 1142 544 1122 q 465 1163 499 1163 q 410 1141 433 1163 q 388 1086 388 1119 q 410 1033 388 1056 q 465 1011 433 1011 m 378 1264 l 347 1319 l 586 1467 l 636 1374 l 378 1264 z "},"Ã":{"ha":931,"x_min":32,"x_max":899,"o":"m 32 0 l 407 972 l 525 972 l 899 0 l 781 0 l 543 625 q 528 669 539 635 q 501 746 517 703 q 472 828 486 789 q 450 889 458 868 l 476 889 q 456 828 468 865 q 428 750 443 790 q 401 675 414 710 q 382 619 389 640 l 146 0 l 32 0 m 190 268 l 231 375 l 690 375 l 736 268 l 190 268 m 561 1075 q 506 1084 535 1075 q 439 1108 476 1093 q 403 1124 421 1117 q 368 1131 385 1131 q 336 1117 349 1131 q 324 1075 324 1103 l 242 1075 q 282 1174 242 1139 q 374 1210 322 1210 q 433 1199 404 1210 q 486 1176 461 1188 q 528 1160 511 1165 q 556 1156 544 1156 q 592 1169 578 1156 q 607 1210 607 1183 l 688 1210 q 672 1142 688 1174 q 627 1093 656 1111 q 561 1075 599 1075 z "},"Æ":{"ha":1326,"x_min":4,"x_max":1226,"o":"m 4 0 l 676 972 l 1226 972 l 1226 876 l 758 876 l 758 544 l 1158 544 l 1158 447 l 758 447 l 758 96 l 1226 96 l 1226 0 l 656 0 l 656 242 l 265 242 l 331 336 l 656 336 l 656 838 l 682 828 l 118 0 l 4 0 z "},"Ǽ":{"ha":1326,"x_min":4,"x_max":1226,"o":"m 4 0 l 676 972 l 1226 972 l 1226 876 l 758 876 l 758 544 l 1158 544 l 1158 447 l 758 447 l 758 96 l 1226 96 l 1226 0 l 656 0 l 656 242 l 265 242 l 331 336 l 656 336 l 656 838 l 682 828 l 118 0 l 4 0 m 804 1053 l 774 1108 l 1013 1256 l 1063 1163 l 804 1053 z "},"B":{"ha":932,"x_min":142,"x_max":863,"o":"m 142 0 l 142 972 l 536 972 q 685 943 624 972 q 779 860 747 914 q 811 732 811 806 q 762 590 811 649 q 628 511 713 531 l 624 536 q 752 490 699 525 q 834 401 806 454 q 863 279 863 347 q 842 163 863 215 q 781 75 822 111 q 681 19 740 39 q 542 0 621 0 l 142 0 m 251 106 l 538 106 q 697 153 644 106 q 750 279 750 200 q 724 369 750 332 q 651 428 699 407 q 535 449 603 449 l 251 449 l 251 106 m 251 556 l 528 556 q 616 576 576 556 q 678 631 656 596 q 701 713 701 667 q 653 824 701 782 q 518 867 604 867 l 251 867 l 251 556 z "},"C":{"ha":949,"x_min":71,"x_max":899,"o":"m 539 -14 q 351 22 436 -14 q 202 125 265 58 q 105 283 139 192 q 71 485 71 375 q 107 681 71 590 q 208 840 143 772 q 358 944 272 907 q 547 982 444 982 q 685 961 619 982 q 806 903 751 940 q 899 817 861 867 l 824 740 q 694 838 764 804 q 547 872 624 872 q 403 843 469 872 q 287 763 336 814 q 210 640 238 711 q 182 485 182 568 q 210 326 182 397 q 287 203 238 254 q 404 125 336 153 q 556 97 472 97 q 656 110 607 97 q 746 149 704 124 q 822 207 788 174 l 879 117 q 790 49 844 79 q 672 3 736 19 q 539 -14 607 -14 z "},"Ć":{"ha":949,"x_min":71,"x_max":899,"o":"m 539 -14 q 351 22 436 -14 q 202 125 265 58 q 105 283 139 192 q 71 485 71 375 q 107 681 71 590 q 208 840 143 772 q 358 944 272 907 q 547 982 444 982 q 685 961 619 982 q 806 903 751 940 q 899 817 861 867 l 824 740 q 694 838 764 804 q 547 872 624 872 q 403 843 469 872 q 287 763 336 814 q 210 640 238 711 q 182 485 182 568 q 210 326 182 397 q 287 203 238 254 q 404 125 336 153 q 556 97 472 97 q 656 110 607 97 q 746 149 704 124 q 822 207 788 174 l 879 117 q 790 49 844 79 q 672 3 736 19 q 539 -14 607 -14 m 458 1053 l 428 1108 l 667 1256 l 717 1163 l 458 1053 z "},"Č":{"ha":949,"x_min":71,"x_max":899,"o":"m 539 -14 q 351 22 436 -14 q 202 125 265 58 q 105 283 139 192 q 71 485 71 375 q 107 681 71 590 q 208 840 143 772 q 358 944 272 907 q 547 982 444 982 q 685 961 619 982 q 806 903 751 940 q 899 817 861 867 l 824 740 q 694 838 764 804 q 547 872 624 872 q 403 843 469 872 q 287 763 336 814 q 210 640 238 711 q 182 485 182 568 q 210 326 182 397 q 287 203 238 254 q 404 125 336 153 q 556 97 472 97 q 656 110 607 97 q 746 149 704 124 q 822 207 788 174 l 879 117 q 790 49 844 79 q 672 3 736 19 q 539 -14 607 -14 m 500 1057 l 339 1190 l 381 1228 l 563 1131 l 529 1131 l 711 1228 l 753 1190 l 592 1057 l 500 1057 z "},"Ç":{"ha":949,"x_min":71,"x_max":899,"o":"m 539 -14 q 351 22 436 -14 q 202 125 265 58 q 105 283 139 192 q 71 485 71 375 q 107 681 71 590 q 208 840 143 772 q 358 944 272 907 q 547 982 444 982 q 685 961 619 982 q 806 903 751 940 q 899 817 861 867 l 824 740 q 694 838 764 804 q 547 872 624 872 q 403 843 469 872 q 287 763 336 814 q 210 640 238 711 q 182 485 182 568 q 210 326 182 397 q 287 203 238 254 q 404 125 336 153 q 556 97 472 97 q 656 110 607 97 q 746 149 704 124 q 822 207 788 174 l 879 117 q 790 49 844 79 q 672 3 736 19 q 539 -14 607 -14 m 406 -331 l 397 -275 q 472 -262 433 -272 q 535 -233 510 -251 q 561 -192 561 -215 q 538 -156 561 -168 q 485 -139 515 -144 q 432 -133 456 -133 l 414 -119 l 506 22 l 571 22 l 508 -75 q 615 -117 581 -86 q 650 -193 650 -147 q 628 -255 650 -229 q 569 -297 606 -281 q 490 -322 533 -314 q 406 -331 447 -331 z "},"Ḉ":{"ha":949,"x_min":71,"x_max":899,"o":"m 539 -14 q 351 22 436 -14 q 202 125 265 58 q 105 283 139 192 q 71 485 71 375 q 107 681 71 590 q 208 840 143 772 q 358 944 272 907 q 547 982 444 982 q 685 961 619 982 q 806 903 751 940 q 899 817 861 867 l 824 740 q 694 838 764 804 q 547 872 624 872 q 403 843 469 872 q 287 763 336 814 q 210 640 238 711 q 182 485 182 568 q 210 326 182 397 q 287 203 238 254 q 404 125 336 153 q 556 97 472 97 q 656 110 607 97 q 746 149 704 124 q 822 207 788 174 l 879 117 q 790 49 844 79 q 672 3 736 19 q 539 -14 607 -14 m 406 -331 l 397 -275 q 472 -262 433 -272 q 535 -233 510 -251 q 561 -192 561 -215 q 538 -156 561 -168 q 485 -139 515 -144 q 432 -133 456 -133 l 414 -119 l 506 22 l 571 22 l 508 -75 q 615 -117 581 -86 q 650 -193 650 -147 q 628 -255 650 -229 q 569 -297 606 -281 q 490 -322 533 -314 q 406 -331 447 -331 m 458 1053 l 428 1108 l 667 1256 l 717 1163 l 458 1053 z "},"Ĉ":{"ha":949,"x_min":71,"x_max":899,"o":"m 539 -14 q 351 22 436 -14 q 202 125 265 58 q 105 283 139 192 q 71 485 71 375 q 107 681 71 590 q 208 840 143 772 q 358 944 272 907 q 547 982 444 982 q 685 961 619 982 q 806 903 751 940 q 899 817 861 867 l 824 740 q 694 838 764 804 q 547 872 624 872 q 403 843 469 872 q 287 763 336 814 q 210 640 238 711 q 182 485 182 568 q 210 326 182 397 q 287 203 238 254 q 404 125 336 153 q 556 97 472 97 q 656 110 607 97 q 746 149 704 124 q 822 207 788 174 l 879 117 q 790 49 844 79 q 672 3 736 19 q 539 -14 607 -14 m 382 1056 l 342 1093 l 506 1225 l 588 1225 l 750 1093 l 711 1056 l 531 1154 l 563 1154 l 382 1056 z "},"Ċ":{"ha":949,"x_min":71,"x_max":899,"o":"m 539 -14 q 351 22 436 -14 q 202 125 265 58 q 105 283 139 192 q 71 485 71 375 q 107 681 71 590 q 208 840 143 772 q 358 944 272 907 q 547 982 444 982 q 685 961 619 982 q 806 903 751 940 q 899 817 861 867 l 824 740 q 694 838 764 804 q 547 872 624 872 q 403 843 469 872 q 287 763 336 814 q 210 640 238 711 q 182 485 182 568 q 210 326 182 397 q 287 203 238 254 q 404 125 336 153 q 556 97 472 97 q 656 110 607 97 q 746 149 704 124 q 822 207 788 174 l 879 117 q 790 49 844 79 q 672 3 736 19 q 539 -14 607 -14 m 546 1068 q 488 1089 507 1068 q 469 1142 469 1110 q 488 1193 469 1171 q 546 1215 507 1215 q 603 1194 585 1215 q 622 1142 622 1174 q 603 1090 622 1113 q 546 1068 585 1068 z "},"D":{"ha":1033,"x_min":142,"x_max":964,"o":"m 142 0 l 142 972 l 510 972 q 692 937 608 972 q 836 837 775 901 q 931 683 897 772 q 964 486 964 594 q 931 290 964 379 q 837 135 897 200 q 692 35 776 71 q 510 0 608 0 l 142 0 m 251 92 l 244 106 l 503 106 q 644 133 579 106 q 755 210 708 161 q 826 331 801 260 q 851 486 851 401 q 826 641 851 571 q 754 761 801 711 q 643 839 707 811 q 503 867 579 867 l 242 867 l 251 879 l 251 92 z "},"Ǳ":{"ha":1875,"x_min":142,"x_max":1796,"o":"m 142 0 l 142 972 l 510 972 q 692 937 608 972 q 836 837 775 901 q 931 683 897 772 q 964 486 964 594 q 931 290 964 379 q 837 135 897 200 q 692 35 776 71 q 510 0 608 0 l 142 0 m 251 92 l 244 106 l 503 106 q 644 133 579 106 q 755 210 708 161 q 826 331 801 260 q 851 486 851 401 q 826 641 851 571 q 754 761 801 711 q 643 839 707 811 q 503 867 579 867 l 242 867 l 251 879 l 251 92 m 1054 0 l 1054 83 l 1649 888 l 1668 867 l 1090 867 l 1090 972 l 1781 972 l 1781 890 l 1189 85 l 1172 106 l 1796 106 l 1796 0 l 1054 0 z "},"ǳ":{"ha":1875,"x_min":142,"x_max":1796,"o":"m 142 0 l 142 972 l 510 972 q 692 937 608 972 q 836 837 775 901 q 931 683 897 772 q 964 486 964 594 q 931 290 964 379 q 837 135 897 200 q 692 35 776 71 q 510 0 608 0 l 142 0 m 251 92 l 244 106 l 503 106 q 644 133 579 106 q 755 210 708 161 q 826 331 801 260 q 851 486 851 401 q 826 641 851 571 q 754 761 801 711 q 643 839 707 811 q 503 867 579 867 l 242 867 l 251 879 l 251 92 m 1054 0 l 1054 83 l 1649 888 l 1668 867 l 1090 867 l 1090 972 l 1781 972 l 1781 890 l 1189 85 l 1172 106 l 1796 106 l 1796 0 l 1054 0 z "},"Ǆ":{"ha":1875,"x_min":142,"x_max":1796,"o":"m 142 0 l 142 972 l 510 972 q 692 937 608 972 q 836 837 775 901 q 931 683 897 772 q 964 486 964 594 q 931 290 964 379 q 837 135 897 200 q 692 35 776 71 q 510 0 608 0 l 142 0 m 251 92 l 244 106 l 503 106 q 644 133 579 106 q 755 210 708 161 q 826 331 801 260 q 851 486 851 401 q 826 641 851 571 q 754 761 801 711 q 643 839 707 811 q 503 867 579 867 l 242 867 l 251 879 l 251 92 m 1054 0 l 1054 83 l 1649 888 l 1668 867 l 1090 867 l 1090 972 l 1781 972 l 1781 890 l 1189 85 l 1172 106 l 1796 106 l 1796 0 l 1054 0 m 1378 1057 l 1217 1190 l 1258 1228 l 1440 1131 l 1407 1131 l 1589 1228 l 1631 1190 l 1469 1057 l 1378 1057 z "},"Ð":{"ha":1035,"x_min":57,"x_max":964,"o":"m 57 439 l 57 532 l 429 532 l 429 439 l 57 439 m 142 0 l 142 972 l 510 972 q 692 937 608 972 q 836 837 775 901 q 931 683 897 772 q 964 486 964 594 q 931 290 964 379 q 837 135 897 200 q 692 35 776 71 q 510 0 608 0 l 142 0 m 251 92 l 244 106 l 503 106 q 644 133 579 106 q 755 210 708 161 q 826 331 801 260 q 851 486 851 401 q 826 641 851 571 q 754 761 801 711 q 643 839 707 811 q 503 867 579 867 l 242 867 l 251 879 l 251 92 z "},"Ď":{"ha":1035,"x_min":142,"x_max":964,"o":"m 142 0 l 142 972 l 510 972 q 692 937 608 972 q 836 837 775 901 q 931 683 897 772 q 964 486 964 594 q 931 290 964 379 q 837 135 897 200 q 692 35 776 71 q 510 0 608 0 l 142 0 m 251 92 l 244 106 l 503 106 q 644 133 579 106 q 755 210 708 161 q 826 331 801 260 q 851 486 851 401 q 826 641 851 571 q 754 761 801 711 q 643 839 707 811 q 503 867 579 867 l 242 867 l 251 879 l 251 92 m 471 1057 l 310 1190 l 351 1228 l 533 1131 l 500 1131 l 682 1228 l 724 1190 l 563 1057 l 471 1057 z "},"Đ":{"ha":1035,"x_min":57,"x_max":964,"o":"m 57 439 l 57 532 l 429 532 l 429 439 l 57 439 m 142 0 l 142 972 l 510 972 q 692 937 608 972 q 836 837 775 901 q 931 683 897 772 q 964 486 964 594 q 931 290 964 379 q 837 135 897 200 q 692 35 776 71 q 510 0 608 0 l 142 0 m 251 92 l 244 106 l 503 106 q 644 133 579 106 q 755 210 708 161 q 826 331 801 260 q 851 486 851 401 q 826 641 851 571 q 754 761 801 711 q 643 839 707 811 q 503 867 579 867 l 242 867 l 251 879 l 251 92 z "},"Ḍ":{"ha":1035,"x_min":142,"x_max":964,"o":"m 142 0 l 142 972 l 510 972 q 692 937 608 972 q 836 837 775 901 q 931 683 897 772 q 964 486 964 594 q 931 290 964 379 q 837 135 897 200 q 692 35 776 71 q 510 0 608 0 l 142 0 m 251 92 l 244 106 l 503 106 q 644 133 579 106 q 755 210 708 161 q 826 331 801 260 q 851 486 851 401 q 826 641 851 571 q 754 761 801 711 q 643 839 707 811 q 503 867 579 867 l 242 867 l 251 879 l 251 92 m 517 -256 q 460 -235 479 -256 q 440 -181 440 -215 q 460 -128 440 -149 q 517 -108 481 -108 q 574 -128 554 -108 q 593 -182 593 -147 q 573 -235 593 -214 q 517 -256 553 -256 z "},"Ḏ":{"ha":1035,"x_min":142,"x_max":964,"o":"m 142 0 l 142 972 l 510 972 q 692 937 608 972 q 836 837 775 901 q 931 683 897 772 q 964 486 964 594 q 931 290 964 379 q 837 135 897 200 q 692 35 776 71 q 510 0 608 0 l 142 0 m 251 92 l 244 106 l 503 106 q 644 133 579 106 q 755 210 708 161 q 826 331 801 260 q 851 486 851 401 q 826 641 851 571 q 754 761 801 711 q 643 839 707 811 q 503 867 579 867 l 242 867 l 251 879 l 251 92 m 325 -221 l 325 -142 l 710 -142 l 710 -221 l 325 -221 z "},"ǲ":{"ha":1679,"x_min":142,"x_max":1621,"o":"m 142 0 l 142 972 l 510 972 q 692 937 608 972 q 836 837 775 901 q 931 683 897 772 q 964 486 964 594 q 931 290 964 379 q 837 135 897 200 q 692 35 776 71 q 510 0 608 0 l 142 0 m 251 92 l 244 106 l 503 106 q 644 133 579 106 q 755 210 708 161 q 826 331 801 260 q 851 486 851 401 q 826 641 851 571 q 754 761 801 711 q 643 839 707 811 q 503 867 579 867 l 242 867 l 251 879 l 251 92 m 1094 0 l 1094 92 l 1497 657 l 1496 636 l 1094 636 l 1094 729 l 1606 729 l 1606 639 l 1210 82 l 1204 93 l 1621 93 l 1621 0 l 1094 0 z "},"ǅ":{"ha":1679,"x_min":142,"x_max":1621,"o":"m 142 0 l 142 972 l 510 972 q 692 937 608 972 q 836 837 775 901 q 931 683 897 772 q 964 486 964 594 q 931 290 964 379 q 837 135 897 200 q 692 35 776 71 q 510 0 608 0 l 142 0 m 251 92 l 244 106 l 503 106 q 644 133 579 106 q 755 210 708 161 q 826 331 801 260 q 851 486 851 401 q 826 641 851 571 q 754 761 801 711 q 643 839 707 811 q 503 867 579 867 l 242 867 l 251 879 l 251 92 m 1094 0 l 1094 92 l 1497 657 l 1496 636 l 1094 636 l 1094 729 l 1606 729 l 1606 639 l 1210 82 l 1204 93 l 1621 93 l 1621 0 l 1094 0 m 1310 850 l 1163 996 l 1203 1033 l 1372 924 l 1339 924 l 1508 1033 l 1549 996 l 1401 850 l 1310 850 z "},"E":{"ha":831,"x_min":142,"x_max":731,"o":"m 142 0 l 142 972 l 731 972 l 731 867 l 251 867 l 251 106 l 728 106 l 728 0 l 142 0 m 193 447 l 193 553 l 653 553 l 653 447 l 193 447 z "},"É":{"ha":831,"x_min":142,"x_max":731,"o":"m 142 0 l 142 972 l 731 972 l 731 867 l 251 867 l 251 106 l 728 106 l 728 0 l 142 0 m 193 447 l 193 553 l 653 553 l 653 447 l 193 447 m 360 1053 l 329 1108 l 568 1256 l 618 1163 l 360 1053 z "},"Ĕ":{"ha":831,"x_min":142,"x_max":731,"o":"m 142 0 l 142 972 l 731 972 l 731 867 l 251 867 l 251 106 l 728 106 l 728 0 l 142 0 m 193 447 l 193 553 l 653 553 l 653 447 l 193 447 m 447 1049 q 351 1072 394 1049 q 278 1135 307 1096 q 236 1224 249 1175 l 315 1236 q 365 1163 331 1193 q 447 1132 400 1132 q 530 1163 494 1132 q 579 1236 565 1193 l 658 1224 q 617 1135 647 1175 q 544 1072 588 1096 q 447 1049 501 1049 z "},"Ě":{"ha":831,"x_min":142,"x_max":731,"o":"m 142 0 l 142 972 l 731 972 l 731 867 l 251 867 l 251 106 l 728 106 l 728 0 l 142 0 m 193 447 l 193 553 l 653 553 l 653 447 l 193 447 m 401 1057 l 240 1190 l 282 1228 l 464 1131 l 431 1131 l 613 1228 l 654 1190 l 493 1057 l 401 1057 z "},"Ḝ":{"ha":831,"x_min":142,"x_max":731,"o":"m 142 0 l 142 972 l 731 972 l 731 867 l 251 867 l 251 106 l 728 106 l 728 0 l 142 0 m 193 447 l 193 553 l 653 553 l 653 447 l 193 447 m 294 -331 l 286 -275 q 360 -262 322 -272 q 424 -233 399 -251 q 450 -192 450 -215 q 427 -156 450 -168 q 374 -139 404 -144 q 321 -133 344 -133 l 303 -119 l 394 22 l 460 22 l 397 -75 q 504 -117 469 -86 q 539 -193 539 -147 q 517 -255 539 -229 q 458 -297 494 -281 q 379 -322 422 -314 q 294 -331 336 -331 m 447 1049 q 351 1072 394 1049 q 278 1135 307 1096 q 236 1224 249 1175 l 315 1236 q 365 1163 331 1193 q 447 1132 400 1132 q 530 1163 494 1132 q 579 1236 565 1193 l 658 1224 q 617 1135 647 1175 q 544 1072 588 1096 q 447 1049 501 1049 z "},"Ê":{"ha":831,"x_min":142,"x_max":731,"o":"m 142 0 l 142 972 l 731 972 l 731 867 l 251 867 l 251 106 l 728 106 l 728 0 l 142 0 m 193 447 l 193 553 l 653 553 l 653 447 l 193 447 m 283 1056 l 243 1093 l 407 1225 l 489 1225 l 651 1093 l 613 1056 l 432 1154 l 464 1154 l 283 1056 z "},"Ế":{"ha":831,"x_min":142,"x_max":799,"o":"m 142 0 l 142 972 l 731 972 l 731 867 l 251 867 l 251 106 l 728 106 l 728 0 l 142 0 m 193 447 l 193 553 l 653 553 l 653 447 l 193 447 m 282 1056 l 246 1094 l 407 1224 l 488 1224 l 647 1094 l 613 1056 l 431 1151 l 464 1151 l 282 1056 m 650 1199 l 596 1236 l 708 1424 l 799 1357 l 650 1199 z "},"Ệ":{"ha":831,"x_min":142,"x_max":731,"o":"m 142 0 l 142 972 l 731 972 l 731 867 l 251 867 l 251 106 l 728 106 l 728 0 l 142 0 m 193 447 l 193 553 l 653 553 l 653 447 l 193 447 m 415 -256 q 358 -235 378 -256 q 339 -181 339 -215 q 359 -128 339 -149 q 415 -108 379 -108 q 472 -128 453 -108 q 492 -182 492 -147 q 472 -235 492 -214 q 415 -256 451 -256 m 283 1056 l 243 1093 l 407 1225 l 489 1225 l 651 1093 l 613 1056 l 432 1154 l 464 1154 l 283 1056 z "},"Ề":{"ha":831,"x_min":142,"x_max":731,"o":"m 142 0 l 142 972 l 731 972 l 731 867 l 251 867 l 251 106 l 728 106 l 728 0 l 142 0 m 193 447 l 193 553 l 653 553 l 653 447 l 193 447 m 282 1056 l 246 1094 l 407 1224 l 486 1224 l 647 1094 l 611 1056 l 429 1151 l 464 1151 l 282 1056 m 661 1200 l 510 1360 l 600 1426 l 713 1240 l 661 1200 z "},"Ể":{"ha":831,"x_min":142,"x_max":778,"o":"m 142 0 l 142 972 l 731 972 l 731 867 l 251 867 l 251 106 l 728 106 l 728 0 l 142 0 m 193 447 l 193 553 l 653 553 l 653 447 l 193 447 m 282 1056 l 246 1094 l 407 1224 l 486 1224 l 647 1094 l 611 1056 l 431 1151 l 464 1151 l 282 1056 m 625 1201 q 613 1220 618 1210 q 608 1242 608 1231 q 618 1267 608 1256 q 650 1294 628 1279 q 683 1316 671 1307 q 694 1332 694 1325 q 678 1352 694 1346 q 640 1358 663 1358 q 591 1353 617 1358 q 540 1336 565 1347 l 522 1404 q 581 1426 550 1418 q 642 1433 613 1433 q 742 1407 707 1433 q 778 1340 778 1381 q 760 1298 778 1314 q 724 1271 742 1282 q 689 1249 700 1258 q 678 1231 678 1239 q 682 1215 678 1224 l 625 1201 z "},"Ễ":{"ha":831,"x_min":142,"x_max":731,"o":"m 142 0 l 142 972 l 731 972 l 731 867 l 251 867 l 251 106 l 728 106 l 728 0 l 142 0 m 193 447 l 193 553 l 653 553 l 653 447 l 193 447 m 283 1056 l 247 1094 l 407 1224 l 489 1224 l 649 1094 l 613 1056 l 432 1151 l 464 1151 l 283 1056 m 550 1296 q 494 1305 521 1296 q 442 1324 467 1314 q 400 1342 418 1335 q 365 1349 382 1349 q 333 1335 347 1349 q 314 1299 319 1322 l 240 1308 q 278 1393 244 1358 q 358 1428 313 1428 q 410 1419 386 1428 q 458 1400 435 1410 q 497 1384 478 1392 q 533 1376 517 1376 q 565 1388 553 1376 q 583 1429 578 1400 l 656 1417 q 624 1331 651 1365 q 550 1296 597 1296 z "},"Ȅ":{"ha":831,"x_min":113,"x_max":731,"o":"m 142 0 l 142 972 l 731 972 l 731 867 l 251 867 l 251 106 l 728 106 l 728 0 l 142 0 m 193 447 l 193 553 l 653 553 l 653 447 l 193 447 m 582 1047 l 358 1189 l 431 1269 l 621 1099 l 582 1047 m 336 1047 l 113 1189 l 183 1269 l 375 1099 l 336 1047 z "},"Ë":{"ha":831,"x_min":142,"x_max":731,"o":"m 142 0 l 142 972 l 731 972 l 731 867 l 251 867 l 251 106 l 728 106 l 728 0 l 142 0 m 193 447 l 193 553 l 653 553 l 653 447 l 193 447 m 578 1069 q 520 1090 539 1069 q 501 1142 501 1110 q 520 1192 501 1169 q 578 1214 539 1214 q 635 1194 617 1214 q 654 1142 654 1175 q 635 1092 654 1114 q 578 1069 617 1069 m 317 1069 q 260 1090 281 1069 q 240 1142 240 1110 q 260 1192 240 1169 q 317 1214 279 1214 q 375 1194 357 1214 q 393 1142 393 1175 q 375 1092 393 1114 q 317 1069 357 1069 z "},"Ė":{"ha":831,"x_min":142,"x_max":731,"o":"m 142 0 l 142 972 l 731 972 l 731 867 l 251 867 l 251 106 l 728 106 l 728 0 l 142 0 m 193 447 l 193 553 l 653 553 l 653 447 l 193 447 m 447 1068 q 390 1089 408 1068 q 371 1142 371 1110 q 390 1193 371 1171 q 447 1215 408 1215 q 505 1194 486 1215 q 524 1142 524 1174 q 505 1090 524 1113 q 447 1068 486 1068 z "},"Ẹ":{"ha":831,"x_min":142,"x_max":731,"o":"m 142 0 l 142 972 l 731 972 l 731 867 l 251 867 l 251 106 l 728 106 l 728 0 l 142 0 m 193 447 l 193 553 l 653 553 l 653 447 l 193 447 m 415 -256 q 358 -235 378 -256 q 339 -181 339 -215 q 359 -128 339 -149 q 415 -108 379 -108 q 472 -128 453 -108 q 492 -182 492 -147 q 472 -235 492 -214 q 415 -256 451 -256 z "},"È":{"ha":831,"x_min":142,"x_max":731,"o":"m 142 0 l 142 972 l 731 972 l 731 867 l 251 867 l 251 106 l 728 106 l 728 0 l 142 0 m 193 447 l 193 553 l 653 553 l 653 447 l 193 447 m 543 1053 l 285 1163 l 336 1256 l 575 1108 l 543 1053 z "},"Ẻ":{"ha":831,"x_min":142,"x_max":731,"o":"m 142 0 l 142 972 l 731 972 l 731 867 l 251 867 l 251 106 l 728 106 l 728 0 l 142 0 m 193 447 l 193 553 l 653 553 l 653 447 l 193 447 m 422 1057 q 410 1078 415 1067 q 406 1100 406 1089 q 416 1129 406 1115 q 447 1157 426 1143 q 481 1181 469 1172 q 492 1201 492 1190 q 476 1225 492 1218 q 436 1232 460 1232 q 388 1226 414 1232 q 339 1210 363 1221 l 321 1278 q 378 1299 347 1292 q 438 1306 408 1306 q 540 1278 504 1306 q 575 1210 575 1251 q 558 1160 575 1179 q 521 1131 542 1142 q 487 1110 499 1119 q 475 1089 475 1101 q 476 1079 475 1083 q 479 1071 478 1075 l 422 1057 z "},"Ȇ":{"ha":831,"x_min":142,"x_max":731,"o":"m 142 0 l 142 972 l 731 972 l 731 867 l 251 867 l 251 106 l 728 106 l 728 0 l 142 0 m 193 447 l 193 553 l 653 553 l 653 447 l 193 447 m 315 1051 l 236 1063 q 278 1151 249 1111 q 351 1214 307 1190 q 447 1238 394 1238 q 544 1214 501 1238 q 617 1151 588 1190 q 658 1063 647 1111 l 579 1051 q 530 1123 565 1093 q 447 1153 494 1153 q 365 1123 400 1153 q 315 1051 329 1093 z "},"Ē":{"ha":831,"x_min":142,"x_max":731,"o":"m 142 0 l 142 972 l 731 972 l 731 867 l 251 867 l 251 106 l 728 106 l 728 0 l 142 0 m 193 447 l 193 553 l 653 553 l 653 447 l 193 447 m 232 1103 l 232 1182 l 664 1182 l 664 1103 l 232 1103 z "},"Ḗ":{"ha":831,"x_min":142,"x_max":731,"o":"m 142 0 l 142 972 l 731 972 l 731 867 l 251 867 l 251 106 l 728 106 l 728 0 l 142 0 m 193 447 l 193 553 l 653 553 l 653 447 l 193 447 m 232 1103 l 232 1182 l 664 1182 l 664 1103 l 232 1103 m 360 1247 l 329 1303 l 568 1450 l 618 1357 l 360 1247 z "},"Ḕ":{"ha":831,"x_min":142,"x_max":731,"o":"m 142 0 l 142 972 l 731 972 l 731 867 l 251 867 l 251 106 l 728 106 l 728 0 l 142 0 m 193 447 l 193 553 l 653 553 l 653 447 l 193 447 m 232 1103 l 232 1182 l 664 1182 l 664 1103 l 232 1103 m 542 1247 l 283 1357 l 335 1450 l 574 1303 l 542 1247 z "},"Ę":{"ha":831,"x_min":142,"x_max":731,"o":"m 142 0 l 142 972 l 731 972 l 731 867 l 251 867 l 251 106 l 728 106 l 728 0 l 142 0 m 193 447 l 193 553 l 653 553 l 653 447 l 193 447 m 581 -292 q 507 -272 540 -292 q 453 -221 474 -253 q 433 -150 433 -189 q 449 -81 433 -112 q 494 -22 465 -49 q 562 24 522 4 q 649 56 601 44 l 692 0 q 576 -53 624 -14 q 528 -140 528 -92 q 547 -190 528 -171 q 594 -210 565 -210 q 634 -198 617 -210 q 664 -167 651 -186 l 722 -210 q 667 -267 707 -243 q 581 -292 628 -292 z "},"Ẽ":{"ha":831,"x_min":142,"x_max":731,"o":"m 142 0 l 142 972 l 731 972 l 731 867 l 251 867 l 251 106 l 728 106 l 728 0 l 142 0 m 193 447 l 193 553 l 653 553 l 653 447 l 193 447 m 543 1075 q 488 1084 517 1075 q 421 1108 458 1093 q 385 1124 403 1117 q 350 1131 367 1131 q 318 1117 331 1131 q 306 1075 306 1103 l 224 1075 q 264 1174 224 1139 q 356 1210 304 1210 q 415 1199 386 1210 q 468 1176 443 1188 q 510 1160 493 1165 q 538 1156 526 1156 q 574 1169 560 1156 q 589 1210 589 1183 l 669 1210 q 653 1142 669 1174 q 609 1093 638 1111 q 543 1075 581 1075 z "},"F":{"ha":824,"x_min":142,"x_max":743,"o":"m 142 0 l 142 972 l 251 972 l 251 0 l 142 0 m 192 433 l 192 540 l 675 540 l 675 433 l 192 433 m 193 867 l 193 972 l 743 972 l 743 867 l 193 867 z "},"G":{"ha":1064,"x_min":71,"x_max":1004,"o":"m 565 -14 q 369 24 460 -14 q 212 128 279 61 q 108 287 144 196 q 71 485 71 378 q 108 681 71 590 q 211 840 144 772 q 368 944 278 907 q 564 982 458 982 q 709 960 639 982 q 836 901 779 939 q 932 811 893 863 l 860 738 q 723 839 799 803 q 564 875 647 875 q 413 846 482 875 q 291 764 343 817 q 210 640 239 711 q 182 485 182 568 q 212 331 182 403 q 294 206 242 260 q 417 123 347 153 q 568 93 488 93 q 697 114 639 93 q 797 174 754 135 q 863 265 840 213 q 886 376 886 317 l 886 404 l 903 389 l 567 389 l 567 499 l 999 499 q 1002 474 1001 485 q 1003 453 1003 463 q 1004 435 1004 443 q 972 248 1004 331 q 880 107 939 165 q 741 17 821 49 q 565 -14 661 -14 z "},"Ğ":{"ha":1064,"x_min":71,"x_max":1004,"o":"m 565 -14 q 369 24 460 -14 q 212 128 279 61 q 108 287 144 196 q 71 485 71 378 q 108 681 71 590 q 211 840 144 772 q 368 944 278 907 q 564 982 458 982 q 709 960 639 982 q 836 901 779 939 q 932 811 893 863 l 860 738 q 723 839 799 803 q 564 875 647 875 q 413 846 482 875 q 291 764 343 817 q 210 640 239 711 q 182 485 182 568 q 212 331 182 403 q 294 206 242 260 q 417 123 347 153 q 568 93 488 93 q 697 114 639 93 q 797 174 754 135 q 863 265 840 213 q 886 376 886 317 l 886 404 l 903 389 l 567 389 l 567 499 l 999 499 q 1002 474 1001 485 q 1003 453 1003 463 q 1004 435 1004 443 q 972 248 1004 331 q 880 107 939 165 q 741 17 821 49 q 565 -14 661 -14 m 557 1049 q 460 1072 504 1049 q 388 1135 417 1096 q 346 1224 358 1175 l 425 1236 q 475 1163 440 1193 q 557 1132 510 1132 q 640 1163 604 1132 q 689 1236 675 1193 l 768 1224 q 727 1135 757 1175 q 654 1072 697 1096 q 557 1049 611 1049 z "},"Ǧ":{"ha":1064,"x_min":71,"x_max":1004,"o":"m 565 -14 q 369 24 460 -14 q 212 128 279 61 q 108 287 144 196 q 71 485 71 378 q 108 681 71 590 q 211 840 144 772 q 368 944 278 907 q 564 982 458 982 q 709 960 639 982 q 836 901 779 939 q 932 811 893 863 l 860 738 q 723 839 799 803 q 564 875 647 875 q 413 846 482 875 q 291 764 343 817 q 210 640 239 711 q 182 485 182 568 q 212 331 182 403 q 294 206 242 260 q 417 123 347 153 q 568 93 488 93 q 697 114 639 93 q 797 174 754 135 q 863 265 840 213 q 886 376 886 317 l 886 404 l 903 389 l 567 389 l 567 499 l 999 499 q 1002 474 1001 485 q 1003 453 1003 463 q 1004 435 1004 443 q 972 248 1004 331 q 880 107 939 165 q 741 17 821 49 q 565 -14 661 -14 m 511 1057 l 350 1190 l 392 1228 l 574 1131 l 540 1131 l 722 1228 l 764 1190 l 603 1057 l 511 1057 z "},"Ĝ":{"ha":1064,"x_min":71,"x_max":1004,"o":"m 565 -14 q 369 24 460 -14 q 212 128 279 61 q 108 287 144 196 q 71 485 71 378 q 108 681 71 590 q 211 840 144 772 q 368 944 278 907 q 564 982 458 982 q 709 960 639 982 q 836 901 779 939 q 932 811 893 863 l 860 738 q 723 839 799 803 q 564 875 647 875 q 413 846 482 875 q 291 764 343 817 q 210 640 239 711 q 182 485 182 568 q 212 331 182 403 q 294 206 242 260 q 417 123 347 153 q 568 93 488 93 q 697 114 639 93 q 797 174 754 135 q 863 265 840 213 q 886 376 886 317 l 886 404 l 903 389 l 567 389 l 567 499 l 999 499 q 1002 474 1001 485 q 1003 453 1003 463 q 1004 435 1004 443 q 972 248 1004 331 q 880 107 939 165 q 741 17 821 49 q 565 -14 661 -14 m 392 1056 l 351 1093 l 515 1225 l 597 1225 l 760 1093 l 721 1056 l 540 1154 l 572 1154 l 392 1056 z "},"Ģ":{"ha":1064,"x_min":71,"x_max":1004,"o":"m 565 -14 q 369 24 460 -14 q 212 128 279 61 q 108 287 144 196 q 71 485 71 378 q 108 681 71 590 q 211 840 144 772 q 368 944 278 907 q 564 982 458 982 q 709 960 639 982 q 836 901 779 939 q 932 811 893 863 l 860 738 q 723 839 799 803 q 564 875 647 875 q 413 846 482 875 q 291 764 343 817 q 210 640 239 711 q 182 485 182 568 q 212 331 182 403 q 294 206 242 260 q 417 123 347 153 q 568 93 488 93 q 697 114 639 93 q 797 174 754 135 q 863 265 840 213 q 886 376 886 317 l 886 404 l 903 389 l 567 389 l 567 499 l 999 499 q 1002 474 1001 485 q 1003 453 1003 463 q 1004 435 1004 443 q 972 248 1004 331 q 880 107 939 165 q 741 17 821 49 q 565 -14 661 -14 m 479 -319 l 450 -274 q 482 -256 467 -268 q 507 -231 497 -244 q 517 -204 517 -218 q 512 -189 517 -194 q 490 -178 507 -183 q 462 -159 469 -171 q 454 -129 454 -147 q 474 -89 454 -106 q 526 -72 494 -72 q 590 -98 564 -72 q 615 -165 615 -124 q 606 -212 615 -190 q 580 -253 597 -233 q 537 -289 563 -272 q 479 -319 511 -306 z "},"Ġ":{"ha":1064,"x_min":71,"x_max":1004,"o":"m 565 -14 q 369 24 460 -14 q 212 128 279 61 q 108 287 144 196 q 71 485 71 378 q 108 681 71 590 q 211 840 144 772 q 368 944 278 907 q 564 982 458 982 q 709 960 639 982 q 836 901 779 939 q 932 811 893 863 l 860 738 q 723 839 799 803 q 564 875 647 875 q 413 846 482 875 q 291 764 343 817 q 210 640 239 711 q 182 485 182 568 q 212 331 182 403 q 294 206 242 260 q 417 123 347 153 q 568 93 488 93 q 697 114 639 93 q 797 174 754 135 q 863 265 840 213 q 886 376 886 317 l 886 404 l 903 389 l 567 389 l 567 499 l 999 499 q 1002 474 1001 485 q 1003 453 1003 463 q 1004 435 1004 443 q 972 248 1004 331 q 880 107 939 165 q 741 17 821 49 q 565 -14 661 -14 m 557 1068 q 499 1089 518 1068 q 481 1142 481 1110 q 499 1193 481 1171 q 557 1215 518 1215 q 615 1194 596 1215 q 633 1142 633 1174 q 615 1090 633 1113 q 557 1068 596 1068 z "},"Ḡ":{"ha":1064,"x_min":71,"x_max":1004,"o":"m 565 -14 q 369 24 460 -14 q 212 128 279 61 q 108 287 144 196 q 71 485 71 378 q 108 681 71 590 q 211 840 144 772 q 368 944 278 907 q 564 982 458 982 q 709 960 639 982 q 836 901 779 939 q 932 811 893 863 l 860 738 q 723 839 799 803 q 564 875 647 875 q 413 846 482 875 q 291 764 343 817 q 210 640 239 711 q 182 485 182 568 q 212 331 182 403 q 294 206 242 260 q 417 123 347 153 q 568 93 488 93 q 697 114 639 93 q 797 174 754 135 q 863 265 840 213 q 886 376 886 317 l 886 404 l 903 389 l 567 389 l 567 499 l 999 499 q 1002 474 1001 485 q 1003 453 1003 463 q 1004 435 1004 443 q 972 248 1004 331 q 880 107 939 165 q 741 17 821 49 q 565 -14 661 -14 m 340 1103 l 340 1182 l 772 1182 l 772 1103 l 340 1103 z "},"H":{"ha":1043,"x_min":142,"x_max":901,"o":"m 792 0 l 792 972 l 901 972 l 901 0 l 792 0 m 142 0 l 142 972 l 251 972 l 251 0 l 142 0 m 190 432 l 190 538 l 842 538 l 842 432 l 190 432 z "},"Ħ":{"ha":1132,"x_min":64,"x_max":1068,"o":"m 64 685 l 64 790 l 215 790 l 261 781 l 849 781 l 885 790 l 1068 790 l 1068 685 l 892 685 l 860 693 l 251 693 l 204 685 l 64 685 m 836 0 l 836 972 l 946 972 l 946 0 l 836 0 m 186 0 l 186 972 l 296 972 l 296 0 l 186 0 m 235 432 l 235 538 l 885 538 l 885 432 l 235 432 z "},"Ḫ":{"ha":1043,"x_min":142,"x_max":901,"o":"m 792 0 l 792 972 l 901 972 l 901 0 l 792 0 m 142 0 l 142 972 l 251 972 l 251 0 l 142 0 m 190 432 l 190 538 l 842 538 l 842 432 l 190 432 m 522 -300 q 386 -247 443 -300 q 311 -101 329 -194 l 390 -90 q 443 -183 407 -149 q 522 -217 479 -217 q 602 -183 565 -217 q 654 -90 639 -149 l 733 -101 q 659 -247 715 -194 q 522 -300 603 -300 z "},"Ĥ":{"ha":1043,"x_min":142,"x_max":901,"o":"m 792 0 l 792 972 l 901 972 l 901 0 l 792 0 m 142 0 l 142 972 l 251 972 l 251 0 l 142 0 m 190 432 l 190 538 l 842 538 l 842 432 l 190 432 m 357 1056 l 317 1093 l 481 1225 l 563 1225 l 725 1093 l 686 1056 l 506 1154 l 538 1154 l 357 1056 z "},"Ḥ":{"ha":1043,"x_min":142,"x_max":901,"o":"m 792 0 l 792 972 l 901 972 l 901 0 l 792 0 m 142 0 l 142 972 l 251 972 l 251 0 l 142 0 m 190 432 l 190 538 l 842 538 l 842 432 l 190 432 m 522 -256 q 465 -235 485 -256 q 446 -181 446 -215 q 466 -128 446 -149 q 522 -108 486 -108 q 579 -128 560 -108 q 599 -182 599 -147 q 578 -235 599 -214 q 522 -256 558 -256 z "},"I":{"ha":621,"x_min":90,"x_max":532,"o":"m 90 0 l 90 103 l 256 103 l 256 869 l 90 869 l 90 972 l 532 972 l 532 869 l 365 869 l 365 103 l 532 103 l 532 0 l 90 0 z "},"Ĳ":{"ha":1474,"x_min":90,"x_max":1404,"o":"m 90 0 l 90 103 l 256 103 l 256 869 l 90 869 l 90 972 l 532 972 l 532 869 l 365 869 l 365 103 l 532 103 l 532 0 l 90 0 m 954 -14 q 865 -1 907 -14 q 787 35 822 11 q 724 91 751 58 q 676 164 696 124 l 746 236 q 814 149 782 181 q 880 106 846 118 q 956 93 914 93 q 1055 118 1013 93 q 1122 191 1097 143 q 1146 306 1146 239 l 1146 869 l 967 869 l 967 972 l 1404 972 l 1404 869 l 1256 869 l 1256 296 q 1234 168 1256 225 q 1172 70 1213 111 q 1077 8 1132 29 q 954 -14 1022 -14 z "},"Í":{"ha":621,"x_min":90,"x_max":532,"o":"m 90 0 l 90 103 l 256 103 l 256 869 l 90 869 l 90 972 l 532 972 l 532 869 l 365 869 l 365 103 l 532 103 l 532 0 l 90 0 m 224 1053 l 193 1108 l 432 1256 l 482 1163 l 224 1053 z "},"Ĭ":{"ha":621,"x_min":90,"x_max":532,"o":"m 90 0 l 90 103 l 256 103 l 256 869 l 90 869 l 90 972 l 532 972 l 532 869 l 365 869 l 365 103 l 532 103 l 532 0 l 90 0 m 311 1049 q 215 1072 258 1049 q 142 1135 171 1096 q 100 1224 113 1175 l 179 1236 q 229 1163 194 1193 q 311 1132 264 1132 q 394 1163 358 1132 q 443 1236 429 1193 l 522 1224 q 481 1135 511 1175 q 408 1072 451 1096 q 311 1049 365 1049 z "},"Ǐ":{"ha":621,"x_min":90,"x_max":532,"o":"m 90 0 l 90 103 l 256 103 l 256 869 l 90 869 l 90 972 l 532 972 l 532 869 l 365 869 l 365 103 l 532 103 l 532 0 l 90 0 m 265 1057 l 104 1190 l 146 1228 l 328 1131 l 294 1131 l 476 1228 l 518 1190 l 357 1057 l 265 1057 z "},"Î":{"ha":621,"x_min":90,"x_max":532,"o":"m 90 0 l 90 103 l 256 103 l 256 869 l 90 869 l 90 972 l 532 972 l 532 869 l 365 869 l 365 103 l 532 103 l 532 0 l 90 0 m 146 1056 l 106 1093 l 269 1225 l 351 1225 l 514 1093 l 475 1056 l 294 1154 l 326 1154 l 146 1056 z "},"Ȉ":{"ha":621,"x_min":-25,"x_max":532,"o":"m 90 0 l 90 103 l 256 103 l 256 869 l 90 869 l 90 972 l 532 972 l 532 869 l 365 869 l 365 103 l 532 103 l 532 0 l 90 0 m 444 1047 l 221 1189 l 293 1269 l 483 1099 l 444 1047 m 199 1047 l -25 1189 l 46 1269 l 238 1099 l 199 1047 z "},"Ï":{"ha":621,"x_min":90,"x_max":532,"o":"m 90 0 l 90 103 l 256 103 l 256 869 l 90 869 l 90 972 l 532 972 l 532 869 l 365 869 l 365 103 l 532 103 l 532 0 l 90 0 m 442 1069 q 384 1090 403 1069 q 365 1142 365 1110 q 384 1192 365 1169 q 442 1214 403 1214 q 499 1194 481 1214 q 518 1142 518 1175 q 499 1092 518 1114 q 442 1069 481 1069 m 181 1069 q 124 1090 144 1069 q 104 1142 104 1110 q 124 1192 104 1169 q 181 1214 143 1214 q 239 1194 221 1214 q 257 1142 257 1175 q 239 1092 257 1114 q 181 1069 221 1069 z "},"Ḯ":{"ha":621,"x_min":90,"x_max":532,"o":"m 90 0 l 90 103 l 256 103 l 256 869 l 90 869 l 90 972 l 532 972 l 532 869 l 365 869 l 365 103 l 532 103 l 532 0 l 90 0 m 224 1257 l 193 1313 l 432 1458 l 482 1365 l 224 1257 m 181 1069 q 124 1090 144 1069 q 104 1142 104 1110 q 124 1192 104 1169 q 181 1214 143 1214 q 239 1194 221 1214 q 257 1142 257 1175 q 239 1092 257 1114 q 181 1069 221 1069 m 442 1069 q 384 1090 403 1069 q 365 1142 365 1110 q 384 1192 365 1169 q 442 1214 403 1214 q 499 1194 481 1214 q 518 1142 518 1175 q 499 1092 518 1114 q 442 1069 481 1069 z "},"İ":{"ha":621,"x_min":90,"x_max":532,"o":"m 90 0 l 90 103 l 256 103 l 256 869 l 90 869 l 90 972 l 532 972 l 532 869 l 365 869 l 365 103 l 532 103 l 532 0 l 90 0 m 311 1068 q 253 1089 272 1068 q 235 1142 235 1110 q 253 1193 235 1171 q 311 1215 272 1215 q 369 1194 350 1215 q 388 1142 388 1174 q 369 1090 388 1113 q 311 1068 350 1068 z "},"Ị":{"ha":621,"x_min":90,"x_max":532,"o":"m 90 0 l 90 103 l 256 103 l 256 869 l 90 869 l 90 972 l 532 972 l 532 869 l 365 869 l 365 103 l 532 103 l 532 0 l 90 0 m 311 -256 q 254 -235 274 -256 q 235 -181 235 -215 q 255 -128 235 -149 q 311 -108 275 -108 q 368 -128 349 -108 q 388 -182 388 -147 q 367 -235 388 -214 q 311 -256 347 -256 z "},"Ì":{"ha":621,"x_min":90,"x_max":532,"o":"m 90 0 l 90 103 l 256 103 l 256 869 l 90 869 l 90 972 l 532 972 l 532 869 l 365 869 l 365 103 l 532 103 l 532 0 l 90 0 m 406 1053 l 147 1163 l 199 1256 l 438 1108 l 406 1053 z "},"Ỉ":{"ha":621,"x_min":90,"x_max":532,"o":"m 90 0 l 90 103 l 256 103 l 256 869 l 90 869 l 90 972 l 532 972 l 532 869 l 365 869 l 365 103 l 532 103 l 532 0 l 90 0 m 285 1057 q 273 1078 278 1067 q 268 1100 268 1089 q 278 1129 268 1115 q 310 1157 289 1143 q 343 1181 332 1172 q 354 1201 354 1190 q 338 1225 354 1218 q 299 1232 322 1232 q 251 1226 276 1232 q 201 1210 225 1221 l 183 1278 q 240 1299 210 1292 q 300 1306 271 1306 q 402 1278 367 1306 q 438 1210 438 1251 q 421 1160 438 1179 q 383 1131 404 1142 q 349 1110 361 1119 q 338 1089 338 1101 q 339 1079 338 1083 q 342 1071 340 1075 l 285 1057 z "},"Ȋ":{"ha":621,"x_min":90,"x_max":532,"o":"m 90 0 l 90 103 l 256 103 l 256 869 l 90 869 l 90 972 l 532 972 l 532 869 l 365 869 l 365 103 l 532 103 l 532 0 l 90 0 m 179 1051 l 100 1063 q 142 1151 113 1111 q 215 1214 171 1190 q 311 1238 258 1238 q 408 1214 365 1238 q 481 1151 451 1190 q 522 1063 511 1111 l 443 1051 q 394 1123 429 1093 q 311 1153 358 1153 q 228 1123 264 1153 q 179 1051 193 1093 z "},"Ī":{"ha":621,"x_min":90,"x_max":532,"o":"m 90 0 l 90 103 l 256 103 l 256 869 l 90 869 l 90 972 l 532 972 l 532 869 l 365 869 l 365 103 l 532 103 l 532 0 l 90 0 m 94 1103 l 94 1182 l 526 1182 l 526 1103 l 94 1103 z "},"Į":{"ha":621,"x_min":90,"x_max":532,"o":"m 90 0 l 90 103 l 256 103 l 256 869 l 90 869 l 90 972 l 532 972 l 532 869 l 365 869 l 365 103 l 532 103 l 532 0 l 90 0 m 326 -292 q 253 -272 286 -292 q 199 -221 219 -253 q 179 -150 179 -189 q 195 -81 179 -112 q 240 -22 211 -49 q 308 24 268 4 q 394 56 347 44 l 438 0 q 322 -53 369 -14 q 274 -140 274 -92 q 292 -190 274 -171 q 340 -210 311 -210 q 380 -198 363 -210 q 410 -167 397 -186 l 468 -210 q 413 -267 453 -243 q 326 -292 374 -292 z "},"Ĩ":{"ha":621,"x_min":88,"x_max":533,"o":"m 90 0 l 90 103 l 256 103 l 256 869 l 90 869 l 90 972 l 532 972 l 532 869 l 365 869 l 365 103 l 532 103 l 532 0 l 90 0 m 407 1075 q 351 1084 381 1075 q 285 1108 322 1093 q 249 1124 267 1117 q 214 1131 231 1131 q 182 1117 194 1131 q 169 1075 169 1103 l 88 1075 q 128 1174 88 1139 q 219 1210 168 1210 q 278 1199 250 1210 q 332 1176 307 1188 q 374 1160 357 1165 q 401 1156 390 1156 q 438 1169 424 1156 q 453 1210 453 1183 l 533 1210 q 517 1142 533 1174 q 473 1093 501 1111 q 407 1075 444 1075 z "},"J":{"ha":853,"x_min":56,"x_max":783,"o":"m 333 -14 q 244 -1 286 -14 q 166 35 201 11 q 103 91 131 58 q 56 164 75 124 l 125 236 q 193 149 161 181 q 259 106 225 118 q 335 93 293 93 q 434 118 392 93 q 501 191 476 143 q 525 306 525 239 l 525 869 l 346 869 l 346 972 l 783 972 l 783 869 l 635 869 l 635 296 q 613 168 635 225 q 551 70 592 111 q 456 8 511 29 q 333 -14 401 -14 z "},"Ĵ":{"ha":853,"x_min":56,"x_max":783,"o":"m 333 -14 q 244 -1 286 -14 q 166 35 201 11 q 103 91 131 58 q 56 164 75 124 l 125 236 q 193 149 161 181 q 259 106 225 118 q 335 93 293 93 q 434 118 392 93 q 501 191 476 143 q 525 306 525 239 l 525 869 l 346 869 l 346 972 l 783 972 l 783 869 l 635 869 l 635 296 q 613 168 635 225 q 551 70 592 111 q 456 8 511 29 q 333 -14 401 -14 m 407 1056 l 367 1093 l 531 1225 l 613 1225 l 775 1093 l 736 1056 l 556 1154 l 588 1154 l 407 1056 z "},"K":{"ha":972,"x_min":142,"x_max":931,"o":"m 229 304 l 224 431 l 771 972 l 917 972 l 229 304 m 142 0 l 142 972 l 251 972 l 251 0 l 142 0 m 792 0 l 403 518 l 485 589 l 931 0 l 792 0 z "},"Ķ":{"ha":972,"x_min":142,"x_max":931,"o":"m 229 304 l 224 431 l 771 972 l 917 972 l 229 304 m 142 0 l 142 972 l 251 972 l 251 0 l 142 0 m 792 0 l 403 518 l 485 589 l 931 0 l 792 0 m 433 -319 l 404 -274 q 436 -256 421 -268 q 461 -231 451 -244 q 471 -204 471 -218 q 466 -189 471 -194 q 444 -178 461 -183 q 416 -159 424 -171 q 408 -129 408 -147 q 428 -89 408 -106 q 481 -72 449 -72 q 544 -98 518 -72 q 569 -165 569 -124 q 560 -212 569 -190 q 534 -253 551 -233 q 491 -289 517 -272 q 433 -319 465 -306 z "},"L":{"ha":801,"x_min":142,"x_max":718,"o":"m 142 0 l 142 972 l 251 972 l 251 106 l 718 106 l 718 0 l 142 0 z "},"Ǉ":{"ha":1654,"x_min":142,"x_max":1585,"o":"m 142 0 l 142 972 l 251 972 l 251 106 l 718 106 l 718 0 l 142 0 m 1135 -14 q 1045 -1 1088 -14 q 967 35 1003 11 q 904 91 932 58 q 857 164 876 124 l 926 236 q 994 149 963 181 q 1060 106 1026 118 q 1136 93 1094 93 q 1235 118 1193 93 q 1302 191 1278 143 q 1326 306 1326 239 l 1326 869 l 1147 869 l 1147 972 l 1585 972 l 1585 869 l 1436 869 l 1436 296 q 1415 168 1436 225 q 1353 70 1393 111 q 1258 8 1313 29 q 1135 -14 1203 -14 z "},"Ĺ":{"ha":801,"x_min":81,"x_max":718,"o":"m 142 0 l 142 972 l 251 972 l 251 106 l 718 106 l 718 0 l 142 0 m 111 1053 l 81 1108 l 319 1256 l 369 1163 l 111 1053 z "},"Ľ":{"ha":801,"x_min":142,"x_max":718,"o":"m 142 0 l 142 972 l 251 972 l 251 106 l 718 106 l 718 0 l 142 0 m 475 726 l 446 771 q 478 788 463 776 q 503 814 493 800 q 513 840 513 828 q 508 856 513 850 q 486 867 503 863 q 458 885 465 874 q 450 915 450 897 q 470 956 450 940 q 522 972 490 972 q 585 947 560 972 q 611 879 611 921 q 602 834 611 856 q 576 793 593 813 q 533 757 558 774 q 475 726 507 740 z "},"Ļ":{"ha":801,"x_min":142,"x_max":718,"o":"m 142 0 l 142 972 l 251 972 l 251 106 l 718 106 l 718 0 l 142 0 m 349 -319 l 319 -274 q 351 -256 336 -268 q 376 -231 367 -244 q 386 -204 386 -218 q 381 -189 386 -194 q 360 -178 376 -183 q 331 -159 339 -171 q 324 -129 324 -147 q 344 -89 324 -106 q 396 -72 364 -72 q 459 -98 433 -72 q 485 -165 485 -124 q 476 -212 485 -190 q 449 -253 467 -233 q 406 -289 432 -272 q 349 -319 381 -306 z "},"Ŀ":{"ha":801,"x_min":142,"x_max":718,"o":"m 142 0 l 142 972 l 251 972 l 251 106 l 718 106 l 718 0 l 142 0 m 597 432 q 540 453 560 432 q 519 515 519 475 q 541 576 519 553 q 597 599 563 599 q 655 577 635 599 q 675 515 675 556 q 653 456 675 479 q 597 432 632 432 z "},"Ḷ":{"ha":801,"x_min":142,"x_max":718,"o":"m 142 0 l 142 972 l 251 972 l 251 106 l 718 106 l 718 0 l 142 0 m 401 -256 q 344 -235 364 -256 q 325 -181 325 -215 q 345 -128 325 -149 q 401 -108 365 -108 q 458 -128 439 -108 q 478 -182 478 -147 q 458 -235 478 -214 q 401 -256 438 -256 z "},"ǈ":{"ha":1115,"x_min":142,"x_max":1044,"o":"m 142 0 l 142 972 l 251 972 l 251 106 l 718 106 l 718 0 l 142 0 m 794 -272 l 754 -189 q 874 -147 836 -189 q 913 -25 913 -104 l 913 729 l 1018 729 l 1018 -50 q 990 -167 1018 -118 q 913 -244 963 -217 q 794 -272 863 -272 m 967 900 q 910 920 931 900 q 890 974 890 940 q 911 1027 890 1007 q 967 1047 932 1047 q 1023 1028 1003 1047 q 1043 974 1043 1008 q 1024 921 1043 942 q 967 900 1004 900 z "},"Ḻ":{"ha":801,"x_min":142,"x_max":718,"o":"m 142 0 l 142 972 l 251 972 l 251 106 l 718 106 l 718 0 l 142 0 m 210 -221 l 210 -142 l 594 -142 l 594 -221 l 210 -221 z "},"Ł":{"ha":829,"x_min":32,"x_max":747,"o":"m 64 382 l 32 458 l 425 635 l 458 554 l 64 382 m 171 0 l 171 972 l 281 972 l 281 106 l 747 106 l 747 0 l 171 0 z "},"M":{"ha":1189,"x_min":142,"x_max":1046,"o":"m 142 0 l 142 972 l 247 972 l 619 371 l 572 372 l 946 972 l 1046 972 l 1046 0 l 936 0 l 936 518 q 941 701 936 618 q 957 865 946 783 l 976 829 l 626 281 l 558 281 l 217 822 l 232 865 q 247 707 243 788 q 251 519 251 626 l 251 0 l 142 0 z "},"Ṃ":{"ha":1189,"x_min":142,"x_max":1046,"o":"m 142 0 l 142 972 l 247 972 l 619 371 l 572 372 l 946 972 l 1046 972 l 1046 0 l 936 0 l 936 518 q 941 701 936 618 q 957 865 946 783 l 976 829 l 626 281 l 558 281 l 217 822 l 232 865 q 247 707 243 788 q 251 519 251 626 l 251 0 l 142 0 m 594 -256 q 538 -235 557 -256 q 518 -181 518 -215 q 538 -128 518 -149 q 594 -108 558 -108 q 651 -128 632 -108 q 671 -182 671 -147 q 651 -235 671 -214 q 594 -256 631 -256 z "},"N":{"ha":1072,"x_min":142,"x_max":931,"o":"m 142 0 l 142 972 l 242 972 l 857 132 l 840 124 q 829 227 833 168 q 823 365 825 286 q 821 546 821 444 l 821 972 l 931 972 l 931 0 l 829 0 l 215 829 l 232 842 q 242 710 239 767 q 249 612 246 653 q 251 541 251 571 q 251 488 251 511 l 251 0 l 142 0 z "},"Ǌ":{"ha":1925,"x_min":142,"x_max":1856,"o":"m 142 0 l 142 972 l 242 972 l 857 132 l 840 124 q 829 227 833 168 q 823 365 825 286 q 821 546 821 444 l 821 972 l 931 972 l 931 0 l 829 0 l 215 829 l 232 842 q 242 710 239 767 q 249 612 246 653 q 251 541 251 571 q 251 488 251 511 l 251 0 l 142 0 m 1406 -14 q 1316 -1 1358 -14 q 1238 35 1274 11 q 1175 91 1203 58 q 1128 164 1147 124 l 1197 236 q 1265 149 1233 181 q 1331 106 1297 118 q 1407 93 1365 93 q 1506 118 1464 93 q 1573 191 1549 143 q 1597 306 1597 239 l 1597 869 l 1418 869 l 1418 972 l 1856 972 l 1856 869 l 1707 869 l 1707 296 q 1685 168 1707 225 q 1624 70 1664 111 q 1528 8 1583 29 q 1406 -14 1474 -14 z "},"Ń":{"ha":1072,"x_min":142,"x_max":931,"o":"m 142 0 l 142 972 l 242 972 l 857 132 l 840 124 q 829 227 833 168 q 823 365 825 286 q 821 546 821 444 l 821 972 l 931 972 l 931 0 l 829 0 l 215 829 l 232 842 q 242 710 239 767 q 249 612 246 653 q 251 541 251 571 q 251 488 251 511 l 251 0 l 142 0 m 450 1053 l 419 1108 l 658 1256 l 708 1163 l 450 1053 z "},"Ň":{"ha":1072,"x_min":142,"x_max":931,"o":"m 142 0 l 142 972 l 242 972 l 857 132 l 840 124 q 829 227 833 168 q 823 365 825 286 q 821 546 821 444 l 821 972 l 931 972 l 931 0 l 829 0 l 215 829 l 232 842 q 242 710 239 767 q 249 612 246 653 q 251 541 251 571 q 251 488 251 511 l 251 0 l 142 0 m 492 1057 l 331 1190 l 372 1228 l 554 1131 l 521 1131 l 703 1228 l 744 1190 l 583 1057 l 492 1057 z "},"Ņ":{"ha":1072,"x_min":142,"x_max":931,"o":"m 142 0 l 142 972 l 242 972 l 857 132 l 840 124 q 829 227 833 168 q 823 365 825 286 q 821 546 821 444 l 821 972 l 931 972 l 931 0 l 829 0 l 215 829 l 232 842 q 242 710 239 767 q 249 612 246 653 q 251 541 251 571 q 251 488 251 511 l 251 0 l 142 0 m 485 -319 l 456 -274 q 488 -256 472 -268 q 513 -231 503 -244 q 522 -204 522 -218 q 517 -189 522 -194 q 496 -178 513 -183 q 467 -159 475 -171 q 460 -129 460 -147 q 480 -89 460 -106 q 532 -72 500 -72 q 595 -98 569 -72 q 621 -165 621 -124 q 612 -212 621 -190 q 585 -253 603 -233 q 542 -289 568 -272 q 485 -319 517 -306 z "},"Ṅ":{"ha":1072,"x_min":142,"x_max":931,"o":"m 142 0 l 142 972 l 242 972 l 857 132 l 840 124 q 829 227 833 168 q 823 365 825 286 q 821 546 821 444 l 821 972 l 931 972 l 931 0 l 829 0 l 215 829 l 232 842 q 242 710 239 767 q 249 612 246 653 q 251 541 251 571 q 251 488 251 511 l 251 0 l 142 0 m 538 1068 q 480 1089 499 1068 q 461 1142 461 1110 q 480 1193 461 1171 q 538 1215 499 1215 q 595 1194 576 1215 q 614 1142 614 1174 q 595 1090 614 1113 q 538 1068 576 1068 z "},"Ṇ":{"ha":1072,"x_min":142,"x_max":931,"o":"m 142 0 l 142 972 l 242 972 l 857 132 l 840 124 q 829 227 833 168 q 823 365 825 286 q 821 546 821 444 l 821 972 l 931 972 l 931 0 l 829 0 l 215 829 l 232 842 q 242 710 239 767 q 249 612 246 653 q 251 541 251 571 q 251 488 251 511 l 251 0 l 142 0 m 538 -256 q 481 -235 500 -256 q 461 -181 461 -215 q 481 -128 461 -149 q 538 -108 501 -108 q 594 -128 575 -108 q 614 -182 614 -147 q 594 -235 614 -214 q 538 -256 574 -256 z "},"Ɲ":{"ha":1057,"x_min":-32,"x_max":915,"o":"m 7 -272 l -32 -189 q 88 -147 50 -189 q 126 -25 126 -104 l 126 972 l 226 972 l 842 132 l 826 124 q 815 227 819 168 q 808 365 810 286 q 806 546 806 444 l 806 972 l 915 972 l 915 0 l 815 0 l 200 829 l 217 842 q 225 747 222 799 q 231 644 228 694 q 235 551 233 593 q 236 488 236 510 l 236 -50 q 208 -168 236 -118 q 129 -245 181 -218 q 7 -272 78 -272 z "},"ǋ":{"ha":1388,"x_min":142,"x_max":1314,"o":"m 142 0 l 142 972 l 242 972 l 857 132 l 840 124 q 829 227 833 168 q 823 365 825 286 q 821 546 821 444 l 821 972 l 931 972 l 931 0 l 829 0 l 215 829 l 232 842 q 242 710 239 767 q 249 612 246 653 q 251 541 251 571 q 251 488 251 511 l 251 0 l 142 0 m 1065 -272 l 1025 -189 q 1145 -147 1107 -189 q 1183 -25 1183 -104 l 1183 729 l 1289 729 l 1289 -50 q 1261 -167 1289 -118 q 1183 -244 1233 -217 q 1065 -272 1133 -272 m 1238 900 q 1181 920 1201 900 q 1161 974 1161 940 q 1182 1027 1161 1007 q 1238 1047 1203 1047 q 1294 1028 1274 1047 q 1314 974 1314 1008 q 1294 921 1314 942 q 1238 900 1275 900 z "},"Ṉ":{"ha":1072,"x_min":142,"x_max":931,"o":"m 142 0 l 142 972 l 242 972 l 857 132 l 840 124 q 829 227 833 168 q 823 365 825 286 q 821 546 821 444 l 821 972 l 931 972 l 931 0 l 829 0 l 215 829 l 232 842 q 242 710 239 767 q 249 612 246 653 q 251 541 251 571 q 251 488 251 511 l 251 0 l 142 0 m 344 -221 l 344 -142 l 729 -142 l 729 -221 l 344 -221 z "},"Ñ":{"ha":1072,"x_min":142,"x_max":931,"o":"m 142 0 l 142 972 l 242 972 l 857 132 l 840 124 q 829 227 833 168 q 823 365 825 286 q 821 546 821 444 l 821 972 l 931 972 l 931 0 l 829 0 l 215 829 l 232 842 q 242 710 239 767 q 249 612 246 653 q 251 541 251 571 q 251 488 251 511 l 251 0 l 142 0 m 633 1075 q 578 1084 607 1075 q 511 1108 549 1093 q 475 1124 493 1117 q 440 1131 457 1131 q 408 1117 421 1131 q 396 1075 396 1103 l 314 1075 q 354 1174 314 1139 q 446 1210 394 1210 q 505 1199 476 1210 q 558 1176 533 1188 q 600 1160 583 1165 q 628 1156 617 1156 q 665 1169 650 1156 q 679 1210 679 1183 l 760 1210 q 744 1142 760 1174 q 699 1093 728 1111 q 633 1075 671 1075 z "},"Ŋ":{"ha":1072,"x_min":142,"x_max":931,"o":"m 700 -272 l 661 -189 q 751 -169 717 -189 q 803 -113 786 -150 q 821 -25 821 -76 l 821 79 l 833 -4 l 215 829 l 232 842 q 240 747 236 800 q 246 643 243 694 q 250 551 249 592 q 251 488 251 510 l 251 0 l 142 0 l 142 972 l 242 972 l 857 132 l 840 124 q 829 227 833 168 q 823 365 825 286 q 821 546 821 444 l 821 972 l 931 972 l 931 -50 q 902 -168 931 -118 q 822 -245 874 -218 q 700 -272 771 -272 z "},"O":{"ha":1093,"x_min":71,"x_max":1024,"o":"m 547 -14 q 356 24 443 -14 q 205 128 269 61 q 106 285 140 194 q 71 485 71 376 q 106 685 71 594 q 205 844 140 776 q 356 949 269 911 q 547 986 443 986 q 738 949 650 986 q 889 844 825 911 q 988 685 953 776 q 1024 486 1024 593 q 988 287 1024 378 q 889 128 953 196 q 738 24 825 61 q 547 -14 650 -14 m 547 93 q 693 122 626 93 q 808 204 760 151 q 884 329 857 257 q 911 486 911 401 q 884 642 911 571 q 808 767 857 714 q 693 850 760 821 q 547 879 626 879 q 401 850 467 879 q 285 768 335 821 q 209 643 236 715 q 182 485 182 571 q 229 283 182 372 q 358 144 276 194 q 547 93 440 93 z "},"Ó":{"ha":1093,"x_min":71,"x_max":1024,"o":"m 547 -14 q 356 24 443 -14 q 205 128 269 61 q 106 285 140 194 q 71 485 71 376 q 106 685 71 594 q 205 844 140 776 q 356 949 269 911 q 547 986 443 986 q 738 949 650 986 q 889 844 825 911 q 988 685 953 776 q 1024 486 1024 593 q 988 287 1024 378 q 889 128 953 196 q 738 24 825 61 q 547 -14 650 -14 m 547 93 q 693 122 626 93 q 808 204 760 151 q 884 329 857 257 q 911 486 911 401 q 884 642 911 571 q 808 767 857 714 q 693 850 760 821 q 547 879 626 879 q 401 850 467 879 q 285 768 335 821 q 209 643 236 715 q 182 485 182 571 q 229 283 182 372 q 358 144 276 194 q 547 93 440 93 m 460 1053 l 429 1108 l 668 1256 l 718 1163 l 460 1053 z "},"Ŏ":{"ha":1093,"x_min":71,"x_max":1024,"o":"m 547 -14 q 356 24 443 -14 q 205 128 269 61 q 106 285 140 194 q 71 485 71 376 q 106 685 71 594 q 205 844 140 776 q 356 949 269 911 q 547 986 443 986 q 738 949 650 986 q 889 844 825 911 q 988 685 953 776 q 1024 486 1024 593 q 988 287 1024 378 q 889 128 953 196 q 738 24 825 61 q 547 -14 650 -14 m 547 93 q 693 122 626 93 q 808 204 760 151 q 884 329 857 257 q 911 486 911 401 q 884 642 911 571 q 808 767 857 714 q 693 850 760 821 q 547 879 626 879 q 401 850 467 879 q 285 768 335 821 q 209 643 236 715 q 182 485 182 571 q 229 283 182 372 q 358 144 276 194 q 547 93 440 93 m 547 1049 q 451 1072 494 1049 q 378 1135 407 1096 q 336 1224 349 1175 l 415 1236 q 465 1163 431 1193 q 547 1132 500 1132 q 630 1163 594 1132 q 679 1236 665 1193 l 758 1224 q 717 1135 747 1175 q 644 1072 688 1096 q 547 1049 601 1049 z "},"Ǒ":{"ha":1093,"x_min":71,"x_max":1024,"o":"m 547 -14 q 356 24 443 -14 q 205 128 269 61 q 106 285 140 194 q 71 485 71 376 q 106 685 71 594 q 205 844 140 776 q 356 949 269 911 q 547 986 443 986 q 738 949 650 986 q 889 844 825 911 q 988 685 953 776 q 1024 486 1024 593 q 988 287 1024 378 q 889 128 953 196 q 738 24 825 61 q 547 -14 650 -14 m 547 93 q 693 122 626 93 q 808 204 760 151 q 884 329 857 257 q 911 486 911 401 q 884 642 911 571 q 808 767 857 714 q 693 850 760 821 q 547 879 626 879 q 401 850 467 879 q 285 768 335 821 q 209 643 236 715 q 182 485 182 571 q 229 283 182 372 q 358 144 276 194 q 547 93 440 93 m 501 1057 l 340 1190 l 382 1228 l 564 1131 l 531 1131 l 713 1228 l 754 1190 l 593 1057 l 501 1057 z "},"Ô":{"ha":1093,"x_min":71,"x_max":1024,"o":"m 547 -14 q 356 24 443 -14 q 205 128 269 61 q 106 285 140 194 q 71 485 71 376 q 106 685 71 594 q 205 844 140 776 q 356 949 269 911 q 547 986 443 986 q 738 949 650 986 q 889 844 825 911 q 988 685 953 776 q 1024 486 1024 593 q 988 287 1024 378 q 889 128 953 196 q 738 24 825 61 q 547 -14 650 -14 m 547 93 q 693 122 626 93 q 808 204 760 151 q 884 329 857 257 q 911 486 911 401 q 884 642 911 571 q 808 767 857 714 q 693 850 760 821 q 547 879 626 879 q 401 850 467 879 q 285 768 335 821 q 209 643 236 715 q 182 485 182 571 q 229 283 182 372 q 358 144 276 194 q 547 93 440 93 m 382 1056 l 342 1093 l 506 1225 l 588 1225 l 750 1093 l 711 1056 l 531 1154 l 563 1154 l 382 1056 z "},"Ố":{"ha":1093,"x_min":71,"x_max":1024,"o":"m 547 -14 q 356 24 443 -14 q 205 128 269 61 q 106 285 140 194 q 71 485 71 376 q 106 685 71 594 q 205 844 140 776 q 356 949 269 911 q 547 986 443 986 q 738 949 650 986 q 889 844 825 911 q 988 685 953 776 q 1024 486 1024 593 q 988 287 1024 378 q 889 128 953 196 q 738 24 825 61 q 547 -14 650 -14 m 547 93 q 693 122 626 93 q 808 204 760 151 q 884 329 857 257 q 911 486 911 401 q 884 642 911 571 q 808 767 857 714 q 693 850 760 821 q 547 879 626 879 q 401 850 467 879 q 285 768 335 821 q 209 643 236 715 q 182 485 182 571 q 229 283 182 372 q 358 144 276 194 q 547 93 440 93 m 382 1056 l 346 1094 l 507 1224 l 588 1224 l 747 1094 l 713 1056 l 531 1151 l 564 1151 l 382 1056 m 750 1199 l 696 1236 l 808 1424 l 899 1357 l 750 1199 z "},"Ộ":{"ha":1093,"x_min":71,"x_max":1024,"o":"m 547 -14 q 356 24 443 -14 q 205 128 269 61 q 106 285 140 194 q 71 485 71 376 q 106 685 71 594 q 205 844 140 776 q 356 949 269 911 q 547 986 443 986 q 738 949 650 986 q 889 844 825 911 q 988 685 953 776 q 1024 486 1024 593 q 988 287 1024 378 q 889 128 953 196 q 738 24 825 61 q 547 -14 650 -14 m 547 93 q 693 122 626 93 q 808 204 760 151 q 884 329 857 257 q 911 486 911 401 q 884 642 911 571 q 808 767 857 714 q 693 850 760 821 q 547 879 626 879 q 401 850 467 879 q 285 768 335 821 q 209 643 236 715 q 182 485 182 571 q 229 283 182 372 q 358 144 276 194 q 547 93 440 93 m 547 -256 q 490 -235 510 -256 q 471 -181 471 -215 q 491 -128 471 -149 q 547 -108 511 -108 q 604 -128 585 -108 q 624 -182 624 -147 q 603 -235 624 -214 q 547 -256 583 -256 m 382 1056 l 342 1093 l 506 1225 l 588 1225 l 750 1093 l 711 1056 l 531 1154 l 563 1154 l 382 1056 z "},"Ồ":{"ha":1093,"x_min":71,"x_max":1024,"o":"m 547 -14 q 356 24 443 -14 q 205 128 269 61 q 106 285 140 194 q 71 485 71 376 q 106 685 71 594 q 205 844 140 776 q 356 949 269 911 q 547 986 443 986 q 738 949 650 986 q 889 844 825 911 q 988 685 953 776 q 1024 486 1024 593 q 988 287 1024 378 q 889 128 953 196 q 738 24 825 61 q 547 -14 650 -14 m 547 93 q 693 122 626 93 q 808 204 760 151 q 884 329 857 257 q 911 486 911 401 q 884 642 911 571 q 808 767 857 714 q 693 850 760 821 q 547 879 626 879 q 401 850 467 879 q 285 768 335 821 q 209 643 236 715 q 182 485 182 571 q 229 283 182 372 q 358 144 276 194 q 547 93 440 93 m 381 1056 l 344 1094 l 506 1224 l 585 1224 l 746 1094 l 710 1056 l 528 1151 l 563 1151 l 381 1056 m 760 1200 l 608 1360 l 699 1426 l 811 1240 l 760 1200 z "},"Ổ":{"ha":1093,"x_min":71,"x_max":1024,"o":"m 547 -14 q 356 24 443 -14 q 205 128 269 61 q 106 285 140 194 q 71 485 71 376 q 106 685 71 594 q 205 844 140 776 q 356 949 269 911 q 547 986 443 986 q 738 949 650 986 q 889 844 825 911 q 988 685 953 776 q 1024 486 1024 593 q 988 287 1024 378 q 889 128 953 196 q 738 24 825 61 q 547 -14 650 -14 m 547 93 q 693 122 626 93 q 808 204 760 151 q 884 329 857 257 q 911 486 911 401 q 884 642 911 571 q 808 767 857 714 q 693 850 760 821 q 547 879 626 879 q 401 850 467 879 q 285 768 335 821 q 209 643 236 715 q 182 485 182 571 q 229 283 182 372 q 358 144 276 194 q 547 93 440 93 m 382 1056 l 346 1094 l 507 1224 l 586 1224 l 747 1094 l 711 1056 l 531 1151 l 564 1151 l 382 1056 m 725 1201 q 713 1220 718 1210 q 708 1242 708 1231 q 718 1267 708 1256 q 750 1294 728 1279 q 783 1316 771 1307 q 794 1332 794 1325 q 778 1352 794 1346 q 740 1358 763 1358 q 691 1353 717 1358 q 640 1336 665 1347 l 622 1404 q 681 1426 650 1418 q 742 1433 713 1433 q 842 1407 807 1433 q 878 1340 878 1381 q 860 1298 878 1314 q 824 1271 842 1282 q 789 1249 800 1258 q 778 1231 778 1239 q 782 1215 778 1224 l 725 1201 z "},"Ỗ":{"ha":1093,"x_min":71,"x_max":1024,"o":"m 547 -14 q 356 24 443 -14 q 205 128 269 61 q 106 285 140 194 q 71 485 71 376 q 106 685 71 594 q 205 844 140 776 q 356 949 269 911 q 547 986 443 986 q 738 949 650 986 q 889 844 825 911 q 988 685 953 776 q 1024 486 1024 593 q 988 287 1024 378 q 889 128 953 196 q 738 24 825 61 q 547 -14 650 -14 m 547 93 q 693 122 626 93 q 808 204 760 151 q 884 329 857 257 q 911 486 911 401 q 884 642 911 571 q 808 767 857 714 q 693 850 760 821 q 547 879 626 879 q 401 850 467 879 q 285 768 335 821 q 209 643 236 715 q 182 485 182 571 q 229 283 182 372 q 358 144 276 194 q 547 93 440 93 m 382 1056 l 346 1094 l 506 1224 l 588 1224 l 747 1094 l 711 1056 l 531 1151 l 563 1151 l 382 1056 m 649 1296 q 592 1305 619 1296 q 540 1324 565 1314 q 499 1342 517 1335 q 464 1349 481 1349 q 432 1335 446 1349 q 413 1299 418 1322 l 339 1308 q 377 1393 343 1358 q 457 1428 411 1428 q 509 1419 485 1428 q 557 1400 533 1410 q 596 1384 576 1392 q 632 1376 615 1376 q 664 1388 651 1376 q 682 1429 676 1400 l 754 1417 q 723 1331 750 1365 q 649 1296 696 1296 z "},"Ȍ":{"ha":1093,"x_min":71,"x_max":1024,"o":"m 547 -14 q 356 24 443 -14 q 205 128 269 61 q 106 285 140 194 q 71 485 71 376 q 106 685 71 594 q 205 844 140 776 q 356 949 269 911 q 547 986 443 986 q 738 949 650 986 q 889 844 825 911 q 988 685 953 776 q 1024 486 1024 593 q 988 287 1024 378 q 889 128 953 196 q 738 24 825 61 q 547 -14 650 -14 m 547 93 q 693 122 626 93 q 808 204 760 151 q 884 329 857 257 q 911 486 911 401 q 884 642 911 571 q 808 767 857 714 q 693 850 760 821 q 547 879 626 879 q 401 850 467 879 q 285 768 335 821 q 209 643 236 715 q 182 485 182 571 q 229 283 182 372 q 358 144 276 194 q 547 93 440 93 m 681 1047 l 457 1189 l 529 1269 l 719 1099 l 681 1047 m 435 1047 l 211 1189 l 282 1269 l 474 1099 l 435 1047 z "},"Ö":{"ha":1093,"x_min":71,"x_max":1024,"o":"m 547 -14 q 356 24 443 -14 q 205 128 269 61 q 106 285 140 194 q 71 485 71 376 q 106 685 71 594 q 205 844 140 776 q 356 949 269 911 q 547 986 443 986 q 738 949 650 986 q 889 844 825 911 q 988 685 953 776 q 1024 486 1024 593 q 988 287 1024 378 q 889 128 953 196 q 738 24 825 61 q 547 -14 650 -14 m 547 93 q 693 122 626 93 q 808 204 760 151 q 884 329 857 257 q 911 486 911 401 q 884 642 911 571 q 808 767 857 714 q 693 850 760 821 q 547 879 626 879 q 401 850 467 879 q 285 768 335 821 q 209 643 236 715 q 182 485 182 571 q 229 283 182 372 q 358 144 276 194 q 547 93 440 93 m 678 1069 q 620 1090 639 1069 q 601 1142 601 1110 q 620 1192 601 1169 q 678 1214 639 1214 q 735 1194 717 1214 q 754 1142 754 1175 q 735 1092 754 1114 q 678 1069 717 1069 m 417 1069 q 360 1090 381 1069 q 340 1142 340 1110 q 360 1192 340 1169 q 417 1214 379 1214 q 475 1194 457 1214 q 493 1142 493 1175 q 475 1092 493 1114 q 417 1069 457 1069 z "},"Ȫ":{"ha":1093,"x_min":71,"x_max":1024,"o":"m 547 -14 q 356 24 443 -14 q 205 128 269 61 q 106 285 140 194 q 71 485 71 376 q 106 685 71 594 q 205 844 140 776 q 356 949 269 911 q 547 986 443 986 q 738 949 650 986 q 889 844 825 911 q 988 685 953 776 q 1024 486 1024 593 q 988 287 1024 378 q 889 128 953 196 q 738 24 825 61 q 547 -14 650 -14 m 547 93 q 693 122 626 93 q 808 204 760 151 q 884 329 857 257 q 911 486 911 401 q 884 642 911 571 q 808 767 857 714 q 693 850 760 821 q 547 879 626 879 q 401 850 467 879 q 285 768 335 821 q 209 643 236 715 q 182 485 182 571 q 229 283 182 372 q 358 144 276 194 q 547 93 440 93 m 678 1069 q 620 1090 639 1069 q 601 1142 601 1110 q 620 1192 601 1169 q 678 1214 639 1214 q 735 1194 717 1214 q 754 1142 754 1175 q 735 1092 754 1114 q 678 1069 717 1069 m 417 1069 q 360 1090 381 1069 q 340 1142 340 1110 q 360 1192 340 1169 q 417 1214 379 1214 q 475 1194 457 1214 q 493 1142 493 1175 q 475 1092 493 1114 q 417 1069 457 1069 m 331 1297 l 331 1376 l 763 1376 l 763 1297 l 331 1297 z "},"Ȱ":{"ha":1093,"x_min":71,"x_max":1024,"o":"m 547 -14 q 356 24 443 -14 q 205 128 269 61 q 106 285 140 194 q 71 485 71 376 q 106 685 71 594 q 205 844 140 776 q 356 949 269 911 q 547 986 443 986 q 738 949 650 986 q 889 844 825 911 q 988 685 953 776 q 1024 486 1024 593 q 988 287 1024 378 q 889 128 953 196 q 738 24 825 61 q 547 -14 650 -14 m 547 93 q 693 122 626 93 q 808 204 760 151 q 884 329 857 257 q 911 486 911 401 q 884 642 911 571 q 808 767 857 714 q 693 850 760 821 q 547 879 626 879 q 401 850 467 879 q 285 768 335 821 q 209 643 236 715 q 182 485 182 571 q 229 283 182 372 q 358 144 276 194 q 547 93 440 93 m 547 1068 q 490 1089 508 1068 q 471 1142 471 1110 q 490 1193 471 1171 q 547 1215 508 1215 q 605 1194 586 1215 q 624 1142 624 1174 q 605 1090 624 1113 q 547 1068 586 1068 m 331 1297 l 331 1376 l 763 1376 l 763 1297 l 331 1297 z "},"Ọ":{"ha":1093,"x_min":71,"x_max":1024,"o":"m 547 -14 q 356 24 443 -14 q 205 128 269 61 q 106 285 140 194 q 71 485 71 376 q 106 685 71 594 q 205 844 140 776 q 356 949 269 911 q 547 986 443 986 q 738 949 650 986 q 889 844 825 911 q 988 685 953 776 q 1024 486 1024 593 q 988 287 1024 378 q 889 128 953 196 q 738 24 825 61 q 547 -14 650 -14 m 547 93 q 693 122 626 93 q 808 204 760 151 q 884 329 857 257 q 911 486 911 401 q 884 642 911 571 q 808 767 857 714 q 693 850 760 821 q 547 879 626 879 q 401 850 467 879 q 285 768 335 821 q 209 643 236 715 q 182 485 182 571 q 229 283 182 372 q 358 144 276 194 q 547 93 440 93 m 547 -256 q 490 -235 510 -256 q 471 -181 471 -215 q 491 -128 471 -149 q 547 -108 511 -108 q 604 -128 585 -108 q 624 -182 624 -147 q 603 -235 624 -214 q 547 -256 583 -256 z "},"Ò":{"ha":1093,"x_min":71,"x_max":1024,"o":"m 547 -14 q 356 24 443 -14 q 205 128 269 61 q 106 285 140 194 q 71 485 71 376 q 106 685 71 594 q 205 844 140 776 q 356 949 269 911 q 547 986 443 986 q 738 949 650 986 q 889 844 825 911 q 988 685 953 776 q 1024 486 1024 593 q 988 287 1024 378 q 889 128 953 196 q 738 24 825 61 q 547 -14 650 -14 m 547 93 q 693 122 626 93 q 808 204 760 151 q 884 329 857 257 q 911 486 911 401 q 884 642 911 571 q 808 767 857 714 q 693 850 760 821 q 547 879 626 879 q 401 850 467 879 q 285 768 335 821 q 209 643 236 715 q 182 485 182 571 q 229 283 182 372 q 358 144 276 194 q 547 93 440 93 m 642 1053 l 383 1163 l 435 1256 l 674 1108 l 642 1053 z "},"Ỏ":{"ha":1093,"x_min":71,"x_max":1024,"o":"m 547 -14 q 356 24 443 -14 q 205 128 269 61 q 106 285 140 194 q 71 485 71 376 q 106 685 71 594 q 205 844 140 776 q 356 949 269 911 q 547 986 443 986 q 738 949 650 986 q 889 844 825 911 q 988 685 953 776 q 1024 486 1024 593 q 988 287 1024 378 q 889 128 953 196 q 738 24 825 61 q 547 -14 650 -14 m 547 93 q 693 122 626 93 q 808 204 760 151 q 884 329 857 257 q 911 486 911 401 q 884 642 911 571 q 808 767 857 714 q 693 850 760 821 q 547 879 626 879 q 401 850 467 879 q 285 768 335 821 q 209 643 236 715 q 182 485 182 571 q 229 283 182 372 q 358 144 276 194 q 547 93 440 93 m 521 1057 q 509 1078 514 1067 q 504 1100 504 1089 q 515 1129 504 1115 q 546 1157 525 1143 q 579 1181 568 1172 q 590 1201 590 1190 q 574 1225 590 1218 q 535 1232 558 1232 q 487 1226 513 1232 q 438 1210 461 1221 l 419 1278 q 476 1299 446 1292 q 536 1306 507 1306 q 638 1278 603 1306 q 674 1210 674 1251 q 657 1160 674 1179 q 619 1131 640 1142 q 585 1110 597 1119 q 574 1089 574 1101 q 575 1079 574 1083 q 578 1071 576 1075 l 521 1057 z "},"Ơ":{"ha":1093,"x_min":71,"x_max":1024,"o":"m 547 -14 q 356 24 443 -14 q 205 128 269 61 q 106 285 140 194 q 71 486 71 376 q 106 685 71 594 q 205 844 140 776 q 356 949 269 911 q 547 986 443 986 q 606 983 579 986 q 656 975 632 979 q 695 967 676 969 q 732 965 714 965 q 831 1005 797 965 q 864 1124 864 1044 l 958 1124 q 938 1007 958 1057 q 876 928 918 957 q 771 896 835 900 l 783 924 q 910 818 857 883 q 994 669 964 753 q 1024 486 1024 585 q 988 287 1024 378 q 889 128 953 196 q 738 24 825 61 q 547 -14 650 -14 m 547 93 q 693 122 626 93 q 808 204 760 151 q 884 328 857 257 q 911 486 911 400 q 884 642 911 571 q 808 767 857 714 q 693 850 760 821 q 547 879 626 879 q 401 850 468 879 q 285 768 335 821 q 209 643 236 715 q 182 486 182 571 q 229 283 182 372 q 358 144 276 194 q 547 93 440 93 z "},"Ớ":{"ha":1093,"x_min":71,"x_max":1024,"o":"m 547 -14 q 356 24 443 -14 q 205 128 269 61 q 106 285 140 194 q 71 486 71 376 q 106 685 71 594 q 205 844 140 776 q 356 949 269 911 q 547 986 443 986 q 606 983 579 986 q 656 975 632 979 q 695 967 676 969 q 732 965 714 965 q 831 1005 797 965 q 864 1124 864 1044 l 958 1124 q 938 1007 958 1057 q 876 928 918 957 q 771 896 835 900 l 783 924 q 910 818 857 883 q 994 669 964 753 q 1024 486 1024 585 q 988 287 1024 378 q 889 128 953 196 q 738 24 825 61 q 547 -14 650 -14 m 547 93 q 693 122 626 93 q 808 204 760 151 q 884 328 857 257 q 911 486 911 400 q 884 642 911 571 q 808 767 857 714 q 693 850 760 821 q 547 879 626 879 q 401 850 468 879 q 285 768 335 821 q 209 643 236 715 q 182 486 182 571 q 229 283 182 372 q 358 144 276 194 q 547 93 440 93 m 460 1053 l 429 1108 l 668 1256 l 718 1163 l 460 1053 z "},"Ợ":{"ha":1093,"x_min":71,"x_max":1024,"o":"m 547 -14 q 356 24 443 -14 q 205 128 269 61 q 106 285 140 194 q 71 486 71 376 q 106 685 71 594 q 205 844 140 776 q 356 949 269 911 q 547 986 443 986 q 606 983 579 986 q 656 975 632 979 q 695 967 676 969 q 732 965 714 965 q 831 1005 797 965 q 864 1124 864 1044 l 958 1124 q 938 1007 958 1057 q 876 928 918 957 q 771 896 835 900 l 783 924 q 910 818 857 883 q 994 669 964 753 q 1024 486 1024 585 q 988 287 1024 378 q 889 128 953 196 q 738 24 825 61 q 547 -14 650 -14 m 547 93 q 693 122 626 93 q 808 204 760 151 q 884 328 857 257 q 911 486 911 400 q 884 642 911 571 q 808 767 857 714 q 693 850 760 821 q 547 879 626 879 q 401 850 468 879 q 285 768 335 821 q 209 643 236 715 q 182 486 182 571 q 229 283 182 372 q 358 144 276 194 q 547 93 440 93 m 547 -256 q 490 -235 510 -256 q 471 -181 471 -215 q 491 -128 471 -149 q 547 -108 511 -108 q 604 -128 585 -108 q 624 -182 624 -147 q 603 -235 624 -214 q 547 -256 583 -256 z "},"Ờ":{"ha":1093,"x_min":71,"x_max":1024,"o":"m 547 -14 q 356 24 443 -14 q 205 128 269 61 q 106 285 140 194 q 71 486 71 376 q 106 685 71 594 q 205 844 140 776 q 356 949 269 911 q 547 986 443 986 q 606 983 579 986 q 656 975 632 979 q 695 967 676 969 q 732 965 714 965 q 831 1005 797 965 q 864 1124 864 1044 l 958 1124 q 938 1007 958 1057 q 876 928 918 957 q 771 896 835 900 l 783 924 q 910 818 857 883 q 994 669 964 753 q 1024 486 1024 585 q 988 287 1024 378 q 889 128 953 196 q 738 24 825 61 q 547 -14 650 -14 m 547 93 q 693 122 626 93 q 808 204 760 151 q 884 328 857 257 q 911 486 911 400 q 884 642 911 571 q 808 767 857 714 q 693 850 760 821 q 547 879 626 879 q 401 850 468 879 q 285 768 335 821 q 209 643 236 715 q 182 486 182 571 q 229 283 182 372 q 358 144 276 194 q 547 93 440 93 m 642 1053 l 383 1163 l 435 1256 l 674 1108 l 642 1053 z "},"Ở":{"ha":1093,"x_min":71,"x_max":1024,"o":"m 547 -14 q 356 24 443 -14 q 205 128 269 61 q 106 285 140 194 q 71 486 71 376 q 106 685 71 594 q 205 844 140 776 q 356 949 269 911 q 547 986 443 986 q 606 983 579 986 q 656 975 632 979 q 695 967 676 969 q 732 965 714 965 q 831 1005 797 965 q 864 1124 864 1044 l 958 1124 q 938 1007 958 1057 q 876 928 918 957 q 771 896 835 900 l 783 924 q 910 818 857 883 q 994 669 964 753 q 1024 486 1024 585 q 988 287 1024 378 q 889 128 953 196 q 738 24 825 61 q 547 -14 650 -14 m 547 93 q 693 122 626 93 q 808 204 760 151 q 884 328 857 257 q 911 486 911 400 q 884 642 911 571 q 808 767 857 714 q 693 850 760 821 q 547 879 626 879 q 401 850 468 879 q 285 768 335 821 q 209 643 236 715 q 182 486 182 571 q 229 283 182 372 q 358 144 276 194 q 547 93 440 93 m 521 1057 q 509 1078 514 1067 q 504 1100 504 1089 q 515 1129 504 1115 q 546 1157 525 1143 q 579 1181 568 1172 q 590 1201 590 1190 q 574 1225 590 1218 q 535 1232 558 1232 q 487 1226 513 1232 q 438 1210 461 1221 l 419 1278 q 476 1299 446 1292 q 536 1306 507 1306 q 638 1278 603 1306 q 674 1210 674 1251 q 657 1160 674 1179 q 619 1131 640 1142 q 585 1110 597 1119 q 574 1089 574 1101 q 575 1079 574 1083 q 578 1071 576 1075 l 521 1057 z "},"Ỡ":{"ha":1093,"x_min":71,"x_max":1024,"o":"m 547 -14 q 356 24 443 -14 q 205 128 269 61 q 106 285 140 194 q 71 486 71 376 q 106 685 71 594 q 205 844 140 776 q 356 949 269 911 q 547 986 443 986 q 606 983 579 986 q 656 975 632 979 q 695 967 676 969 q 732 965 714 965 q 831 1005 797 965 q 864 1124 864 1044 l 958 1124 q 938 1007 958 1057 q 876 928 918 957 q 771 896 835 900 l 783 924 q 910 818 857 883 q 994 669 964 753 q 1024 486 1024 585 q 988 287 1024 378 q 889 128 953 196 q 738 24 825 61 q 547 -14 650 -14 m 547 93 q 693 122 626 93 q 808 204 760 151 q 884 328 857 257 q 911 486 911 400 q 884 642 911 571 q 808 767 857 714 q 693 850 760 821 q 547 879 626 879 q 401 850 468 879 q 285 768 335 821 q 209 643 236 715 q 182 486 182 571 q 229 283 182 372 q 358 144 276 194 q 547 93 440 93 m 643 1075 q 588 1084 617 1075 q 521 1108 558 1093 q 485 1124 503 1117 q 450 1131 467 1131 q 418 1117 431 1131 q 406 1075 406 1103 l 324 1075 q 364 1174 324 1139 q 456 1210 404 1210 q 515 1199 486 1210 q 568 1176 543 1188 q 610 1160 593 1165 q 638 1156 626 1156 q 674 1169 660 1156 q 689 1210 689 1183 l 769 1210 q 753 1142 769 1174 q 709 1093 738 1111 q 643 1075 681 1075 z "},"Ő":{"ha":1093,"x_min":71,"x_max":1024,"o":"m 547 -14 q 356 24 443 -14 q 205 128 269 61 q 106 285 140 194 q 71 485 71 376 q 106 685 71 594 q 205 844 140 776 q 356 949 269 911 q 547 986 443 986 q 738 949 650 986 q 889 844 825 911 q 988 685 953 776 q 1024 486 1024 593 q 988 287 1024 378 q 889 128 953 196 q 738 24 825 61 q 547 -14 650 -14 m 547 93 q 693 122 626 93 q 808 204 760 151 q 884 329 857 257 q 911 486 911 401 q 884 642 911 571 q 808 767 857 714 q 693 850 760 821 q 547 879 626 879 q 401 850 467 879 q 285 768 335 821 q 209 643 236 715 q 182 485 182 571 q 229 283 182 372 q 358 144 276 194 q 547 93 440 93 m 404 1047 l 365 1099 l 556 1269 l 628 1189 l 404 1047 m 650 1047 l 611 1099 l 803 1269 l 874 1189 l 650 1047 z "},"Ȏ":{"ha":1093,"x_min":71,"x_max":1024,"o":"m 547 -14 q 356 24 443 -14 q 205 128 269 61 q 106 285 140 194 q 71 485 71 376 q 106 685 71 594 q 205 844 140 776 q 356 949 269 911 q 547 986 443 986 q 738 949 650 986 q 889 844 825 911 q 988 685 953 776 q 1024 486 1024 593 q 988 287 1024 378 q 889 128 953 196 q 738 24 825 61 q 547 -14 650 -14 m 547 93 q 693 122 626 93 q 808 204 760 151 q 884 329 857 257 q 911 486 911 401 q 884 642 911 571 q 808 767 857 714 q 693 850 760 821 q 547 879 626 879 q 401 850 467 879 q 285 768 335 821 q 209 643 236 715 q 182 485 182 571 q 229 283 182 372 q 358 144 276 194 q 547 93 440 93 m 415 1051 l 336 1063 q 378 1151 349 1111 q 451 1214 407 1190 q 547 1238 494 1238 q 644 1214 601 1238 q 717 1151 688 1190 q 758 1063 747 1111 l 679 1051 q 630 1123 665 1093 q 547 1153 594 1153 q 465 1123 500 1153 q 415 1051 429 1093 z "},"Ō":{"ha":1093,"x_min":71,"x_max":1024,"o":"m 547 -14 q 356 24 443 -14 q 205 128 269 61 q 106 285 140 194 q 71 485 71 376 q 106 685 71 594 q 205 844 140 776 q 356 949 269 911 q 547 986 443 986 q 738 949 650 986 q 889 844 825 911 q 988 685 953 776 q 1024 486 1024 593 q 988 287 1024 378 q 889 128 953 196 q 738 24 825 61 q 547 -14 650 -14 m 547 93 q 693 122 626 93 q 808 204 760 151 q 884 329 857 257 q 911 486 911 401 q 884 642 911 571 q 808 767 857 714 q 693 850 760 821 q 547 879 626 879 q 401 850 467 879 q 285 768 335 821 q 209 643 236 715 q 182 485 182 571 q 229 283 182 372 q 358 144 276 194 q 547 93 440 93 m 331 1103 l 331 1182 l 763 1182 l 763 1103 l 331 1103 z "},"Ṓ":{"ha":1093,"x_min":71,"x_max":1024,"o":"m 547 -14 q 356 24 443 -14 q 205 128 269 61 q 106 285 140 194 q 71 485 71 376 q 106 685 71 594 q 205 844 140 776 q 356 949 269 911 q 547 986 443 986 q 738 949 650 986 q 889 844 825 911 q 988 685 953 776 q 1024 486 1024 593 q 988 287 1024 378 q 889 128 953 196 q 738 24 825 61 q 547 -14 650 -14 m 547 93 q 693 122 626 93 q 808 204 760 151 q 884 329 857 257 q 911 486 911 401 q 884 642 911 571 q 808 767 857 714 q 693 850 760 821 q 547 879 626 879 q 401 850 467 879 q 285 768 335 821 q 209 643 236 715 q 182 485 182 571 q 229 283 182 372 q 358 144 276 194 q 547 93 440 93 m 331 1103 l 331 1182 l 763 1182 l 763 1103 l 331 1103 m 460 1247 l 429 1303 l 668 1450 l 718 1357 l 460 1247 z "},"Ṑ":{"ha":1093,"x_min":71,"x_max":1024,"o":"m 547 -14 q 356 24 443 -14 q 205 128 269 61 q 106 285 140 194 q 71 485 71 376 q 106 685 71 594 q 205 844 140 776 q 356 949 269 911 q 547 986 443 986 q 738 949 650 986 q 889 844 825 911 q 988 685 953 776 q 1024 486 1024 593 q 988 287 1024 378 q 889 128 953 196 q 738 24 825 61 q 547 -14 650 -14 m 547 93 q 693 122 626 93 q 808 204 760 151 q 884 329 857 257 q 911 486 911 401 q 884 642 911 571 q 808 767 857 714 q 693 850 760 821 q 547 879 626 879 q 401 850 467 879 q 285 768 335 821 q 209 643 236 715 q 182 485 182 571 q 229 283 182 372 q 358 144 276 194 q 547 93 440 93 m 331 1103 l 331 1182 l 763 1182 l 763 1103 l 331 1103 m 642 1247 l 383 1357 l 435 1450 l 674 1303 l 642 1247 z "},"Ǫ":{"ha":1093,"x_min":71,"x_max":1024,"o":"m 676 -294 q 574 -256 618 -294 q 529 -151 529 -218 q 548 -72 529 -108 q 598 -6 567 -36 q 670 51 629 25 q 754 103 711 78 l 792 51 q 722 6 753 29 q 669 -40 690 -17 q 635 -88 647 -64 q 624 -137 624 -112 q 642 -193 624 -172 q 692 -214 661 -214 q 731 -202 714 -214 q 761 -169 749 -190 l 819 -212 q 765 -270 804 -246 q 676 -294 725 -294 m 547 -14 q 356 24 443 -14 q 205 128 269 61 q 106 285 140 194 q 71 486 71 376 q 106 685 71 594 q 205 844 140 776 q 356 949 269 911 q 547 986 443 986 q 738 949 650 986 q 889 844 825 911 q 988 685 953 776 q 1024 486 1024 593 q 988 287 1024 378 q 889 128 953 196 q 738 24 825 61 q 547 -14 650 -14 m 547 93 q 693 122 626 93 q 808 204 760 151 q 884 328 857 257 q 911 486 911 400 q 884 642 911 571 q 808 767 857 714 q 693 850 760 821 q 547 879 626 879 q 401 850 468 879 q 285 768 335 821 q 209 643 236 715 q 182 486 182 571 q 229 283 182 372 q 358 144 276 194 q 547 93 440 93 z "},"Ø":{"ha":1082,"x_min":69,"x_max":1022,"o":"m 167 -39 l 100 17 l 918 1019 l 989 969 l 167 -39 m 546 -14 q 355 24 442 -14 q 203 128 268 61 q 104 285 139 194 q 69 485 69 376 q 104 685 69 594 q 203 844 139 776 q 355 949 268 911 q 546 986 442 986 q 736 949 649 986 q 888 844 824 911 q 987 685 951 776 q 1022 486 1022 593 q 987 287 1022 378 q 888 128 951 196 q 736 24 824 61 q 546 -14 649 -14 m 546 93 q 692 122 625 93 q 807 204 758 151 q 883 329 856 257 q 910 486 910 401 q 883 642 910 571 q 807 767 856 714 q 692 850 758 821 q 546 879 625 879 q 399 850 465 879 q 284 768 333 821 q 208 643 235 715 q 181 485 181 571 q 228 283 181 372 q 357 144 275 194 q 546 93 439 93 z "},"Ǿ":{"ha":1082,"x_min":69,"x_max":1022,"o":"m 167 -39 l 100 17 l 918 1019 l 989 969 l 167 -39 m 546 -14 q 355 24 442 -14 q 203 128 268 61 q 104 285 139 194 q 69 485 69 376 q 104 685 69 594 q 203 844 139 776 q 355 949 268 911 q 546 986 442 986 q 736 949 649 986 q 888 844 824 911 q 987 685 951 776 q 1022 486 1022 593 q 987 287 1022 378 q 888 128 951 196 q 736 24 824 61 q 546 -14 649 -14 m 546 93 q 692 122 625 93 q 807 204 758 151 q 883 329 856 257 q 910 486 910 401 q 883 642 910 571 q 807 767 856 714 q 692 850 758 821 q 546 879 625 879 q 399 850 465 879 q 284 768 333 821 q 208 643 235 715 q 181 485 181 571 q 228 283 181 372 q 357 144 275 194 q 546 93 439 93 m 454 1053 l 424 1108 l 663 1256 l 713 1163 l 454 1053 z "},"Õ":{"ha":1093,"x_min":71,"x_max":1024,"o":"m 547 -14 q 356 24 443 -14 q 205 128 269 61 q 106 285 140 194 q 71 485 71 376 q 106 685 71 594 q 205 844 140 776 q 356 949 269 911 q 547 986 443 986 q 738 949 650 986 q 889 844 825 911 q 988 685 953 776 q 1024 486 1024 593 q 988 287 1024 378 q 889 128 953 196 q 738 24 825 61 q 547 -14 650 -14 m 547 93 q 693 122 626 93 q 808 204 760 151 q 884 329 857 257 q 911 486 911 401 q 884 642 911 571 q 808 767 857 714 q 693 850 760 821 q 547 879 626 879 q 401 850 467 879 q 285 768 335 821 q 209 643 236 715 q 182 485 182 571 q 229 283 182 372 q 358 144 276 194 q 547 93 440 93 m 643 1075 q 588 1084 617 1075 q 521 1108 558 1093 q 485 1124 503 1117 q 450 1131 467 1131 q 418 1117 431 1131 q 406 1075 406 1103 l 324 1075 q 364 1174 324 1139 q 456 1210 404 1210 q 515 1199 486 1210 q 568 1176 543 1188 q 610 1160 593 1165 q 638 1156 626 1156 q 674 1169 660 1156 q 689 1210 689 1183 l 769 1210 q 753 1142 769 1174 q 709 1093 738 1111 q 643 1075 681 1075 z "},"Ṍ":{"ha":1093,"x_min":71,"x_max":1024,"o":"m 547 -14 q 356 24 443 -14 q 205 128 269 61 q 106 285 140 194 q 71 485 71 376 q 106 685 71 594 q 205 844 140 776 q 356 949 269 911 q 547 986 443 986 q 738 949 650 986 q 889 844 825 911 q 988 685 953 776 q 1024 486 1024 593 q 988 287 1024 378 q 889 128 953 196 q 738 24 825 61 q 547 -14 650 -14 m 547 93 q 693 122 626 93 q 808 204 760 151 q 884 329 857 257 q 911 486 911 401 q 884 642 911 571 q 808 767 857 714 q 693 850 760 821 q 547 879 626 879 q 401 850 467 879 q 285 768 335 821 q 209 643 236 715 q 182 485 182 571 q 229 283 182 372 q 358 144 276 194 q 547 93 440 93 m 643 1075 q 588 1084 617 1075 q 521 1108 558 1093 q 485 1124 503 1117 q 450 1131 467 1131 q 418 1117 431 1131 q 406 1075 406 1103 l 324 1075 q 364 1174 324 1139 q 456 1210 404 1210 q 515 1199 486 1210 q 568 1176 543 1188 q 610 1160 593 1165 q 638 1156 626 1156 q 674 1169 660 1156 q 689 1210 689 1183 l 769 1210 q 753 1142 769 1174 q 709 1093 738 1111 q 643 1075 681 1075 m 460 1247 l 429 1303 l 668 1450 l 718 1357 l 460 1247 z "},"Ṏ":{"ha":1093,"x_min":71,"x_max":1024,"o":"m 547 -14 q 356 24 443 -14 q 205 128 269 61 q 106 285 140 194 q 71 485 71 376 q 106 685 71 594 q 205 844 140 776 q 356 949 269 911 q 547 986 443 986 q 738 949 650 986 q 889 844 825 911 q 988 685 953 776 q 1024 486 1024 593 q 988 287 1024 378 q 889 128 953 196 q 738 24 825 61 q 547 -14 650 -14 m 547 93 q 693 122 626 93 q 808 204 760 151 q 884 329 857 257 q 911 486 911 401 q 884 642 911 571 q 808 767 857 714 q 693 850 760 821 q 547 879 626 879 q 401 850 467 879 q 285 768 335 821 q 209 643 236 715 q 182 485 182 571 q 229 283 182 372 q 358 144 276 194 q 547 93 440 93 m 643 1075 q 588 1084 617 1075 q 521 1108 558 1093 q 485 1124 503 1117 q 450 1131 467 1131 q 418 1117 431 1131 q 406 1075 406 1103 l 324 1075 q 364 1174 324 1139 q 456 1210 404 1210 q 515 1199 486 1210 q 568 1176 543 1188 q 610 1160 593 1165 q 638 1156 626 1156 q 674 1169 660 1156 q 689 1210 689 1183 l 769 1210 q 753 1142 769 1174 q 709 1093 738 1111 q 643 1075 681 1075 m 678 1264 q 620 1284 639 1264 q 601 1336 601 1304 q 620 1386 601 1364 q 678 1408 639 1408 q 735 1389 717 1408 q 754 1336 754 1369 q 735 1286 754 1308 q 678 1264 717 1264 m 417 1264 q 360 1284 381 1264 q 340 1336 340 1304 q 360 1386 340 1364 q 417 1408 379 1408 q 475 1389 457 1408 q 493 1336 493 1369 q 475 1286 493 1308 q 417 1264 457 1264 z "},"Ȭ":{"ha":1093,"x_min":71,"x_max":1024,"o":"m 547 -14 q 356 24 443 -14 q 205 128 269 61 q 106 285 140 194 q 71 485 71 376 q 106 685 71 594 q 205 844 140 776 q 356 949 269 911 q 547 986 443 986 q 738 949 650 986 q 889 844 825 911 q 988 685 953 776 q 1024 486 1024 593 q 988 287 1024 378 q 889 128 953 196 q 738 24 825 61 q 547 -14 650 -14 m 547 93 q 693 122 626 93 q 808 204 760 151 q 884 329 857 257 q 911 486 911 401 q 884 642 911 571 q 808 767 857 714 q 693 850 760 821 q 547 879 626 879 q 401 850 467 879 q 285 768 335 821 q 209 643 236 715 q 182 485 182 571 q 229 283 182 372 q 358 144 276 194 q 547 93 440 93 m 643 1075 q 588 1084 617 1075 q 521 1108 558 1093 q 485 1124 503 1117 q 450 1131 467 1131 q 418 1117 431 1131 q 406 1075 406 1103 l 324 1075 q 364 1174 324 1139 q 456 1210 404 1210 q 515 1199 486 1210 q 568 1176 543 1188 q 610 1160 593 1165 q 638 1156 626 1156 q 674 1169 660 1156 q 689 1210 689 1183 l 769 1210 q 753 1142 769 1174 q 709 1093 738 1111 q 643 1075 681 1075 m 331 1297 l 331 1376 l 763 1376 l 763 1297 l 331 1297 z "},"Œ":{"ha":1414,"x_min":71,"x_max":1315,"o":"m 524 0 q 342 35 425 0 q 198 135 258 71 q 104 290 138 200 q 71 486 71 379 q 106 683 71 594 q 203 837 140 772 q 351 937 265 901 q 538 972 436 972 l 1315 972 l 1315 867 l 836 867 l 836 553 l 1238 553 l 1238 447 l 836 447 l 836 106 l 1313 106 l 1313 0 l 524 0 m 182 486 q 208 331 182 401 q 280 210 233 260 q 390 133 326 161 q 529 106 453 106 l 726 106 l 726 867 l 543 867 q 398 839 464 867 q 283 761 332 811 q 208 641 235 711 q 182 486 182 571 z "},"P":{"ha":865,"x_min":142,"x_max":797,"o":"m 142 0 l 142 972 l 522 972 q 663 935 601 972 q 761 832 725 897 q 797 683 797 767 q 761 531 797 599 q 663 422 725 463 q 522 382 601 382 l 251 382 l 251 0 l 142 0 m 251 489 l 522 489 q 606 515 569 489 q 664 585 643 540 q 685 683 685 629 q 664 777 685 736 q 606 842 643 818 q 522 867 569 867 l 251 867 l 251 489 z "},"Þ":{"ha":849,"x_min":142,"x_max":782,"o":"m 142 0 l 142 972 l 251 972 l 251 782 l 507 782 q 646 745 583 782 q 745 644 708 708 q 782 497 782 579 q 745 352 782 418 q 646 248 708 286 q 507 210 583 210 l 251 210 l 251 0 l 142 0 m 251 317 l 504 317 q 590 342 553 317 q 649 408 628 367 q 671 497 671 450 q 649 589 671 549 q 591 653 628 629 q 504 676 554 676 l 251 676 l 251 317 z "},"Q":{"ha":1093,"x_min":71,"x_max":1024,"o":"m 869 -137 l 507 339 l 597 400 l 957 -75 l 869 -137 m 547 -14 q 356 24 443 -14 q 205 128 269 61 q 106 285 140 194 q 71 485 71 376 q 106 685 71 594 q 205 844 140 776 q 356 949 269 911 q 547 986 443 986 q 738 949 650 986 q 889 844 825 911 q 988 685 953 776 q 1024 486 1024 593 q 988 287 1024 378 q 889 128 953 196 q 738 24 825 61 q 547 -14 650 -14 m 547 93 q 693 122 626 93 q 808 204 760 151 q 884 329 857 257 q 911 486 911 401 q 884 642 911 571 q 808 767 857 714 q 693 850 760 821 q 547 879 626 879 q 401 850 467 879 q 285 768 335 821 q 209 643 236 715 q 182 485 182 571 q 229 283 182 372 q 358 144 276 194 q 547 93 440 93 z "},"R":{"ha":925,"x_min":142,"x_max":861,"o":"m 142 0 l 142 972 l 533 972 q 681 934 615 972 q 785 828 747 896 q 824 676 824 761 q 785 526 824 594 q 681 418 747 458 q 533 378 615 378 l 251 378 l 251 0 l 142 0 m 728 0 l 482 431 l 594 457 l 861 -1 l 728 0 m 251 485 l 546 485 q 632 510 594 485 q 690 578 669 535 q 711 678 711 622 q 687 776 711 733 q 619 842 663 818 q 519 867 576 867 l 251 867 l 251 485 z "},"Ŕ":{"ha":925,"x_min":142,"x_max":861,"o":"m 142 0 l 142 972 l 533 972 q 681 934 615 972 q 785 828 747 896 q 824 676 824 761 q 785 526 824 594 q 681 418 747 458 q 533 378 615 378 l 251 378 l 251 0 l 142 0 m 728 0 l 482 431 l 594 457 l 861 -1 l 728 0 m 251 485 l 546 485 q 632 510 594 485 q 690 578 669 535 q 711 678 711 622 q 687 776 711 733 q 619 842 663 818 q 519 867 576 867 l 251 867 l 251 485 m 344 1053 l 314 1108 l 553 1256 l 603 1163 l 344 1053 z "},"Ř":{"ha":925,"x_min":142,"x_max":861,"o":"m 142 0 l 142 972 l 533 972 q 681 934 615 972 q 785 828 747 896 q 824 676 824 761 q 785 526 824 594 q 681 418 747 458 q 533 378 615 378 l 251 378 l 251 0 l 142 0 m 728 0 l 482 431 l 594 457 l 861 -1 l 728 0 m 251 485 l 546 485 q 632 510 594 485 q 690 578 669 535 q 711 678 711 622 q 687 776 711 733 q 619 842 663 818 q 519 867 576 867 l 251 867 l 251 485 m 386 1057 l 225 1190 l 267 1228 l 449 1131 l 415 1131 l 597 1228 l 639 1190 l 478 1057 l 386 1057 z "},"Ŗ":{"ha":925,"x_min":142,"x_max":861,"o":"m 142 0 l 142 972 l 533 972 q 681 934 615 972 q 785 828 747 896 q 824 676 824 761 q 785 526 824 594 q 681 418 747 458 q 533 378 615 378 l 251 378 l 251 0 l 142 0 m 728 0 l 482 431 l 594 457 l 861 -1 l 728 0 m 251 485 l 546 485 q 632 510 594 485 q 690 578 669 535 q 711 678 711 622 q 687 776 711 733 q 619 842 663 818 q 519 867 576 867 l 251 867 l 251 485 m 411 -319 l 382 -274 q 414 -256 399 -268 q 439 -231 429 -244 q 449 -204 449 -218 q 444 -189 449 -194 q 422 -178 439 -183 q 394 -159 401 -171 q 386 -129 386 -147 q 406 -89 386 -106 q 458 -72 426 -72 q 522 -98 496 -72 q 547 -165 547 -124 q 538 -212 547 -190 q 512 -253 529 -233 q 469 -289 494 -272 q 411 -319 443 -306 z "},"Ȑ":{"ha":925,"x_min":96,"x_max":861,"o":"m 142 0 l 142 972 l 533 972 q 681 934 615 972 q 785 828 747 896 q 824 676 824 761 q 785 526 824 594 q 681 418 747 458 q 533 378 615 378 l 251 378 l 251 0 l 142 0 m 728 0 l 482 431 l 594 457 l 861 -1 l 728 0 m 251 485 l 546 485 q 632 510 594 485 q 690 578 669 535 q 711 678 711 622 q 687 776 711 733 q 619 842 663 818 q 519 867 576 867 l 251 867 l 251 485 m 565 1047 l 342 1189 l 414 1269 l 604 1099 l 565 1047 m 319 1047 l 96 1189 l 167 1269 l 358 1099 l 319 1047 z "},"Ṛ":{"ha":925,"x_min":142,"x_max":861,"o":"m 142 0 l 142 972 l 533 972 q 681 934 615 972 q 785 828 747 896 q 824 676 824 761 q 785 526 824 594 q 681 418 747 458 q 533 378 615 378 l 251 378 l 251 0 l 142 0 m 728 0 l 482 431 l 594 457 l 861 -1 l 728 0 m 251 485 l 546 485 q 632 510 594 485 q 690 578 669 535 q 711 678 711 622 q 687 776 711 733 q 619 842 663 818 q 519 867 576 867 l 251 867 l 251 485 m 464 -256 q 407 -235 426 -256 q 388 -181 388 -215 q 408 -128 388 -149 q 464 -108 428 -108 q 521 -128 501 -108 q 540 -182 540 -147 q 520 -235 540 -214 q 464 -256 500 -256 z "},"Ȓ":{"ha":925,"x_min":142,"x_max":861,"o":"m 142 0 l 142 972 l 533 972 q 681 934 615 972 q 785 828 747 896 q 824 676 824 761 q 785 526 824 594 q 681 418 747 458 q 533 378 615 378 l 251 378 l 251 0 l 142 0 m 728 0 l 482 431 l 594 457 l 861 -1 l 728 0 m 251 485 l 546 485 q 632 510 594 485 q 690 578 669 535 q 711 678 711 622 q 687 776 711 733 q 619 842 663 818 q 519 867 576 867 l 251 867 l 251 485 m 300 1051 l 221 1063 q 263 1151 233 1111 q 335 1214 292 1190 q 432 1238 379 1238 q 529 1214 486 1238 q 602 1151 572 1190 q 643 1063 632 1111 l 564 1051 q 515 1123 550 1093 q 432 1153 479 1153 q 349 1123 385 1153 q 300 1051 314 1093 z "},"Ṟ":{"ha":925,"x_min":142,"x_max":861,"o":"m 142 0 l 142 972 l 533 972 q 681 934 615 972 q 785 828 747 896 q 824 676 824 761 q 785 526 824 594 q 681 418 747 458 q 533 378 615 378 l 251 378 l 251 0 l 142 0 m 728 0 l 482 431 l 594 457 l 861 -1 l 728 0 m 251 485 l 546 485 q 632 510 594 485 q 690 578 669 535 q 711 678 711 622 q 687 776 711 733 q 619 842 663 818 q 519 867 576 867 l 251 867 l 251 485 m 271 -221 l 271 -142 l 656 -142 l 656 -221 l 271 -221 z "},"S":{"ha":840,"x_min":65,"x_max":771,"o":"m 431 -14 q 219 33 310 -14 q 65 169 128 79 l 143 256 q 276 125 206 164 q 442 86 346 86 q 552 107 503 86 q 631 164 601 128 q 660 246 660 200 q 649 301 660 276 q 617 346 639 326 q 564 382 596 365 q 491 412 532 399 q 399 438 450 425 q 273 478 326 453 q 182 538 219 503 q 126 617 144 572 q 108 719 108 663 q 152 857 108 797 q 270 951 196 917 q 438 986 344 986 q 630 945 550 986 q 758 826 710 904 l 681 750 q 576 851 636 815 q 435 886 515 886 q 324 865 372 886 q 247 808 275 844 q 219 722 219 771 q 233 659 219 688 q 272 610 246 631 q 340 572 299 589 q 439 543 382 556 q 578 500 517 525 q 683 442 640 475 q 749 367 726 408 q 771 272 771 325 q 728 122 771 186 q 610 22 686 57 q 431 -14 533 -14 z "},"Ś":{"ha":840,"x_min":65,"x_max":771,"o":"m 431 -14 q 219 33 310 -14 q 65 169 128 79 l 143 256 q 276 125 206 164 q 442 86 346 86 q 552 107 503 86 q 631 164 601 128 q 660 246 660 200 q 649 301 660 276 q 617 346 639 326 q 564 382 596 365 q 491 412 532 399 q 399 438 450 425 q 273 478 326 453 q 182 538 219 503 q 126 617 144 572 q 108 719 108 663 q 152 857 108 797 q 270 951 196 917 q 438 986 344 986 q 630 945 550 986 q 758 826 710 904 l 681 750 q 576 851 636 815 q 435 886 515 886 q 324 865 372 886 q 247 808 275 844 q 219 722 219 771 q 233 659 219 688 q 272 610 246 631 q 340 572 299 589 q 439 543 382 556 q 578 500 517 525 q 683 442 640 475 q 749 367 726 408 q 771 272 771 325 q 728 122 771 186 q 610 22 686 57 q 431 -14 533 -14 m 356 1053 l 325 1108 l 564 1256 l 614 1163 l 356 1053 z "},"Ṥ":{"ha":840,"x_min":65,"x_max":771,"o":"m 431 -14 q 219 33 310 -14 q 65 169 128 79 l 143 256 q 276 125 206 164 q 442 86 346 86 q 552 107 503 86 q 631 164 601 128 q 660 246 660 200 q 649 301 660 276 q 617 346 639 326 q 564 382 596 365 q 491 412 532 399 q 399 438 450 425 q 273 478 326 453 q 182 538 219 503 q 126 617 144 572 q 108 719 108 663 q 152 857 108 797 q 270 951 196 917 q 438 986 344 986 q 630 945 550 986 q 758 826 710 904 l 681 750 q 576 851 636 815 q 435 886 515 886 q 324 865 372 886 q 247 808 275 844 q 219 722 219 771 q 233 659 219 688 q 272 610 246 631 q 340 572 299 589 q 439 543 382 556 q 578 500 517 525 q 683 442 640 475 q 749 367 726 408 q 771 272 771 325 q 728 122 771 186 q 610 22 686 57 q 431 -14 533 -14 m 524 1049 l 468 1086 l 590 1268 l 672 1208 l 524 1049 m 344 1058 q 288 1078 307 1058 q 268 1132 268 1097 q 288 1185 268 1164 q 343 1206 308 1206 q 401 1186 381 1206 q 421 1132 421 1167 q 401 1079 421 1100 q 344 1058 381 1058 z "},"Š":{"ha":840,"x_min":65,"x_max":771,"o":"m 431 -14 q 219 33 310 -14 q 65 169 128 79 l 143 256 q 276 125 206 164 q 442 86 346 86 q 552 107 503 86 q 631 164 601 128 q 660 246 660 200 q 649 301 660 276 q 617 346 639 326 q 564 382 596 365 q 491 412 532 399 q 399 438 450 425 q 273 478 326 453 q 182 538 219 503 q 126 617 144 572 q 108 719 108 663 q 152 857 108 797 q 270 951 196 917 q 438 986 344 986 q 630 945 550 986 q 758 826 710 904 l 681 750 q 576 851 636 815 q 435 886 515 886 q 324 865 372 886 q 247 808 275 844 q 219 722 219 771 q 233 659 219 688 q 272 610 246 631 q 340 572 299 589 q 439 543 382 556 q 578 500 517 525 q 683 442 640 475 q 749 367 726 408 q 771 272 771 325 q 728 122 771 186 q 610 22 686 57 q 431 -14 533 -14 m 397 1057 l 236 1190 l 278 1228 l 460 1131 l 426 1131 l 608 1228 l 650 1190 l 489 1057 l 397 1057 z "},"Ṧ":{"ha":840,"x_min":65,"x_max":771,"o":"m 431 -14 q 219 33 310 -14 q 65 169 128 79 l 143 256 q 276 125 206 164 q 442 86 346 86 q 552 107 503 86 q 631 164 601 128 q 660 246 660 200 q 649 301 660 276 q 617 346 639 326 q 564 382 596 365 q 491 412 532 399 q 399 438 450 425 q 273 478 326 453 q 182 538 219 503 q 126 617 144 572 q 108 719 108 663 q 152 857 108 797 q 270 951 196 917 q 438 986 344 986 q 630 945 550 986 q 758 826 710 904 l 681 750 q 576 851 636 815 q 435 886 515 886 q 324 865 372 886 q 247 808 275 844 q 219 722 219 771 q 233 659 219 688 q 272 610 246 631 q 340 572 299 589 q 439 543 382 556 q 578 500 517 525 q 683 442 640 475 q 749 367 726 408 q 771 272 771 325 q 728 122 771 186 q 610 22 686 57 q 431 -14 533 -14 m 397 1057 l 236 1190 l 278 1228 l 460 1131 l 426 1131 l 608 1228 l 650 1190 l 489 1057 l 397 1057 m 443 1263 q 385 1283 404 1263 q 367 1336 367 1304 q 385 1388 367 1365 q 443 1410 404 1410 q 501 1389 482 1410 q 519 1336 519 1368 q 501 1285 519 1307 q 443 1263 482 1263 z "},"Ş":{"ha":840,"x_min":65,"x_max":771,"o":"m 431 -14 q 219 33 310 -14 q 65 169 128 79 l 143 256 q 276 125 206 164 q 442 86 346 86 q 552 107 503 86 q 631 164 601 128 q 660 246 660 200 q 649 301 660 276 q 617 346 639 326 q 564 382 596 365 q 491 412 532 399 q 399 438 450 425 q 273 478 326 453 q 182 538 219 503 q 126 617 144 572 q 108 719 108 663 q 152 857 108 797 q 270 951 196 917 q 438 986 344 986 q 630 945 550 986 q 758 826 710 904 l 681 750 q 576 851 636 815 q 435 886 515 886 q 324 865 372 886 q 247 808 275 844 q 219 722 219 771 q 233 659 219 688 q 272 610 246 631 q 340 572 299 589 q 439 543 382 556 q 578 500 517 525 q 683 442 640 475 q 749 367 726 408 q 771 272 771 325 q 728 122 771 186 q 610 22 686 57 q 431 -14 533 -14 m 328 -331 l 319 -275 q 394 -262 356 -272 q 458 -233 432 -251 q 483 -192 483 -215 q 460 -156 483 -168 q 408 -139 438 -144 q 354 -133 378 -133 l 336 -119 l 428 22 l 493 22 l 431 -75 q 538 -117 503 -86 q 572 -193 572 -147 q 550 -255 572 -229 q 492 -297 528 -281 q 413 -322 456 -314 q 328 -331 369 -331 z "},"Ŝ":{"ha":840,"x_min":65,"x_max":771,"o":"m 431 -14 q 219 33 310 -14 q 65 169 128 79 l 143 256 q 276 125 206 164 q 442 86 346 86 q 552 107 503 86 q 631 164 601 128 q 660 246 660 200 q 649 301 660 276 q 617 346 639 326 q 564 382 596 365 q 491 412 532 399 q 399 438 450 425 q 273 478 326 453 q 182 538 219 503 q 126 617 144 572 q 108 719 108 663 q 152 857 108 797 q 270 951 196 917 q 438 986 344 986 q 630 945 550 986 q 758 826 710 904 l 681 750 q 576 851 636 815 q 435 886 515 886 q 324 865 372 886 q 247 808 275 844 q 219 722 219 771 q 233 659 219 688 q 272 610 246 631 q 340 572 299 589 q 439 543 382 556 q 578 500 517 525 q 683 442 640 475 q 749 367 726 408 q 771 272 771 325 q 728 122 771 186 q 610 22 686 57 q 431 -14 533 -14 m 279 1056 l 239 1093 l 403 1225 l 485 1225 l 647 1093 l 608 1056 l 428 1154 l 460 1154 l 279 1056 z "},"Ș":{"ha":840,"x_min":65,"x_max":771,"o":"m 431 -14 q 219 33 310 -14 q 65 169 128 79 l 143 256 q 276 125 206 164 q 442 86 346 86 q 552 107 503 86 q 631 164 601 128 q 660 246 660 200 q 649 301 660 276 q 617 346 639 326 q 564 382 596 365 q 491 412 532 399 q 399 438 450 425 q 273 478 326 453 q 182 538 219 503 q 126 617 144 572 q 108 719 108 663 q 152 857 108 797 q 270 951 196 917 q 438 986 344 986 q 630 945 550 986 q 758 826 710 904 l 681 750 q 576 851 636 815 q 435 886 515 886 q 324 865 372 886 q 247 808 275 844 q 219 722 219 771 q 233 659 219 688 q 272 610 246 631 q 340 572 299 589 q 439 543 382 556 q 578 500 517 525 q 683 442 640 475 q 749 367 726 408 q 771 272 771 325 q 728 122 771 186 q 610 22 686 57 q 431 -14 533 -14 m 396 -319 l 367 -274 q 399 -256 383 -268 q 424 -231 414 -244 q 433 -204 433 -218 q 428 -189 433 -194 q 407 -178 424 -183 q 378 -159 386 -171 q 371 -129 371 -147 q 391 -89 371 -106 q 443 -72 411 -72 q 506 -98 481 -72 q 532 -165 532 -124 q 523 -212 532 -190 q 497 -253 514 -233 q 453 -289 479 -272 q 396 -319 428 -306 z "},"Ṡ":{"ha":840,"x_min":65,"x_max":771,"o":"m 431 -14 q 219 33 310 -14 q 65 169 128 79 l 143 256 q 276 125 206 164 q 442 86 346 86 q 552 107 503 86 q 631 164 601 128 q 660 246 660 200 q 649 301 660 276 q 617 346 639 326 q 564 382 596 365 q 491 412 532 399 q 399 438 450 425 q 273 478 326 453 q 182 538 219 503 q 126 617 144 572 q 108 719 108 663 q 152 857 108 797 q 270 951 196 917 q 438 986 344 986 q 630 945 550 986 q 758 826 710 904 l 681 750 q 576 851 636 815 q 435 886 515 886 q 324 865 372 886 q 247 808 275 844 q 219 722 219 771 q 233 659 219 688 q 272 610 246 631 q 340 572 299 589 q 439 543 382 556 q 578 500 517 525 q 683 442 640 475 q 749 367 726 408 q 771 272 771 325 q 728 122 771 186 q 610 22 686 57 q 431 -14 533 -14 m 443 1068 q 385 1089 404 1068 q 367 1142 367 1110 q 385 1193 367 1171 q 443 1215 404 1215 q 501 1194 482 1215 q 519 1142 519 1174 q 501 1090 519 1113 q 443 1068 482 1068 z "},"Ṣ":{"ha":840,"x_min":65,"x_max":771,"o":"m 431 -14 q 219 33 310 -14 q 65 169 128 79 l 143 256 q 276 125 206 164 q 442 86 346 86 q 552 107 503 86 q 631 164 601 128 q 660 246 660 200 q 649 301 660 276 q 617 346 639 326 q 564 382 596 365 q 491 412 532 399 q 399 438 450 425 q 273 478 326 453 q 182 538 219 503 q 126 617 144 572 q 108 719 108 663 q 152 857 108 797 q 270 951 196 917 q 438 986 344 986 q 630 945 550 986 q 758 826 710 904 l 681 750 q 576 851 636 815 q 435 886 515 886 q 324 865 372 886 q 247 808 275 844 q 219 722 219 771 q 233 659 219 688 q 272 610 246 631 q 340 572 299 589 q 439 543 382 556 q 578 500 517 525 q 683 442 640 475 q 749 367 726 408 q 771 272 771 325 q 728 122 771 186 q 610 22 686 57 q 431 -14 533 -14 m 449 -256 q 392 -235 411 -256 q 372 -181 372 -215 q 392 -128 372 -149 q 449 -108 413 -108 q 506 -128 486 -108 q 525 -182 525 -147 q 505 -235 525 -214 q 449 -256 485 -256 z "},"Ṩ":{"ha":840,"x_min":65,"x_max":771,"o":"m 431 -14 q 219 33 310 -14 q 65 169 128 79 l 143 256 q 276 125 206 164 q 442 86 346 86 q 552 107 503 86 q 631 164 601 128 q 660 246 660 200 q 649 301 660 276 q 617 346 639 326 q 564 382 596 365 q 491 412 532 399 q 399 438 450 425 q 273 478 326 453 q 182 538 219 503 q 126 617 144 572 q 108 719 108 663 q 152 857 108 797 q 270 951 196 917 q 438 986 344 986 q 630 945 550 986 q 758 826 710 904 l 681 750 q 576 851 636 815 q 435 886 515 886 q 324 865 372 886 q 247 808 275 844 q 219 722 219 771 q 233 659 219 688 q 272 610 246 631 q 340 572 299 589 q 439 543 382 556 q 578 500 517 525 q 683 442 640 475 q 749 367 726 408 q 771 272 771 325 q 728 122 771 186 q 610 22 686 57 q 431 -14 533 -14 m 449 -256 q 392 -235 411 -256 q 372 -181 372 -215 q 392 -128 372 -149 q 449 -108 413 -108 q 506 -128 486 -108 q 525 -182 525 -147 q 505 -235 525 -214 q 449 -256 485 -256 m 443 1068 q 385 1089 404 1068 q 367 1142 367 1110 q 385 1193 367 1171 q 443 1215 404 1215 q 501 1194 482 1215 q 519 1142 519 1174 q 501 1090 519 1113 q 443 1068 482 1068 z "},"ẞ":{"ha":1032,"x_min":142,"x_max":963,"o":"m 657 -14 q 503 18 576 -14 q 386 106 429 50 l 456 186 q 550 113 496 140 q 657 86 604 86 q 802 128 749 86 q 856 243 856 169 q 835 318 856 289 q 774 373 815 347 q 669 433 732 399 q 560 505 600 472 q 503 573 521 538 q 485 654 485 608 q 506 740 485 701 q 565 809 526 779 q 657 858 604 839 q 775 885 710 878 l 821 847 q 706 888 775 871 q 565 904 636 904 q 431 879 489 904 q 334 803 374 854 q 274 676 294 751 q 254 499 254 600 l 253 1 l 142 1 l 143 511 q 192 772 144 663 q 331 941 239 882 q 556 1000 424 1000 q 725 981 647 1000 q 869 925 803 961 l 874 846 q 725 808 788 832 q 628 751 663 783 q 594 678 594 718 q 634 599 594 633 q 747 526 674 565 q 861 460 813 493 q 936 381 910 428 q 963 257 963 335 q 922 117 963 178 q 813 21 882 56 q 657 -14 743 -14 z "},"Ə":{"ha":1090,"x_min":71,"x_max":1021,"o":"m 544 -14 q 362 22 447 -14 q 212 120 276 57 q 110 269 147 183 q 71 454 72 354 l 71 533 l 972 533 l 981 433 l 176 433 q 214 297 183 360 q 294 186 244 233 q 407 113 343 139 q 544 86 471 86 q 692 115 625 86 q 810 198 760 144 q 888 324 860 251 q 915 486 915 397 q 866 696 915 606 q 730 836 817 786 q 529 886 643 886 q 368 856 440 886 q 236 771 296 826 l 167 843 q 270 922 214 890 q 391 970 326 954 q 531 986 456 986 q 721 947 632 986 q 877 840 810 908 q 983 680 944 771 q 1021 483 1021 589 q 984 288 1021 378 q 882 130 947 197 q 731 24 817 63 q 544 -14 644 -14 z "},"T":{"ha":758,"x_min":42,"x_max":718,"o":"m 322 0 l 322 867 l 42 867 l 42 972 l 718 972 l 718 867 l 432 867 l 432 0 l 322 0 z "},"Ŧ":{"ha":758,"x_min":42,"x_max":718,"o":"m 193 442 l 193 535 l 565 535 l 565 442 l 193 442 m 322 0 l 322 867 l 42 867 l 42 972 l 718 972 l 718 867 l 432 867 l 432 0 l 322 0 z "},"Ť":{"ha":758,"x_min":42,"x_max":718,"o":"m 322 0 l 322 867 l 42 867 l 42 972 l 718 972 l 718 867 l 432 867 l 432 0 l 322 0 m 333 1057 l 172 1190 l 214 1228 l 396 1131 l 363 1131 l 544 1228 l 586 1190 l 425 1057 l 333 1057 z "},"Ţ":{"ha":758,"x_min":42,"x_max":718,"o":"m 322 0 l 322 867 l 42 867 l 42 972 l 718 972 l 718 867 l 432 867 l 432 0 l 322 0 m 258 -331 l 250 -275 q 324 -262 286 -272 q 388 -233 363 -251 q 414 -192 414 -215 q 391 -156 414 -168 q 338 -139 368 -144 q 285 -133 308 -133 l 267 -119 l 358 22 l 424 22 l 361 -75 q 468 -117 433 -86 q 503 -193 503 -147 q 481 -255 503 -229 q 422 -297 458 -281 q 343 -322 386 -314 q 258 -331 300 -331 z "},"Ț":{"ha":758,"x_min":42,"x_max":718,"o":"m 322 0 l 322 867 l 42 867 l 42 972 l 718 972 l 718 867 l 432 867 l 432 0 l 322 0 m 326 -319 l 297 -274 q 329 -256 314 -268 q 354 -231 344 -244 q 364 -204 364 -218 q 359 -189 364 -194 q 338 -178 354 -183 q 309 -159 317 -171 q 301 -129 301 -147 q 322 -89 301 -106 q 374 -72 342 -72 q 437 -98 411 -72 q 463 -165 463 -124 q 453 -212 463 -190 q 427 -253 444 -233 q 384 -289 410 -272 q 326 -319 358 -306 z "},"Ṭ":{"ha":758,"x_min":42,"x_max":718,"o":"m 322 0 l 322 867 l 42 867 l 42 972 l 718 972 l 718 867 l 432 867 l 432 0 l 322 0 m 379 -256 q 322 -235 342 -256 q 303 -181 303 -215 q 323 -128 303 -149 q 379 -108 343 -108 q 436 -128 417 -108 q 456 -182 456 -147 q 435 -235 456 -214 q 379 -256 415 -256 z "},"Ṯ":{"ha":758,"x_min":42,"x_max":718,"o":"m 322 0 l 322 867 l 42 867 l 42 972 l 718 972 l 718 867 l 432 867 l 432 0 l 322 0 m 188 -221 l 188 -142 l 572 -142 l 572 -221 l 188 -221 z "},"U":{"ha":1029,"x_min":132,"x_max":897,"o":"m 513 -8 q 317 41 403 -8 q 181 177 231 90 q 132 374 132 264 l 132 974 l 242 974 l 242 386 q 278 239 242 304 q 376 135 314 174 q 513 97 438 97 q 656 135 593 97 q 756 239 719 174 q 792 386 792 304 l 792 974 l 897 974 l 897 374 q 847 177 897 264 q 710 41 797 90 q 513 -8 624 -8 z "},"Ú":{"ha":1029,"x_min":132,"x_max":897,"o":"m 513 -8 q 317 41 403 -8 q 181 177 231 90 q 132 374 132 264 l 132 974 l 242 974 l 242 386 q 278 239 242 304 q 376 135 314 174 q 513 97 438 97 q 656 135 593 97 q 756 239 719 174 q 792 386 792 304 l 792 974 l 897 974 l 897 374 q 847 177 897 264 q 710 41 797 90 q 513 -8 624 -8 m 428 1053 l 397 1108 l 636 1256 l 686 1163 l 428 1053 z "},"Ŭ":{"ha":1029,"x_min":132,"x_max":897,"o":"m 513 -8 q 317 41 403 -8 q 181 177 231 90 q 132 374 132 264 l 132 974 l 242 974 l 242 386 q 278 239 242 304 q 376 135 314 174 q 513 97 438 97 q 656 135 593 97 q 756 239 719 174 q 792 386 792 304 l 792 974 l 897 974 l 897 374 q 847 177 897 264 q 710 41 797 90 q 513 -8 624 -8 m 515 1049 q 419 1072 463 1049 q 346 1135 375 1096 q 304 1224 317 1175 l 383 1236 q 433 1163 399 1193 q 515 1132 468 1132 q 598 1163 563 1132 q 647 1236 633 1193 l 726 1224 q 685 1135 715 1175 q 613 1072 656 1096 q 515 1049 569 1049 z "},"Ǔ":{"ha":1029,"x_min":132,"x_max":897,"o":"m 513 -8 q 317 41 403 -8 q 181 177 231 90 q 132 374 132 264 l 132 974 l 242 974 l 242 386 q 278 239 242 304 q 376 135 314 174 q 513 97 438 97 q 656 135 593 97 q 756 239 719 174 q 792 386 792 304 l 792 974 l 897 974 l 897 374 q 847 177 897 264 q 710 41 797 90 q 513 -8 624 -8 m 469 1057 l 308 1190 l 350 1228 l 532 1131 l 499 1131 l 681 1228 l 722 1190 l 561 1057 l 469 1057 z "},"Û":{"ha":1029,"x_min":132,"x_max":897,"o":"m 513 -8 q 317 41 403 -8 q 181 177 231 90 q 132 374 132 264 l 132 974 l 242 974 l 242 386 q 278 239 242 304 q 376 135 314 174 q 513 97 438 97 q 656 135 593 97 q 756 239 719 174 q 792 386 792 304 l 792 974 l 897 974 l 897 374 q 847 177 897 264 q 710 41 797 90 q 513 -8 624 -8 m 350 1056 l 310 1093 l 474 1225 l 556 1225 l 718 1093 l 679 1056 l 499 1154 l 531 1154 l 350 1056 z "},"Ȕ":{"ha":1029,"x_min":132,"x_max":897,"o":"m 513 -8 q 317 41 403 -8 q 181 177 231 90 q 132 374 132 264 l 132 974 l 242 974 l 242 386 q 278 239 242 304 q 376 135 314 174 q 513 97 438 97 q 656 135 593 97 q 756 239 719 174 q 792 386 792 304 l 792 974 l 897 974 l 897 374 q 847 177 897 264 q 710 41 797 90 q 513 -8 624 -8 m 649 1047 l 425 1189 l 497 1269 l 688 1099 l 649 1047 m 403 1047 l 179 1189 l 250 1269 l 442 1099 l 403 1047 z "},"Ü":{"ha":1029,"x_min":132,"x_max":897,"o":"m 513 -8 q 317 41 403 -8 q 181 177 231 90 q 132 374 132 264 l 132 974 l 242 974 l 242 386 q 278 239 242 304 q 376 135 314 174 q 513 97 438 97 q 656 135 593 97 q 756 239 719 174 q 792 386 792 304 l 792 974 l 897 974 l 897 374 q 847 177 897 264 q 710 41 797 90 q 513 -8 624 -8 m 646 1069 q 588 1090 607 1069 q 569 1142 569 1110 q 588 1192 569 1169 q 646 1214 607 1214 q 703 1194 685 1214 q 722 1142 722 1175 q 703 1092 722 1114 q 646 1069 685 1069 m 385 1069 q 328 1090 349 1069 q 308 1142 308 1110 q 328 1192 308 1169 q 385 1214 347 1214 q 443 1194 425 1214 q 461 1142 461 1175 q 443 1092 461 1114 q 385 1069 425 1069 z "},"Ụ":{"ha":1029,"x_min":132,"x_max":897,"o":"m 513 -8 q 317 41 403 -8 q 181 177 231 90 q 132 374 132 264 l 132 974 l 242 974 l 242 386 q 278 239 242 304 q 376 135 314 174 q 513 97 438 97 q 656 135 593 97 q 756 239 719 174 q 792 386 792 304 l 792 974 l 897 974 l 897 374 q 847 177 897 264 q 710 41 797 90 q 513 -8 624 -8 m 515 -256 q 458 -235 478 -256 q 439 -181 439 -215 q 459 -128 439 -149 q 515 -108 479 -108 q 572 -128 553 -108 q 592 -182 592 -147 q 572 -235 592 -214 q 515 -256 551 -256 z "},"Ù":{"ha":1029,"x_min":132,"x_max":897,"o":"m 513 -8 q 317 41 403 -8 q 181 177 231 90 q 132 374 132 264 l 132 974 l 242 974 l 242 386 q 278 239 242 304 q 376 135 314 174 q 513 97 438 97 q 656 135 593 97 q 756 239 719 174 q 792 386 792 304 l 792 974 l 897 974 l 897 374 q 847 177 897 264 q 710 41 797 90 q 513 -8 624 -8 m 610 1053 l 351 1163 l 403 1256 l 642 1108 l 610 1053 z "},"Ủ":{"ha":1029,"x_min":132,"x_max":897,"o":"m 513 -8 q 317 41 403 -8 q 181 177 231 90 q 132 374 132 264 l 132 974 l 242 974 l 242 386 q 278 239 242 304 q 376 135 314 174 q 513 97 438 97 q 656 135 593 97 q 756 239 719 174 q 792 386 792 304 l 792 974 l 897 974 l 897 374 q 847 177 897 264 q 710 41 797 90 q 513 -8 624 -8 m 489 1057 q 477 1078 482 1067 q 472 1100 472 1089 q 483 1129 472 1115 q 514 1157 493 1143 q 547 1181 536 1172 q 558 1201 558 1190 q 542 1225 558 1218 q 503 1232 526 1232 q 455 1226 481 1232 q 406 1210 429 1221 l 388 1278 q 444 1299 414 1292 q 504 1306 475 1306 q 606 1278 571 1306 q 642 1210 642 1251 q 625 1160 642 1179 q 588 1131 608 1142 q 553 1110 565 1119 q 542 1089 542 1101 q 543 1079 542 1083 q 546 1071 544 1075 l 489 1057 z "},"Ư":{"ha":1029,"x_min":132,"x_max":1054,"o":"m 513 -8 q 317 41 403 -8 q 181 177 231 90 q 132 374 132 264 l 132 974 l 242 974 l 242 386 q 278 239 242 304 q 376 135 314 174 q 513 97 438 97 q 656 135 593 97 q 756 239 719 174 q 792 386 792 304 l 792 974 l 831 974 q 929 1013 899 974 q 960 1124 960 1053 l 1054 1124 q 1033 1006 1054 1057 q 968 926 1011 956 q 863 890 925 897 l 897 944 l 897 374 q 847 177 897 264 q 710 41 797 90 q 513 -8 624 -8 z "},"Ứ":{"ha":1029,"x_min":132,"x_max":1054,"o":"m 513 -8 q 317 41 403 -8 q 181 177 231 90 q 132 374 132 264 l 132 974 l 242 974 l 242 386 q 278 239 242 304 q 376 135 314 174 q 513 97 438 97 q 656 135 593 97 q 756 239 719 174 q 792 386 792 304 l 792 974 l 831 974 q 929 1013 899 974 q 960 1124 960 1053 l 1054 1124 q 1033 1006 1054 1057 q 968 926 1011 956 q 863 890 925 897 l 897 944 l 897 374 q 847 177 897 264 q 710 41 797 90 q 513 -8 624 -8 m 428 1053 l 397 1108 l 636 1256 l 686 1163 l 428 1053 z "},"Ự":{"ha":1029,"x_min":132,"x_max":1054,"o":"m 513 -8 q 317 41 403 -8 q 181 177 231 90 q 132 374 132 264 l 132 974 l 242 974 l 242 386 q 278 239 242 304 q 376 135 314 174 q 513 97 438 97 q 656 135 593 97 q 756 239 719 174 q 792 386 792 304 l 792 974 l 831 974 q 929 1013 899 974 q 960 1124 960 1053 l 1054 1124 q 1033 1006 1054 1057 q 968 926 1011 956 q 863 890 925 897 l 897 944 l 897 374 q 847 177 897 264 q 710 41 797 90 q 513 -8 624 -8 m 515 -256 q 458 -235 478 -256 q 439 -181 439 -215 q 459 -128 439 -149 q 515 -108 479 -108 q 572 -128 553 -108 q 592 -182 592 -147 q 572 -235 592 -214 q 515 -256 551 -256 z "},"Ừ":{"ha":1029,"x_min":132,"x_max":1054,"o":"m 513 -8 q 317 41 403 -8 q 181 177 231 90 q 132 374 132 264 l 132 974 l 242 974 l 242 386 q 278 239 242 304 q 376 135 314 174 q 513 97 438 97 q 656 135 593 97 q 756 239 719 174 q 792 386 792 304 l 792 974 l 831 974 q 929 1013 899 974 q 960 1124 960 1053 l 1054 1124 q 1033 1006 1054 1057 q 968 926 1011 956 q 863 890 925 897 l 897 944 l 897 374 q 847 177 897 264 q 710 41 797 90 q 513 -8 624 -8 m 610 1053 l 351 1163 l 403 1256 l 642 1108 l 610 1053 z "},"Ử":{"ha":1029,"x_min":132,"x_max":1054,"o":"m 513 -8 q 317 41 403 -8 q 181 177 231 90 q 132 374 132 264 l 132 974 l 242 974 l 242 386 q 278 239 242 304 q 376 135 314 174 q 513 97 438 97 q 656 135 593 97 q 756 239 719 174 q 792 386 792 304 l 792 974 l 831 974 q 929 1013 899 974 q 960 1124 960 1053 l 1054 1124 q 1033 1006 1054 1057 q 968 926 1011 956 q 863 890 925 897 l 897 944 l 897 374 q 847 177 897 264 q 710 41 797 90 q 513 -8 624 -8 m 489 1057 q 477 1078 482 1067 q 472 1100 472 1089 q 483 1129 472 1115 q 514 1157 493 1143 q 547 1181 536 1172 q 558 1201 558 1190 q 542 1225 558 1218 q 503 1232 526 1232 q 455 1226 481 1232 q 406 1210 429 1221 l 388 1278 q 444 1299 414 1292 q 504 1306 475 1306 q 606 1278 571 1306 q 642 1210 642 1251 q 625 1160 642 1179 q 588 1131 608 1142 q 553 1110 565 1119 q 542 1089 542 1101 q 543 1079 542 1083 q 546 1071 544 1075 l 489 1057 z "},"Ữ":{"ha":1029,"x_min":132,"x_max":1054,"o":"m 513 -8 q 317 41 403 -8 q 181 177 231 90 q 132 374 132 264 l 132 974 l 242 974 l 242 386 q 278 239 242 304 q 376 135 314 174 q 513 97 438 97 q 656 135 593 97 q 756 239 719 174 q 792 386 792 304 l 792 974 l 831 974 q 929 1013 899 974 q 960 1124 960 1053 l 1054 1124 q 1033 1006 1054 1057 q 968 926 1011 956 q 863 890 925 897 l 897 944 l 897 374 q 847 177 897 264 q 710 41 797 90 q 513 -8 624 -8 m 611 1075 q 556 1084 585 1075 q 489 1108 526 1093 q 453 1124 471 1117 q 418 1131 435 1131 q 386 1117 399 1131 q 374 1075 374 1103 l 292 1075 q 332 1174 292 1139 q 424 1210 372 1210 q 483 1199 454 1210 q 536 1176 511 1188 q 578 1160 561 1165 q 606 1156 594 1156 q 642 1169 628 1156 q 657 1210 657 1183 l 738 1210 q 722 1142 738 1174 q 677 1093 706 1111 q 611 1075 649 1075 z "},"Ű":{"ha":1029,"x_min":132,"x_max":897,"o":"m 513 -8 q 317 41 403 -8 q 181 177 231 90 q 132 374 132 264 l 132 974 l 242 974 l 242 386 q 278 239 242 304 q 376 135 314 174 q 513 97 438 97 q 656 135 593 97 q 756 239 719 174 q 792 386 792 304 l 792 974 l 897 974 l 897 374 q 847 177 897 264 q 710 41 797 90 q 513 -8 624 -8 m 372 1047 l 333 1099 l 524 1269 l 596 1189 l 372 1047 m 618 1047 l 579 1099 l 771 1269 l 842 1189 l 618 1047 z "},"Ȗ":{"ha":1029,"x_min":132,"x_max":897,"o":"m 513 -8 q 317 41 403 -8 q 181 177 231 90 q 132 374 132 264 l 132 974 l 242 974 l 242 386 q 278 239 242 304 q 376 135 314 174 q 513 97 438 97 q 656 135 593 97 q 756 239 719 174 q 792 386 792 304 l 792 974 l 897 974 l 897 374 q 847 177 897 264 q 710 41 797 90 q 513 -8 624 -8 m 383 1051 l 304 1063 q 346 1151 317 1111 q 419 1214 375 1190 q 515 1238 463 1238 q 613 1214 569 1238 q 685 1151 656 1190 q 726 1063 715 1111 l 647 1051 q 598 1123 633 1093 q 515 1153 563 1153 q 433 1123 468 1153 q 383 1051 397 1093 z "},"Ū":{"ha":1029,"x_min":132,"x_max":897,"o":"m 513 -8 q 317 41 403 -8 q 181 177 231 90 q 132 374 132 264 l 132 974 l 242 974 l 242 386 q 278 239 242 304 q 376 135 314 174 q 513 97 438 97 q 656 135 593 97 q 756 239 719 174 q 792 386 792 304 l 792 974 l 897 974 l 897 374 q 847 177 897 264 q 710 41 797 90 q 513 -8 624 -8 m 299 1103 l 299 1182 l 731 1182 l 731 1103 l 299 1103 z "},"Ṻ":{"ha":1029,"x_min":132,"x_max":897,"o":"m 513 -8 q 317 41 403 -8 q 181 177 231 90 q 132 374 132 264 l 132 974 l 242 974 l 242 386 q 278 239 242 304 q 376 135 314 174 q 513 97 438 97 q 656 135 593 97 q 756 239 719 174 q 792 386 792 304 l 792 974 l 897 974 l 897 374 q 847 177 897 264 q 710 41 797 90 q 513 -8 624 -8 m 299 1103 l 299 1182 l 731 1182 l 731 1103 l 299 1103 m 646 1264 q 588 1284 607 1264 q 569 1336 569 1304 q 588 1386 569 1364 q 646 1408 607 1408 q 703 1389 685 1408 q 722 1336 722 1369 q 703 1286 722 1308 q 646 1264 685 1264 m 385 1264 q 328 1284 349 1264 q 308 1336 308 1304 q 328 1386 308 1364 q 385 1408 347 1408 q 443 1389 425 1408 q 461 1336 461 1369 q 443 1286 461 1308 q 385 1264 425 1264 z "},"Ų":{"ha":1029,"x_min":132,"x_max":897,"o":"m 614 -294 q 510 -256 554 -294 q 467 -151 467 -218 q 485 -72 467 -108 q 535 -6 504 -36 q 607 51 567 25 q 692 103 647 78 l 729 51 q 658 6 689 29 q 606 -40 628 -17 q 573 -88 585 -64 q 561 -137 561 -112 q 580 -193 561 -172 q 629 -214 599 -214 q 669 -202 651 -214 q 699 -169 686 -190 l 757 -212 q 702 -270 742 -246 q 614 -294 663 -294 m 513 -8 q 317 41 403 -8 q 181 177 231 90 q 132 374 132 264 l 132 974 l 242 974 l 242 386 q 278 239 242 304 q 376 135 314 174 q 513 97 438 97 q 656 135 593 97 q 756 239 719 174 q 792 386 792 304 l 792 974 l 897 974 l 897 374 q 847 177 897 264 q 710 41 797 90 q 513 -8 624 -8 z "},"Ů":{"ha":1029,"x_min":132,"x_max":897,"o":"m 513 -8 q 317 41 403 -8 q 181 177 231 90 q 132 374 132 264 l 132 974 l 242 974 l 242 386 q 278 239 242 304 q 376 135 314 174 q 513 97 438 97 q 656 135 593 97 q 756 239 719 174 q 792 386 792 304 l 792 974 l 897 974 l 897 374 q 847 177 897 264 q 710 41 797 90 q 513 -8 624 -8 m 514 949 q 444 967 476 949 q 391 1017 411 986 q 371 1085 371 1049 q 391 1156 371 1125 q 444 1207 411 1188 q 514 1226 476 1226 q 585 1207 553 1226 q 638 1156 618 1188 q 658 1085 658 1125 q 638 1017 658 1049 q 585 967 618 986 q 514 949 553 949 m 514 1011 q 570 1033 547 1011 q 593 1086 593 1056 q 570 1142 593 1122 q 514 1163 547 1163 q 459 1141 482 1163 q 436 1086 436 1119 q 459 1033 436 1056 q 514 1011 482 1011 z "},"Ũ":{"ha":1029,"x_min":132,"x_max":897,"o":"m 513 -8 q 317 41 403 -8 q 181 177 231 90 q 132 374 132 264 l 132 974 l 242 974 l 242 386 q 278 239 242 304 q 376 135 314 174 q 513 97 438 97 q 656 135 593 97 q 756 239 719 174 q 792 386 792 304 l 792 974 l 897 974 l 897 374 q 847 177 897 264 q 710 41 797 90 q 513 -8 624 -8 m 611 1075 q 556 1084 585 1075 q 489 1108 526 1093 q 453 1124 471 1117 q 418 1131 435 1131 q 386 1117 399 1131 q 374 1075 374 1103 l 292 1075 q 332 1174 292 1139 q 424 1210 372 1210 q 483 1199 454 1210 q 536 1176 511 1188 q 578 1160 561 1165 q 606 1156 594 1156 q 642 1169 628 1156 q 657 1210 657 1183 l 738 1210 q 722 1142 738 1174 q 677 1093 706 1111 q 611 1075 649 1075 z "},"Ṹ":{"ha":1029,"x_min":132,"x_max":897,"o":"m 513 -8 q 317 41 403 -8 q 181 177 231 90 q 132 374 132 264 l 132 974 l 242 974 l 242 386 q 278 239 242 304 q 376 135 314 174 q 513 97 438 97 q 656 135 593 97 q 756 239 719 174 q 792 386 792 304 l 792 974 l 897 974 l 897 374 q 847 177 897 264 q 710 41 797 90 q 513 -8 624 -8 m 611 1075 q 556 1084 585 1075 q 489 1108 526 1093 q 453 1124 471 1117 q 418 1131 435 1131 q 386 1117 399 1131 q 374 1075 374 1103 l 292 1075 q 332 1174 292 1139 q 424 1210 372 1210 q 483 1199 454 1210 q 536 1176 511 1188 q 578 1160 561 1165 q 606 1156 594 1156 q 642 1169 628 1156 q 657 1210 657 1183 l 738 1210 q 722 1142 738 1174 q 677 1093 706 1111 q 611 1075 649 1075 m 428 1247 l 397 1303 l 636 1450 l 686 1357 l 428 1247 z "},"V":{"ha":942,"x_min":32,"x_max":910,"o":"m 414 0 l 32 972 l 157 972 l 422 289 q 445 226 435 254 q 464 174 456 197 q 479 132 472 151 q 492 94 486 113 l 461 94 q 477 146 468 118 q 499 209 486 174 q 528 289 511 244 l 781 972 l 910 972 l 525 0 l 414 0 z "},"W":{"ha":1315,"x_min":32,"x_max":1283,"o":"m 329 0 l 32 972 l 149 972 l 339 332 q 361 253 353 293 q 378 177 369 214 q 394 108 386 140 l 363 108 q 399 222 385 181 q 422 290 413 264 q 439 336 431 317 l 611 776 l 707 776 l 875 336 q 897 280 886 310 q 919 212 907 250 q 950 117 931 174 l 921 110 q 934 173 929 150 q 942 210 939 196 q 949 238 946 224 q 958 274 951 251 q 976 335 964 296 l 1165 972 l 1283 972 l 986 0 l 906 0 l 644 638 l 663 633 l 408 0 l 329 0 z "},"Ẃ":{"ha":1315,"x_min":32,"x_max":1283,"o":"m 329 0 l 32 972 l 149 972 l 339 332 q 361 253 353 293 q 378 177 369 214 q 394 108 386 140 l 363 108 q 399 222 385 181 q 422 290 413 264 q 439 336 431 317 l 611 776 l 707 776 l 875 336 q 897 280 886 310 q 919 212 907 250 q 950 117 931 174 l 921 110 q 934 173 929 150 q 942 210 939 196 q 949 238 946 224 q 958 274 951 251 q 976 335 964 296 l 1165 972 l 1283 972 l 986 0 l 906 0 l 644 638 l 663 633 l 408 0 l 329 0 m 571 1053 l 540 1108 l 779 1256 l 829 1163 l 571 1053 z "},"Ŵ":{"ha":1315,"x_min":32,"x_max":1283,"o":"m 329 0 l 32 972 l 149 972 l 339 332 q 361 253 353 293 q 378 177 369 214 q 394 108 386 140 l 363 108 q 399 222 385 181 q 422 290 413 264 q 439 336 431 317 l 611 776 l 707 776 l 875 336 q 897 280 886 310 q 919 212 907 250 q 950 117 931 174 l 921 110 q 934 173 929 150 q 942 210 939 196 q 949 238 946 224 q 958 274 951 251 q 976 335 964 296 l 1165 972 l 1283 972 l 986 0 l 906 0 l 644 638 l 663 633 l 408 0 l 329 0 m 493 1056 l 453 1093 l 617 1225 l 699 1225 l 861 1093 l 822 1056 l 642 1154 l 674 1154 l 493 1056 z "},"Ẅ":{"ha":1315,"x_min":32,"x_max":1283,"o":"m 329 0 l 32 972 l 149 972 l 339 332 q 361 253 353 293 q 378 177 369 214 q 394 108 386 140 l 363 108 q 399 222 385 181 q 422 290 413 264 q 439 336 431 317 l 611 776 l 707 776 l 875 336 q 897 280 886 310 q 919 212 907 250 q 950 117 931 174 l 921 110 q 934 173 929 150 q 942 210 939 196 q 949 238 946 224 q 958 274 951 251 q 976 335 964 296 l 1165 972 l 1283 972 l 986 0 l 906 0 l 644 638 l 663 633 l 408 0 l 329 0 m 789 1069 q 731 1090 750 1069 q 713 1142 713 1110 q 731 1192 713 1169 q 789 1214 750 1214 q 847 1194 828 1214 q 865 1142 865 1175 q 847 1092 865 1114 q 789 1069 828 1069 m 528 1069 q 472 1090 492 1069 q 451 1142 451 1110 q 471 1192 451 1169 q 528 1214 490 1214 q 586 1194 568 1214 q 604 1142 604 1175 q 586 1092 604 1114 q 528 1069 568 1069 z "},"Ẁ":{"ha":1315,"x_min":32,"x_max":1283,"o":"m 329 0 l 32 972 l 149 972 l 339 332 q 361 253 353 293 q 378 177 369 214 q 394 108 386 140 l 363 108 q 399 222 385 181 q 422 290 413 264 q 439 336 431 317 l 611 776 l 707 776 l 875 336 q 897 280 886 310 q 919 212 907 250 q 950 117 931 174 l 921 110 q 934 173 929 150 q 942 210 939 196 q 949 238 946 224 q 958 274 951 251 q 976 335 964 296 l 1165 972 l 1283 972 l 986 0 l 906 0 l 644 638 l 663 633 l 408 0 l 329 0 m 753 1053 l 494 1163 l 546 1256 l 785 1108 l 753 1053 z "},"X":{"ha":904,"x_min":32,"x_max":872,"o":"m 732 0 l 414 453 l 39 972 l 179 972 l 486 531 l 872 0 l 732 0 m 32 0 l 400 521 l 468 442 l 163 0 l 32 0 m 503 464 l 435 540 l 728 972 l 858 972 l 503 464 z "},"Y":{"ha":885,"x_min":19,"x_max":867,"o":"m 399 0 l 399 481 l 408 417 l 19 972 l 151 972 l 471 513 l 443 515 l 740 972 l 867 972 l 490 407 l 508 488 l 508 0 l 399 0 z "},"Ý":{"ha":885,"x_min":19,"x_max":867,"o":"m 399 0 l 399 481 l 408 417 l 19 972 l 151 972 l 471 513 l 443 515 l 740 972 l 867 972 l 490 407 l 508 488 l 508 0 l 399 0 m 356 1053 l 325 1108 l 564 1256 l 614 1163 l 356 1053 z "},"Ŷ":{"ha":885,"x_min":19,"x_max":867,"o":"m 399 0 l 399 481 l 408 417 l 19 972 l 151 972 l 471 513 l 443 515 l 740 972 l 867 972 l 490 407 l 508 488 l 508 0 l 399 0 m 278 1056 l 238 1093 l 401 1225 l 483 1225 l 646 1093 l 607 1056 l 426 1154 l 458 1154 l 278 1056 z "},"Ÿ":{"ha":885,"x_min":19,"x_max":867,"o":"m 399 0 l 399 481 l 408 417 l 19 972 l 151 972 l 471 513 l 443 515 l 740 972 l 867 972 l 490 407 l 508 488 l 508 0 l 399 0 m 574 1069 q 516 1090 535 1069 q 497 1142 497 1110 q 516 1192 497 1169 q 574 1214 535 1214 q 631 1194 613 1214 q 650 1142 650 1175 q 631 1092 650 1114 q 574 1069 613 1069 m 313 1069 q 256 1090 276 1069 q 236 1142 236 1110 q 256 1192 236 1169 q 313 1214 275 1214 q 371 1194 353 1214 q 389 1142 389 1175 q 371 1092 389 1114 q 313 1069 353 1069 z "},"Ẏ":{"ha":885,"x_min":19,"x_max":867,"o":"m 399 0 l 399 481 l 408 417 l 19 972 l 151 972 l 471 513 l 443 515 l 740 972 l 867 972 l 490 407 l 508 488 l 508 0 l 399 0 m 443 1068 q 385 1089 404 1068 q 367 1142 367 1110 q 385 1193 367 1171 q 443 1215 404 1215 q 501 1194 482 1215 q 519 1142 519 1174 q 501 1090 519 1113 q 443 1068 482 1068 z "},"Ỵ":{"ha":885,"x_min":19,"x_max":867,"o":"m 399 0 l 399 481 l 408 417 l 19 972 l 151 972 l 471 513 l 443 515 l 740 972 l 867 972 l 490 407 l 508 488 l 508 0 l 399 0 m 443 -256 q 386 -235 406 -256 q 367 -181 367 -215 q 387 -128 367 -149 q 443 -108 407 -108 q 500 -128 481 -108 q 519 -182 519 -147 q 499 -235 519 -214 q 443 -256 479 -256 z "},"Ỳ":{"ha":885,"x_min":19,"x_max":867,"o":"m 399 0 l 399 481 l 408 417 l 19 972 l 151 972 l 471 513 l 443 515 l 740 972 l 867 972 l 490 407 l 508 488 l 508 0 l 399 0 m 538 1053 l 279 1163 l 331 1256 l 569 1108 l 538 1053 z "},"Ỷ":{"ha":885,"x_min":19,"x_max":867,"o":"m 399 0 l 399 481 l 408 417 l 19 972 l 151 972 l 471 513 l 443 515 l 740 972 l 867 972 l 490 407 l 508 488 l 508 0 l 399 0 m 417 1057 q 405 1078 410 1067 q 400 1100 400 1089 q 410 1129 400 1115 q 442 1157 421 1143 q 475 1181 464 1172 q 486 1201 486 1190 q 470 1225 486 1218 q 431 1232 454 1232 q 383 1226 408 1232 q 333 1210 357 1221 l 315 1278 q 372 1299 342 1292 q 432 1306 403 1306 q 534 1278 499 1306 q 569 1210 569 1251 q 553 1160 569 1179 q 515 1131 536 1142 q 481 1110 493 1119 q 469 1089 469 1101 q 471 1079 469 1083 q 474 1071 472 1075 l 417 1057 z "},"Ȳ":{"ha":885,"x_min":19,"x_max":867,"o":"m 399 0 l 399 481 l 408 417 l 19 972 l 151 972 l 471 513 l 443 515 l 740 972 l 867 972 l 490 407 l 508 488 l 508 0 l 399 0 m 226 1103 l 226 1182 l 658 1182 l 658 1103 l 226 1103 z "},"Ỹ":{"ha":885,"x_min":19,"x_max":867,"o":"m 399 0 l 399 481 l 408 417 l 19 972 l 151 972 l 471 513 l 443 515 l 740 972 l 867 972 l 490 407 l 508 488 l 508 0 l 399 0 m 539 1075 q 483 1084 513 1075 q 417 1108 454 1093 q 381 1124 399 1117 q 346 1131 363 1131 q 314 1117 326 1131 q 301 1075 301 1103 l 219 1075 q 260 1174 219 1139 q 351 1210 300 1210 q 410 1199 382 1210 q 464 1176 439 1188 q 506 1160 489 1165 q 533 1156 522 1156 q 570 1169 556 1156 q 585 1210 585 1183 l 665 1210 q 649 1142 665 1174 q 605 1093 633 1111 q 539 1075 576 1075 z "},"Z":{"ha":904,"x_min":83,"x_max":825,"o":"m 83 0 l 83 83 l 678 888 l 697 867 l 119 867 l 119 972 l 810 972 l 810 890 l 218 85 l 201 106 l 825 106 l 825 0 l 83 0 z "},"Ź":{"ha":904,"x_min":83,"x_max":825,"o":"m 83 0 l 83 83 l 678 888 l 697 867 l 119 867 l 119 972 l 810 972 l 810 890 l 218 85 l 201 106 l 825 106 l 825 0 l 83 0 m 365 1053 l 335 1108 l 574 1256 l 624 1163 l 365 1053 z "},"Ž":{"ha":904,"x_min":83,"x_max":825,"o":"m 83 0 l 83 83 l 678 888 l 697 867 l 119 867 l 119 972 l 810 972 l 810 890 l 218 85 l 201 106 l 825 106 l 825 0 l 83 0 m 407 1057 l 246 1190 l 288 1228 l 469 1131 l 436 1131 l 618 1228 l 660 1190 l 499 1057 l 407 1057 z "},"Ż":{"ha":904,"x_min":83,"x_max":825,"o":"m 83 0 l 83 83 l 678 888 l 697 867 l 119 867 l 119 972 l 810 972 l 810 890 l 218 85 l 201 106 l 825 106 l 825 0 l 83 0 m 453 1068 q 395 1089 414 1068 q 376 1142 376 1110 q 395 1193 376 1171 q 453 1215 414 1215 q 510 1194 492 1215 q 529 1142 529 1174 q 510 1090 529 1113 q 453 1068 492 1068 z "},"Ẓ":{"ha":904,"x_min":83,"x_max":825,"o":"m 83 0 l 83 83 l 678 888 l 697 867 l 119 867 l 119 972 l 810 972 l 810 890 l 218 85 l 201 106 l 825 106 l 825 0 l 83 0 m 453 -256 q 396 -235 415 -256 q 376 -181 376 -215 q 397 -128 376 -149 q 453 -108 417 -108 q 510 -128 490 -108 q 529 -182 529 -147 q 509 -235 529 -214 q 453 -256 489 -256 z "},"a":{"ha":743,"x_min":63,"x_max":656,"o":"m 560 0 l 560 486 q 510 600 560 557 q 378 643 460 643 q 254 615 310 643 q 156 532 199 588 l 86 601 q 223 707 149 672 q 385 742 297 742 q 529 714 468 742 q 623 633 590 686 q 656 506 656 581 l 656 0 l 560 0 m 310 -14 q 183 14 239 -14 q 95 91 128 42 q 63 207 63 140 q 83 303 63 261 q 142 372 103 344 q 240 415 181 400 q 376 429 300 429 l 607 429 l 599 342 l 363 342 q 277 333 314 342 q 215 308 240 325 q 176 266 189 290 q 163 208 163 242 q 183 140 163 169 q 237 94 203 110 q 314 78 271 78 q 421 98 371 78 q 510 153 471 118 q 574 233 550 189 l 603 167 q 526 74 572 114 q 426 10 481 33 q 310 -14 371 -14 z "},"á":{"ha":743,"x_min":63,"x_max":656,"o":"m 560 0 l 560 486 q 510 600 560 557 q 378 643 460 643 q 254 615 310 643 q 156 532 199 588 l 86 601 q 223 707 149 672 q 385 742 297 742 q 529 714 468 742 q 623 633 590 686 q 656 506 656 581 l 656 0 l 560 0 m 310 -14 q 183 14 239 -14 q 95 91 128 42 q 63 207 63 140 q 83 303 63 261 q 142 372 103 344 q 240 415 181 400 q 376 429 300 429 l 607 429 l 599 342 l 363 342 q 277 333 314 342 q 215 308 240 325 q 176 266 189 290 q 163 208 163 242 q 183 140 163 169 q 237 94 203 110 q 314 78 271 78 q 421 98 371 78 q 510 153 471 118 q 574 233 550 189 l 603 167 q 526 74 572 114 q 426 10 481 33 q 310 -14 371 -14 m 285 844 l 249 899 l 446 1065 l 513 979 l 285 844 z "},"ă":{"ha":743,"x_min":63,"x_max":656,"o":"m 560 0 l 560 486 q 510 600 560 557 q 378 643 460 643 q 254 615 310 643 q 156 532 199 588 l 86 601 q 223 707 149 672 q 385 742 297 742 q 529 714 468 742 q 623 633 590 686 q 656 506 656 581 l 656 0 l 560 0 m 310 -14 q 183 14 239 -14 q 95 91 128 42 q 63 207 63 140 q 83 303 63 261 q 142 372 103 344 q 240 415 181 400 q 376 429 300 429 l 607 429 l 599 342 l 363 342 q 277 333 314 342 q 215 308 240 325 q 176 266 189 290 q 163 208 163 242 q 183 140 163 169 q 237 94 203 110 q 314 78 271 78 q 421 98 371 78 q 510 153 471 118 q 574 233 550 189 l 603 167 q 526 74 572 114 q 426 10 481 33 q 310 -14 371 -14 m 372 829 q 234 883 289 829 q 161 1028 179 936 l 240 1039 q 292 947 257 981 q 372 914 326 914 q 453 947 418 914 q 504 1039 489 981 l 583 1028 q 510 883 565 936 q 372 829 454 829 z "},"ắ":{"ha":743,"x_min":63,"x_max":656,"o":"m 560 0 l 560 486 q 510 600 560 557 q 378 643 460 643 q 254 615 310 643 q 156 532 199 588 l 86 601 q 223 707 149 672 q 385 742 297 742 q 529 714 468 742 q 623 633 590 686 q 656 506 656 581 l 656 0 l 560 0 m 310 -14 q 183 14 239 -14 q 95 91 128 42 q 63 207 63 140 q 83 303 63 261 q 142 372 103 344 q 240 415 181 400 q 376 429 300 429 l 607 429 l 599 342 l 363 342 q 277 333 314 342 q 215 308 240 325 q 176 266 189 290 q 163 208 163 242 q 183 140 163 169 q 237 94 203 110 q 314 78 271 78 q 421 98 371 78 q 510 153 471 118 q 574 233 550 189 l 603 167 q 526 74 572 114 q 426 10 481 33 q 310 -14 371 -14 m 372 829 q 234 875 289 829 q 161 1000 179 921 l 240 1011 q 292 940 257 965 q 372 914 326 914 q 453 940 418 914 q 504 1011 489 965 l 583 1000 q 510 875 565 921 q 372 829 454 829 m 378 1042 l 322 1081 l 435 1267 l 526 1201 l 378 1042 z "},"ặ":{"ha":743,"x_min":63,"x_max":656,"o":"m 560 0 l 560 486 q 510 600 560 557 q 378 643 460 643 q 254 615 310 643 q 156 532 199 588 l 86 601 q 223 707 149 672 q 385 742 297 742 q 529 714 468 742 q 623 633 590 686 q 656 506 656 581 l 656 0 l 560 0 m 310 -14 q 183 14 239 -14 q 95 91 128 42 q 63 207 63 140 q 83 303 63 261 q 142 372 103 344 q 240 415 181 400 q 376 429 300 429 l 607 429 l 599 342 l 363 342 q 277 333 314 342 q 215 308 240 325 q 176 266 189 290 q 163 208 163 242 q 183 140 163 169 q 237 94 203 110 q 314 78 271 78 q 421 98 371 78 q 510 153 471 118 q 574 233 550 189 l 603 167 q 526 74 572 114 q 426 10 481 33 q 310 -14 371 -14 m 372 -256 q 315 -235 335 -256 q 296 -181 296 -215 q 316 -128 296 -149 q 372 -108 336 -108 q 429 -128 410 -108 q 449 -182 449 -147 q 428 -235 449 -214 q 372 -256 408 -256 m 372 829 q 234 883 289 829 q 161 1028 179 936 l 240 1039 q 292 947 257 981 q 372 914 326 914 q 453 947 418 914 q 504 1039 489 981 l 583 1028 q 510 883 565 936 q 372 829 454 829 z "},"ằ":{"ha":743,"x_min":63,"x_max":656,"o":"m 560 0 l 560 486 q 510 600 560 557 q 378 643 460 643 q 254 615 310 643 q 156 532 199 588 l 86 601 q 223 707 149 672 q 385 742 297 742 q 529 714 468 742 q 623 633 590 686 q 656 506 656 581 l 656 0 l 560 0 m 310 -14 q 183 14 239 -14 q 95 91 128 42 q 63 207 63 140 q 83 303 63 261 q 142 372 103 344 q 240 415 181 400 q 376 429 300 429 l 607 429 l 599 342 l 363 342 q 277 333 314 342 q 215 308 240 325 q 176 266 189 290 q 163 208 163 242 q 183 140 163 169 q 237 94 203 110 q 314 78 271 78 q 421 98 371 78 q 510 153 471 118 q 574 233 550 189 l 603 167 q 526 74 572 114 q 426 10 481 33 q 310 -14 371 -14 m 372 829 q 234 877 289 829 q 161 1008 179 925 l 240 1021 q 292 943 257 972 q 372 914 326 914 q 453 943 418 914 q 504 1021 489 972 l 583 1008 q 510 877 565 925 q 372 829 454 829 m 382 1040 l 228 1200 l 318 1267 l 432 1079 l 382 1040 z "},"ẳ":{"ha":743,"x_min":63,"x_max":656,"o":"m 560 0 l 560 486 q 510 600 560 557 q 378 643 460 643 q 254 615 310 643 q 156 532 199 588 l 86 601 q 223 707 149 672 q 385 742 297 742 q 529 714 468 742 q 623 633 590 686 q 656 506 656 581 l 656 0 l 560 0 m 310 -14 q 183 14 239 -14 q 95 91 128 42 q 63 207 63 140 q 83 303 63 261 q 142 372 103 344 q 240 415 181 400 q 376 429 300 429 l 607 429 l 599 342 l 363 342 q 277 333 314 342 q 215 308 240 325 q 176 266 189 290 q 163 208 163 242 q 183 140 163 169 q 237 94 203 110 q 314 78 271 78 q 421 98 371 78 q 510 153 471 118 q 574 233 550 189 l 603 167 q 526 74 572 114 q 426 10 481 33 q 310 -14 371 -14 m 372 829 q 234 877 289 829 q 161 1008 179 925 l 240 1021 q 292 943 257 972 q 372 914 326 914 q 453 943 418 914 q 504 1021 489 972 l 583 1008 q 510 877 565 925 q 372 829 454 829 m 349 1038 q 335 1059 340 1049 q 331 1081 331 1069 q 341 1110 331 1096 q 372 1138 351 1124 q 406 1163 394 1153 q 417 1186 417 1172 q 401 1209 417 1201 q 361 1217 385 1217 q 313 1210 339 1217 q 264 1193 288 1204 l 246 1261 q 303 1283 272 1276 q 363 1290 333 1290 q 465 1263 429 1290 q 500 1194 500 1235 q 483 1142 500 1161 q 446 1111 465 1122 q 412 1092 424 1101 q 400 1069 400 1082 q 402 1060 400 1064 q 406 1051 404 1056 l 349 1038 z "},"ẵ":{"ha":743,"x_min":63,"x_max":656,"o":"m 560 0 l 560 486 q 510 600 560 557 q 378 643 460 643 q 254 615 310 643 q 156 532 199 588 l 86 601 q 223 707 149 672 q 385 742 297 742 q 529 714 468 742 q 623 633 590 686 q 656 506 656 581 l 656 0 l 560 0 m 310 -14 q 183 14 239 -14 q 95 91 128 42 q 63 207 63 140 q 83 303 63 261 q 142 372 103 344 q 240 415 181 400 q 376 429 300 429 l 607 429 l 599 342 l 363 342 q 277 333 314 342 q 215 308 240 325 q 176 266 189 290 q 163 208 163 242 q 183 140 163 169 q 237 94 203 110 q 314 78 271 78 q 421 98 371 78 q 510 153 471 118 q 574 233 550 189 l 603 167 q 526 74 572 114 q 426 10 481 33 q 310 -14 371 -14 m 372 829 q 234 878 289 829 q 161 1008 179 928 l 240 1021 q 292 944 257 974 q 372 914 326 914 q 453 944 418 914 q 504 1021 489 974 l 583 1008 q 510 878 565 928 q 372 829 454 829 m 474 1131 q 412 1144 438 1131 q 363 1167 386 1157 q 328 1185 344 1176 q 290 1193 311 1193 q 258 1179 272 1193 q 238 1140 243 1165 l 164 1151 q 202 1239 168 1203 q 282 1275 236 1275 q 335 1263 313 1275 q 383 1238 358 1250 q 419 1220 401 1228 q 457 1213 438 1213 q 491 1225 476 1213 q 513 1267 506 1238 l 583 1256 q 567 1192 582 1221 q 529 1147 553 1164 q 474 1131 506 1131 z "},"ǎ":{"ha":743,"x_min":63,"x_max":656,"o":"m 560 0 l 560 486 q 510 600 560 557 q 378 643 460 643 q 254 615 310 643 q 156 532 199 588 l 86 601 q 223 707 149 672 q 385 742 297 742 q 529 714 468 742 q 623 633 590 686 q 656 506 656 581 l 656 0 l 560 0 m 310 -14 q 183 14 239 -14 q 95 91 128 42 q 63 207 63 140 q 83 303 63 261 q 142 372 103 344 q 240 415 181 400 q 376 429 300 429 l 607 429 l 599 342 l 363 342 q 277 333 314 342 q 215 308 240 325 q 176 266 189 290 q 163 208 163 242 q 183 140 163 169 q 237 94 203 110 q 314 78 271 78 q 421 98 371 78 q 510 153 471 118 q 574 233 550 189 l 603 167 q 526 74 572 114 q 426 10 481 33 q 310 -14 371 -14 m 326 850 l 179 996 l 219 1033 l 389 924 l 356 924 l 525 1033 l 565 996 l 418 850 l 326 850 z "},"â":{"ha":743,"x_min":63,"x_max":656,"o":"m 560 0 l 560 486 q 510 600 560 557 q 378 643 460 643 q 254 615 310 643 q 156 532 199 588 l 86 601 q 223 707 149 672 q 385 742 297 742 q 529 714 468 742 q 623 633 590 686 q 656 506 656 581 l 656 0 l 560 0 m 310 -14 q 183 14 239 -14 q 95 91 128 42 q 63 207 63 140 q 83 303 63 261 q 142 372 103 344 q 240 415 181 400 q 376 429 300 429 l 607 429 l 599 342 l 363 342 q 277 333 314 342 q 215 308 240 325 q 176 266 189 290 q 163 208 163 242 q 183 140 163 169 q 237 94 203 110 q 314 78 271 78 q 421 98 371 78 q 510 153 471 118 q 574 233 550 189 l 603 167 q 526 74 572 114 q 426 10 481 33 q 310 -14 371 -14 m 211 850 l 169 886 l 326 1033 l 418 1033 l 575 886 l 533 850 l 356 960 l 389 960 l 211 850 z "},"ấ":{"ha":743,"x_min":63,"x_max":728,"o":"m 560 0 l 560 486 q 510 600 560 557 q 378 643 460 643 q 254 615 310 643 q 156 532 199 588 l 86 601 q 223 707 149 672 q 385 742 297 742 q 529 714 468 742 q 623 633 590 686 q 656 506 656 581 l 656 0 l 560 0 m 310 -14 q 183 14 239 -14 q 95 91 128 42 q 63 207 63 140 q 83 303 63 261 q 142 372 103 344 q 240 415 181 400 q 376 429 300 429 l 607 429 l 599 342 l 363 342 q 277 333 314 342 q 215 308 240 325 q 176 266 189 290 q 163 208 163 242 q 183 140 163 169 q 237 94 203 110 q 314 78 271 78 q 421 98 371 78 q 510 153 471 118 q 574 233 550 189 l 603 167 q 526 74 572 114 q 426 10 481 33 q 310 -14 371 -14 m 210 850 l 169 886 l 326 1033 l 418 1033 l 574 886 l 533 850 l 356 960 l 390 960 l 210 850 m 579 1025 l 525 1064 l 638 1250 l 728 1185 l 579 1025 z "},"ậ":{"ha":743,"x_min":63,"x_max":656,"o":"m 560 0 l 560 486 q 510 600 560 557 q 378 643 460 643 q 254 615 310 643 q 156 532 199 588 l 86 601 q 223 707 149 672 q 385 742 297 742 q 529 714 468 742 q 623 633 590 686 q 656 506 656 581 l 656 0 l 560 0 m 310 -14 q 183 14 239 -14 q 95 91 128 42 q 63 207 63 140 q 83 303 63 261 q 142 372 103 344 q 240 415 181 400 q 376 429 300 429 l 607 429 l 599 342 l 363 342 q 277 333 314 342 q 215 308 240 325 q 176 266 189 290 q 163 208 163 242 q 183 140 163 169 q 237 94 203 110 q 314 78 271 78 q 421 98 371 78 q 510 153 471 118 q 574 233 550 189 l 603 167 q 526 74 572 114 q 426 10 481 33 q 310 -14 371 -14 m 372 -256 q 315 -235 335 -256 q 296 -181 296 -215 q 316 -128 296 -149 q 372 -108 336 -108 q 429 -128 410 -108 q 449 -182 449 -147 q 428 -235 449 -214 q 372 -256 408 -256 m 211 850 l 169 886 l 326 1033 l 418 1033 l 575 886 l 533 850 l 356 960 l 389 960 l 211 850 z "},"ầ":{"ha":743,"x_min":63,"x_max":656,"o":"m 560 0 l 560 486 q 510 600 560 557 q 378 643 460 643 q 254 615 310 643 q 156 532 199 588 l 86 601 q 223 707 149 672 q 385 742 297 742 q 529 714 468 742 q 623 633 590 686 q 656 506 656 581 l 656 0 l 560 0 m 310 -14 q 183 14 239 -14 q 95 91 128 42 q 63 207 63 140 q 83 303 63 261 q 142 372 103 344 q 240 415 181 400 q 376 429 300 429 l 607 429 l 599 342 l 363 342 q 277 333 314 342 q 215 308 240 325 q 176 266 189 290 q 163 208 163 242 q 183 140 163 169 q 237 94 203 110 q 314 78 271 78 q 421 98 371 78 q 510 153 471 118 q 574 233 550 189 l 603 167 q 526 74 572 114 q 426 10 481 33 q 310 -14 371 -14 m 210 850 l 169 886 l 326 1033 l 418 1033 l 574 886 l 533 850 l 356 960 l 389 960 l 210 850 m 572 1022 l 419 1183 l 510 1249 l 622 1063 l 572 1022 z "},"ẩ":{"ha":743,"x_min":63,"x_max":713,"o":"m 560 0 l 560 486 q 510 600 560 557 q 378 643 460 643 q 254 615 310 643 q 156 532 199 588 l 86 601 q 223 707 149 672 q 385 742 297 742 q 529 714 468 742 q 623 633 590 686 q 656 506 656 581 l 656 0 l 560 0 m 310 -14 q 183 14 239 -14 q 95 91 128 42 q 63 207 63 140 q 83 303 63 261 q 142 372 103 344 q 240 415 181 400 q 376 429 300 429 l 607 429 l 599 342 l 363 342 q 277 333 314 342 q 215 308 240 325 q 176 266 189 290 q 163 208 163 242 q 183 140 163 169 q 237 94 203 110 q 314 78 271 78 q 421 98 371 78 q 510 153 471 118 q 574 233 550 189 l 603 167 q 526 74 572 114 q 426 10 481 33 q 310 -14 371 -14 m 210 850 l 168 886 l 325 1033 l 417 1033 l 574 886 l 532 850 l 354 960 l 389 960 l 210 850 m 560 1015 q 548 1037 553 1026 q 543 1060 543 1047 q 553 1088 543 1074 q 585 1117 564 1103 q 618 1140 607 1131 q 629 1164 629 1150 q 613 1186 629 1179 q 574 1193 597 1193 q 525 1189 551 1193 q 475 1172 499 1185 l 457 1239 q 515 1260 485 1253 q 574 1268 546 1268 q 676 1240 640 1268 q 713 1172 713 1213 q 695 1119 713 1139 q 658 1089 678 1100 q 624 1069 636 1079 q 613 1047 613 1060 q 614 1038 613 1042 q 617 1029 615 1033 l 560 1015 z "},"ẫ":{"ha":743,"x_min":63,"x_max":656,"o":"m 560 0 l 560 486 q 510 600 560 557 q 378 643 460 643 q 254 615 310 643 q 156 532 199 588 l 86 601 q 223 707 149 672 q 385 742 297 742 q 529 714 468 742 q 623 633 590 686 q 656 506 656 581 l 656 0 l 560 0 m 310 -14 q 183 14 239 -14 q 95 91 128 42 q 63 207 63 140 q 83 303 63 261 q 142 372 103 344 q 240 415 181 400 q 376 429 300 429 l 607 429 l 599 342 l 363 342 q 277 333 314 342 q 215 308 240 325 q 176 266 189 290 q 163 208 163 242 q 183 140 163 169 q 237 94 203 110 q 314 78 271 78 q 421 98 371 78 q 510 153 471 118 q 574 233 550 189 l 603 167 q 526 74 572 114 q 426 10 481 33 q 310 -14 371 -14 m 208 850 l 167 886 l 324 1033 l 417 1033 l 571 886 l 531 850 l 353 960 l 388 960 l 208 850 m 472 1117 q 410 1130 436 1117 q 360 1153 383 1143 q 325 1171 342 1163 q 289 1179 308 1179 q 255 1165 269 1179 q 235 1126 240 1151 l 161 1138 q 199 1225 165 1189 q 279 1261 233 1261 q 333 1249 310 1261 q 381 1224 357 1236 q 418 1206 400 1214 q 454 1199 436 1199 q 488 1211 474 1199 q 510 1253 503 1224 l 582 1242 q 565 1178 579 1207 q 527 1133 550 1150 q 472 1117 504 1117 z "},"ȁ":{"ha":743,"x_min":33,"x_max":656,"o":"m 560 0 l 560 486 q 510 600 560 557 q 378 643 460 643 q 254 615 310 643 q 156 532 199 588 l 86 601 q 223 707 149 672 q 385 742 297 742 q 529 714 468 742 q 623 633 590 686 q 656 506 656 581 l 656 0 l 560 0 m 310 -14 q 183 14 239 -14 q 95 91 128 42 q 63 207 63 140 q 83 303 63 261 q 142 372 103 344 q 240 415 181 400 q 376 429 300 429 l 607 429 l 599 342 l 363 342 q 277 333 314 342 q 215 308 240 325 q 176 266 189 290 q 163 208 163 242 q 183 140 163 169 q 237 94 203 110 q 314 78 271 78 q 421 98 371 78 q 510 153 471 118 q 574 233 550 189 l 603 167 q 526 74 572 114 q 426 10 481 33 q 310 -14 371 -14 m 501 844 l 274 979 l 340 1065 l 538 899 l 501 844 m 261 844 l 33 979 l 100 1065 l 297 899 l 261 844 z "},"ä":{"ha":743,"x_min":63,"x_max":656,"o":"m 560 0 l 560 486 q 510 600 560 557 q 378 643 460 643 q 254 615 310 643 q 156 532 199 588 l 86 601 q 223 707 149 672 q 385 742 297 742 q 529 714 468 742 q 623 633 590 686 q 656 506 656 581 l 656 0 l 560 0 m 310 -14 q 183 14 239 -14 q 95 91 128 42 q 63 207 63 140 q 83 303 63 261 q 142 372 103 344 q 240 415 181 400 q 376 429 300 429 l 607 429 l 599 342 l 363 342 q 277 333 314 342 q 215 308 240 325 q 176 266 189 290 q 163 208 163 242 q 183 140 163 169 q 237 94 203 110 q 314 78 271 78 q 421 98 371 78 q 510 153 471 118 q 574 233 550 189 l 603 167 q 526 74 572 114 q 426 10 481 33 q 310 -14 371 -14 m 500 901 q 443 921 463 901 q 424 975 424 940 q 443 1028 424 1007 q 500 1049 463 1049 q 556 1029 536 1049 q 576 975 576 1010 q 556 922 576 942 q 500 901 535 901 m 244 901 q 188 921 208 901 q 168 975 168 940 q 189 1028 168 1007 q 244 1049 210 1049 q 301 1029 281 1049 q 321 975 321 1010 q 301 922 321 942 q 244 901 282 901 z "},"ạ":{"ha":743,"x_min":63,"x_max":656,"o":"m 560 0 l 560 486 q 510 600 560 557 q 378 643 460 643 q 254 615 310 643 q 156 532 199 588 l 86 601 q 223 707 149 672 q 385 742 297 742 q 529 714 468 742 q 623 633 590 686 q 656 506 656 581 l 656 0 l 560 0 m 310 -14 q 183 14 239 -14 q 95 91 128 42 q 63 207 63 140 q 83 303 63 261 q 142 372 103 344 q 240 415 181 400 q 376 429 300 429 l 607 429 l 599 342 l 363 342 q 277 333 314 342 q 215 308 240 325 q 176 266 189 290 q 163 208 163 242 q 183 140 163 169 q 237 94 203 110 q 314 78 271 78 q 421 98 371 78 q 510 153 471 118 q 574 233 550 189 l 603 167 q 526 74 572 114 q 426 10 481 33 q 310 -14 371 -14 m 372 -256 q 315 -235 335 -256 q 296 -181 296 -215 q 316 -128 296 -149 q 372 -108 336 -108 q 429 -128 410 -108 q 449 -182 449 -147 q 428 -235 449 -214 q 372 -256 408 -256 z "},"à":{"ha":743,"x_min":63,"x_max":656,"o":"m 560 0 l 560 486 q 510 600 560 557 q 378 643 460 643 q 254 615 310 643 q 156 532 199 588 l 86 601 q 223 707 149 672 q 385 742 297 742 q 529 714 468 742 q 623 633 590 686 q 656 506 656 581 l 656 0 l 560 0 m 310 -14 q 183 14 239 -14 q 95 91 128 42 q 63 207 63 140 q 83 303 63 261 q 142 372 103 344 q 240 415 181 400 q 376 429 300 429 l 607 429 l 599 342 l 363 342 q 277 333 314 342 q 215 308 240 325 q 176 266 189 290 q 163 208 163 242 q 183 140 163 169 q 237 94 203 110 q 314 78 271 78 q 421 98 371 78 q 510 153 471 118 q 574 233 550 189 l 603 167 q 526 74 572 114 q 426 10 481 33 q 310 -14 371 -14 m 440 844 l 213 979 l 279 1065 l 476 899 l 440 844 z "},"ả":{"ha":743,"x_min":63,"x_max":656,"o":"m 560 0 l 560 486 q 510 600 560 557 q 378 643 460 643 q 254 615 310 643 q 156 532 199 588 l 86 601 q 223 707 149 672 q 385 742 297 742 q 529 714 468 742 q 623 633 590 686 q 656 506 656 581 l 656 0 l 560 0 m 310 -14 q 183 14 239 -14 q 95 91 128 42 q 63 207 63 140 q 83 303 63 261 q 142 372 103 344 q 240 415 181 400 q 376 429 300 429 l 607 429 l 599 342 l 363 342 q 277 333 314 342 q 215 308 240 325 q 176 266 189 290 q 163 208 163 242 q 183 140 163 169 q 237 94 203 110 q 314 78 271 78 q 421 98 371 78 q 510 153 471 118 q 574 233 550 189 l 603 167 q 526 74 572 114 q 426 10 481 33 q 310 -14 371 -14 m 346 829 q 334 852 339 842 q 329 874 329 863 q 340 903 329 889 q 371 931 350 917 q 404 956 393 946 q 415 978 415 965 q 399 1001 415 994 q 360 1008 383 1008 q 312 1003 338 1008 q 263 986 286 997 l 244 1053 q 301 1075 271 1068 q 361 1082 332 1082 q 463 1055 428 1082 q 499 986 499 1028 q 482 935 499 954 q 444 904 465 915 q 410 884 422 893 q 399 863 399 875 q 400 853 399 857 q 403 844 401 849 l 346 829 z "},"ȃ":{"ha":743,"x_min":63,"x_max":656,"o":"m 560 0 l 560 486 q 510 600 560 557 q 378 643 460 643 q 254 615 310 643 q 156 532 199 588 l 86 601 q 223 707 149 672 q 385 742 297 742 q 529 714 468 742 q 623 633 590 686 q 656 506 656 581 l 656 0 l 560 0 m 310 -14 q 183 14 239 -14 q 95 91 128 42 q 63 207 63 140 q 83 303 63 261 q 142 372 103 344 q 240 415 181 400 q 376 429 300 429 l 607 429 l 599 342 l 363 342 q 277 333 314 342 q 215 308 240 325 q 176 266 189 290 q 163 208 163 242 q 183 140 163 169 q 237 94 203 110 q 314 78 271 78 q 421 98 371 78 q 510 153 471 118 q 574 233 550 189 l 603 167 q 526 74 572 114 q 426 10 481 33 q 310 -14 371 -14 m 240 843 l 161 856 q 234 1000 179 947 q 372 1053 289 1053 q 510 1000 454 1053 q 583 856 565 947 l 504 843 q 453 935 489 901 q 372 969 418 969 q 292 935 326 969 q 240 843 257 901 z "},"ā":{"ha":743,"x_min":63,"x_max":656,"o":"m 560 0 l 560 486 q 510 600 560 557 q 378 643 460 643 q 254 615 310 643 q 156 532 199 588 l 86 601 q 223 707 149 672 q 385 742 297 742 q 529 714 468 742 q 623 633 590 686 q 656 506 656 581 l 656 0 l 560 0 m 310 -14 q 183 14 239 -14 q 95 91 128 42 q 63 207 63 140 q 83 303 63 261 q 142 372 103 344 q 240 415 181 400 q 376 429 300 429 l 607 429 l 599 342 l 363 342 q 277 333 314 342 q 215 308 240 325 q 176 266 189 290 q 163 208 163 242 q 183 140 163 169 q 237 94 203 110 q 314 78 271 78 q 421 98 371 78 q 510 153 471 118 q 574 233 550 189 l 603 167 q 526 74 572 114 q 426 10 481 33 q 310 -14 371 -14 m 179 901 l 179 982 l 565 982 l 565 901 l 179 901 z "},"ą":{"ha":743,"x_min":63,"x_max":685,"o":"m 560 0 l 560 486 q 510 600 560 557 q 378 643 460 643 q 254 615 310 643 q 156 532 199 588 l 86 601 q 223 707 149 672 q 385 742 297 742 q 529 714 468 742 q 623 633 590 686 q 656 506 656 581 l 656 0 l 560 0 m 310 -14 q 183 14 239 -14 q 95 91 128 42 q 63 207 63 140 q 83 303 63 261 q 142 372 103 344 q 240 415 181 400 q 376 429 300 429 l 607 429 l 599 342 l 363 342 q 277 333 314 342 q 215 308 240 325 q 176 266 189 290 q 163 208 163 242 q 183 140 163 169 q 237 94 203 110 q 314 78 271 78 q 421 98 371 78 q 510 153 471 118 q 574 233 550 189 l 603 167 q 526 74 572 114 q 426 10 481 33 q 310 -14 371 -14 m 544 -293 q 472 -274 504 -293 q 419 -222 439 -254 q 400 -151 400 -190 q 415 -84 400 -114 q 460 -29 431 -54 q 531 14 490 -4 q 622 46 572 32 l 656 0 q 574 -31 611 -10 q 515 -80 536 -51 q 493 -142 493 -108 q 512 -192 493 -172 q 558 -211 531 -211 q 597 -199 581 -211 q 625 -168 614 -187 l 683 -211 q 633 -269 669 -244 q 544 -293 597 -293 z "},"å":{"ha":743,"x_min":63,"x_max":656,"o":"m 560 0 l 560 486 q 510 600 560 557 q 378 643 460 643 q 254 615 310 643 q 156 532 199 588 l 86 601 q 223 707 149 672 q 385 742 297 742 q 529 714 468 742 q 623 633 590 686 q 656 506 656 581 l 656 0 l 560 0 m 310 -14 q 183 14 239 -14 q 95 91 128 42 q 63 207 63 140 q 83 303 63 261 q 142 372 103 344 q 240 415 181 400 q 376 429 300 429 l 607 429 l 599 342 l 363 342 q 277 333 314 342 q 215 308 240 325 q 176 266 189 290 q 163 208 163 242 q 183 140 163 169 q 237 94 203 110 q 314 78 271 78 q 421 98 371 78 q 510 153 471 118 q 574 233 550 189 l 603 167 q 526 74 572 114 q 426 10 481 33 q 310 -14 371 -14 m 371 835 q 301 853 333 835 q 248 904 268 872 q 228 972 228 936 q 247 1042 228 1011 q 300 1093 267 1074 q 371 1113 333 1113 q 444 1093 411 1113 q 496 1042 476 1074 q 515 972 515 1011 q 495 904 515 936 q 442 853 475 872 q 371 835 410 835 m 371 897 q 427 920 404 897 q 450 972 450 943 q 427 1028 450 1007 q 371 1049 404 1049 q 315 1027 338 1049 q 293 972 293 1006 q 316 920 293 943 q 371 897 339 897 z "},"ǻ":{"ha":743,"x_min":63,"x_max":656,"o":"m 560 0 l 560 486 q 510 600 560 557 q 378 643 460 643 q 254 615 310 643 q 156 532 199 588 l 86 601 q 223 707 149 672 q 385 742 297 742 q 529 714 468 742 q 623 633 590 686 q 656 506 656 581 l 656 0 l 560 0 m 310 -14 q 183 14 239 -14 q 95 91 128 42 q 63 207 63 140 q 83 303 63 261 q 142 372 103 344 q 240 415 181 400 q 376 429 300 429 l 607 429 l 599 342 l 363 342 q 277 333 314 342 q 215 308 240 325 q 176 266 189 290 q 163 208 163 242 q 183 140 163 169 q 237 94 203 110 q 314 78 271 78 q 421 98 371 78 q 510 153 471 118 q 574 233 550 189 l 603 167 q 526 74 572 114 q 426 10 481 33 q 310 -14 371 -14 m 371 835 q 301 853 333 835 q 248 904 268 872 q 228 972 228 936 q 247 1042 228 1011 q 300 1093 267 1074 q 371 1113 333 1113 q 444 1093 411 1113 q 496 1042 476 1074 q 515 972 515 1011 q 495 904 515 936 q 442 853 475 872 q 371 835 410 835 m 371 897 q 427 920 404 897 q 450 972 450 943 q 427 1028 450 1007 q 371 1049 404 1049 q 315 1027 338 1049 q 293 972 293 1006 q 316 920 293 943 q 371 897 339 897 m 285 1150 l 249 1204 l 446 1371 l 513 1285 l 285 1150 z "},"ã":{"ha":743,"x_min":63,"x_max":656,"o":"m 560 0 l 560 486 q 510 600 560 557 q 378 643 460 643 q 254 615 310 643 q 156 532 199 588 l 86 601 q 223 707 149 672 q 385 742 297 742 q 529 714 468 742 q 623 633 590 686 q 656 506 656 581 l 656 0 l 560 0 m 310 -14 q 183 14 239 -14 q 95 91 128 42 q 63 207 63 140 q 83 303 63 261 q 142 372 103 344 q 240 415 181 400 q 376 429 300 429 l 607 429 l 599 342 l 363 342 q 277 333 314 342 q 215 308 240 325 q 176 266 189 290 q 163 208 163 242 q 183 140 163 169 q 237 94 203 110 q 314 78 271 78 q 421 98 371 78 q 510 153 471 118 q 574 233 550 189 l 603 167 q 526 74 572 114 q 426 10 481 33 q 310 -14 371 -14 m 450 863 q 399 876 421 863 q 357 906 378 889 q 314 937 328 929 q 289 944 300 944 q 255 924 271 944 q 236 865 239 904 l 164 876 q 201 979 165 936 q 294 1022 238 1022 q 344 1009 322 1022 q 388 978 365 996 q 424 950 408 961 q 454 939 440 939 q 489 958 475 939 q 507 1018 503 978 l 579 1008 q 562 935 579 968 q 516 882 544 901 q 450 863 488 863 z "},"æ":{"ha":1279,"x_min":63,"x_max":1226,"o":"m 310 -14 q 184 14 240 -14 q 95 91 128 42 q 63 207 63 140 q 83 303 63 261 q 142 372 103 344 q 241 415 182 400 q 376 429 300 429 l 1139 429 l 1119 406 l 1119 439 q 1087 544 1117 499 q 1009 617 1057 590 q 904 643 961 643 q 771 610 826 643 q 685 515 715 576 q 656 367 656 453 q 692 220 656 285 q 794 119 729 156 q 939 83 858 83 q 1050 103 999 83 q 1153 171 1101 124 l 1206 94 q 1127 38 1172 63 q 1031 0 1082 14 q 929 -14 981 -14 q 736 33 819 -14 q 606 165 653 81 q 560 360 560 250 q 585 511 560 442 q 657 632 611 581 q 766 712 703 683 q 901 740 829 740 q 1069 697 996 740 q 1185 576 1143 653 q 1226 396 1226 499 l 1225 342 l 363 342 q 277 333 314 342 q 215 308 240 325 q 176 266 189 290 q 163 208 163 242 q 183 140 163 169 q 238 94 203 110 q 314 78 272 78 q 424 99 372 78 q 515 156 475 119 q 579 238 556 192 l 626 167 q 544 73 593 114 q 435 9 494 32 q 310 -14 376 -14 m 560 367 l 560 500 q 546 558 560 532 q 508 603 532 583 q 450 633 483 622 q 378 643 417 643 q 254 615 310 643 q 154 532 199 588 l 85 600 q 219 706 144 669 q 379 742 293 742 q 494 728 443 742 q 581 686 544 714 q 637 619 618 658 q 656 528 656 579 l 656 371 l 560 367 z "},"ǽ":{"ha":1279,"x_min":63,"x_max":1226,"o":"m 310 -14 q 184 14 240 -14 q 95 91 128 42 q 63 207 63 140 q 83 303 63 261 q 142 372 103 344 q 241 415 182 400 q 376 429 300 429 l 1139 429 l 1119 406 l 1119 439 q 1087 544 1117 499 q 1009 617 1057 590 q 904 643 961 643 q 771 610 826 643 q 685 515 715 576 q 656 367 656 453 q 692 220 656 285 q 794 119 729 156 q 939 83 858 83 q 1050 103 999 83 q 1153 171 1101 124 l 1206 94 q 1127 38 1172 63 q 1031 0 1082 14 q 929 -14 981 -14 q 736 33 819 -14 q 606 165 653 81 q 560 360 560 250 q 585 511 560 442 q 657 632 611 581 q 766 712 703 683 q 901 740 829 740 q 1069 697 996 740 q 1185 576 1143 653 q 1226 396 1226 499 l 1225 342 l 363 342 q 277 333 314 342 q 215 308 240 325 q 176 266 189 290 q 163 208 163 242 q 183 140 163 169 q 238 94 203 110 q 314 78 272 78 q 424 99 372 78 q 515 156 475 119 q 579 238 556 192 l 626 167 q 544 73 593 114 q 435 9 494 32 q 310 -14 376 -14 m 560 367 l 560 500 q 546 558 560 532 q 508 603 532 583 q 450 633 483 622 q 378 643 417 643 q 254 615 310 643 q 154 532 199 588 l 85 600 q 219 706 144 669 q 379 742 293 742 q 494 728 443 742 q 581 686 544 714 q 637 619 618 658 q 656 528 656 579 l 656 371 l 560 367 m 558 844 l 522 899 l 719 1065 l 786 979 l 558 844 z "},"b":{"ha":863,"x_min":99,"x_max":807,"o":"m 467 -14 q 368 3 417 -14 q 280 48 319 19 q 213 113 240 76 q 178 188 186 149 l 204 199 l 204 3 l 99 3 l 99 1028 l 204 1028 l 204 536 l 186 543 q 220 619 194 583 q 284 682 246 654 q 368 726 322 710 q 463 742 414 742 q 640 693 563 742 q 762 560 717 644 q 807 365 807 475 q 762 171 807 257 q 640 35 717 85 q 467 -14 563 -14 m 450 83 q 581 120 524 83 q 672 221 639 157 q 706 365 706 285 q 673 509 706 446 q 583 608 640 572 q 450 644 525 644 q 322 608 378 644 q 233 509 265 572 q 200 365 200 446 q 233 220 200 283 q 322 120 265 157 q 450 83 378 83 z "},"c":{"ha":739,"x_min":56,"x_max":707,"o":"m 415 -14 q 230 36 311 -14 q 102 172 149 86 q 56 365 56 257 q 102 558 56 472 q 230 692 149 643 q 415 742 311 742 q 586 705 510 742 q 707 603 663 668 l 646 531 q 585 590 621 564 q 507 630 549 615 q 424 644 465 644 q 287 608 347 644 q 192 509 226 572 q 157 365 157 446 q 192 221 157 285 q 289 119 228 157 q 425 82 350 82 q 507 95 468 82 q 581 133 546 108 q 646 194 615 158 l 706 121 q 581 24 660 61 q 415 -14 503 -14 z "},"ć":{"ha":739,"x_min":56,"x_max":707,"o":"m 415 -14 q 230 36 311 -14 q 102 172 149 86 q 56 365 56 257 q 102 558 56 472 q 230 692 149 643 q 415 742 311 742 q 586 705 510 742 q 707 603 663 668 l 646 531 q 585 590 621 564 q 507 630 549 615 q 424 644 465 644 q 287 608 347 644 q 192 509 226 572 q 157 365 157 446 q 192 221 157 285 q 289 119 228 157 q 425 82 350 82 q 507 95 468 82 q 581 133 546 108 q 646 194 615 158 l 706 121 q 581 24 660 61 q 415 -14 503 -14 m 329 844 l 293 899 l 490 1065 l 557 979 l 329 844 z "},"č":{"ha":739,"x_min":56,"x_max":707,"o":"m 415 -14 q 230 36 311 -14 q 102 172 149 86 q 56 365 56 257 q 102 558 56 472 q 230 692 149 643 q 415 742 311 742 q 586 705 510 742 q 707 603 663 668 l 646 531 q 585 590 621 564 q 507 630 549 615 q 424 644 465 644 q 287 608 347 644 q 192 509 226 572 q 157 365 157 446 q 192 221 157 285 q 289 119 228 157 q 425 82 350 82 q 507 95 468 82 q 581 133 546 108 q 646 194 615 158 l 706 121 q 581 24 660 61 q 415 -14 503 -14 m 369 850 l 222 996 l 263 1033 l 432 924 l 399 924 l 568 1033 l 608 996 l 461 850 l 369 850 z "},"ç":{"ha":739,"x_min":56,"x_max":707,"o":"m 415 -14 q 230 36 311 -14 q 102 172 149 86 q 56 365 56 257 q 102 558 56 472 q 230 692 149 643 q 415 742 311 742 q 586 705 510 742 q 707 603 663 668 l 646 531 q 585 590 621 564 q 507 630 549 615 q 424 644 465 644 q 287 608 347 644 q 192 509 226 572 q 157 365 157 446 q 192 221 157 285 q 289 119 228 157 q 425 82 350 82 q 507 95 468 82 q 581 133 546 108 q 646 194 615 158 l 706 121 q 581 24 660 61 q 415 -14 503 -14 m 294 -331 l 285 -275 q 360 -262 322 -272 q 424 -233 397 -251 q 450 -192 450 -215 q 426 -156 450 -168 q 373 -139 403 -144 q 321 -133 343 -133 l 303 -119 l 393 22 l 458 22 l 396 -75 q 503 -117 468 -86 q 538 -193 538 -147 q 515 -255 538 -229 q 457 -297 493 -281 q 378 -322 421 -314 q 294 -331 335 -331 z "},"ḉ":{"ha":739,"x_min":56,"x_max":707,"o":"m 415 -14 q 230 36 311 -14 q 102 172 149 86 q 56 365 56 257 q 102 558 56 472 q 230 692 149 643 q 415 742 311 742 q 586 705 510 742 q 707 603 663 668 l 646 531 q 585 590 621 564 q 507 630 549 615 q 424 644 465 644 q 287 608 347 644 q 192 509 226 572 q 157 365 157 446 q 192 221 157 285 q 289 119 228 157 q 425 82 350 82 q 507 95 468 82 q 581 133 546 108 q 646 194 615 158 l 706 121 q 581 24 660 61 q 415 -14 503 -14 m 294 -331 l 285 -275 q 360 -262 322 -272 q 424 -233 397 -251 q 450 -192 450 -215 q 426 -156 450 -168 q 373 -139 403 -144 q 321 -133 343 -133 l 303 -119 l 393 22 l 458 22 l 396 -75 q 503 -117 468 -86 q 538 -193 538 -147 q 515 -255 538 -229 q 457 -297 493 -281 q 378 -322 421 -314 q 294 -331 335 -331 m 329 844 l 293 899 l 490 1065 l 557 979 l 329 844 z "},"ĉ":{"ha":739,"x_min":56,"x_max":707,"o":"m 415 -14 q 230 36 311 -14 q 102 172 149 86 q 56 365 56 257 q 102 558 56 472 q 230 692 149 643 q 415 742 311 742 q 586 705 510 742 q 707 603 663 668 l 646 531 q 585 590 621 564 q 507 630 549 615 q 424 644 465 644 q 287 608 347 644 q 192 509 226 572 q 157 365 157 446 q 192 221 157 285 q 289 119 228 157 q 425 82 350 82 q 507 95 468 82 q 581 133 546 108 q 646 194 615 158 l 706 121 q 581 24 660 61 q 415 -14 503 -14 m 254 850 l 213 886 l 369 1033 l 461 1033 l 618 886 l 576 850 l 399 960 l 432 960 l 254 850 z "},"ċ":{"ha":739,"x_min":56,"x_max":707,"o":"m 415 -14 q 230 36 311 -14 q 102 172 149 86 q 56 365 56 257 q 102 558 56 472 q 230 692 149 643 q 415 742 311 742 q 586 705 510 742 q 707 603 663 668 l 646 531 q 585 590 621 564 q 507 630 549 615 q 424 644 465 644 q 287 608 347 644 q 192 509 226 572 q 157 365 157 446 q 192 221 157 285 q 289 119 228 157 q 425 82 350 82 q 507 95 468 82 q 581 133 546 108 q 646 194 615 158 l 706 121 q 581 24 660 61 q 415 -14 503 -14 m 415 900 q 358 920 378 900 q 339 974 339 940 q 359 1027 339 1007 q 415 1047 379 1047 q 472 1028 453 1047 q 492 974 492 1008 q 472 921 492 942 q 415 900 451 900 z "},"d":{"ha":867,"x_min":56,"x_max":769,"o":"m 406 -14 q 226 35 304 -14 q 101 169 147 85 q 56 363 56 254 q 101 558 56 472 q 226 692 147 643 q 401 742 304 742 q 507 724 456 742 q 599 674 558 706 q 665 604 640 643 q 693 524 690 565 l 664 524 l 664 1028 l 769 1028 l 769 0 l 664 0 l 664 196 l 686 197 q 657 118 682 156 q 594 51 632 81 q 507 3 556 21 q 406 -14 458 -14 m 418 79 q 547 116 490 79 q 635 217 603 153 q 667 364 667 281 q 635 511 667 447 q 547 613 603 575 q 417 650 490 650 q 285 613 343 650 q 195 510 228 575 q 163 363 163 446 q 195 217 163 282 q 285 116 228 153 q 418 79 343 79 z "},"ð":{"ha":799,"x_min":56,"x_max":743,"o":"m 399 -11 q 224 38 301 -11 q 101 173 146 88 q 56 364 56 258 q 82 509 56 442 q 154 626 108 576 q 261 705 200 676 q 390 733 322 733 q 521 701 461 733 q 619 615 581 669 q 669 493 658 561 l 619 522 q 592 672 617 604 q 519 793 567 740 q 405 884 472 846 q 250 946 338 922 l 293 1028 q 445 969 375 1008 q 570 874 515 931 q 664 742 625 817 q 723 577 703 668 q 743 381 743 486 q 699 178 743 267 q 576 39 654 89 q 399 -11 499 -11 m 399 88 q 524 124 469 88 q 610 222 579 160 q 642 364 642 285 q 610 502 642 442 q 524 599 579 563 q 399 635 469 635 q 275 599 331 635 q 188 503 219 564 q 156 364 156 442 q 188 222 156 285 q 275 124 219 160 q 399 88 331 88 m 221 754 l 207 825 l 435 885 l 492 904 l 678 949 l 697 878 l 547 842 l 503 825 l 221 754 z "},"ď":{"ha":869,"x_min":56,"x_max":1003,"o":"m 406 -14 q 226 35 304 -14 q 101 169 147 85 q 56 363 56 254 q 101 558 56 472 q 226 692 147 643 q 401 742 304 742 q 507 724 456 742 q 599 674 558 706 q 665 604 640 643 q 693 524 690 565 l 664 524 l 664 1028 l 769 1028 l 769 0 l 664 0 l 664 196 l 686 197 q 657 118 682 156 q 594 51 632 81 q 507 3 556 21 q 406 -14 458 -14 m 418 79 q 547 116 490 79 q 635 217 603 153 q 667 364 667 281 q 635 511 667 447 q 547 613 603 575 q 417 650 490 650 q 285 613 343 650 q 195 510 228 575 q 163 363 163 446 q 195 217 163 282 q 285 116 228 153 q 418 79 343 79 m 867 782 l 838 826 q 869 844 854 832 q 894 869 885 856 q 904 896 904 883 q 899 912 904 906 q 878 922 894 918 q 849 941 857 929 q 842 971 842 953 q 862 1012 842 996 q 914 1028 882 1028 q 977 1002 951 1028 q 1003 935 1003 976 q 994 890 1003 911 q 967 849 985 868 q 924 813 950 829 q 867 782 899 796 z "},"đ":{"ha":867,"x_min":56,"x_max":881,"o":"m 508 833 l 508 926 l 881 926 l 881 833 l 508 833 m 406 -14 q 226 35 304 -14 q 101 169 147 85 q 56 363 56 254 q 101 558 56 472 q 226 692 147 643 q 401 742 304 742 q 507 724 456 742 q 599 674 558 706 q 665 604 640 643 q 693 524 690 565 l 664 524 l 664 1028 l 769 1028 l 769 0 l 664 0 l 664 196 l 686 197 q 657 118 682 156 q 594 51 632 81 q 507 3 556 21 q 406 -14 458 -14 m 418 79 q 547 116 490 79 q 635 217 603 153 q 667 364 667 281 q 635 511 667 447 q 547 613 603 575 q 417 650 490 650 q 285 613 343 650 q 195 510 228 575 q 163 363 163 446 q 195 217 163 282 q 285 116 228 153 q 418 79 343 79 z "},"ḍ":{"ha":867,"x_min":56,"x_max":769,"o":"m 406 -14 q 226 35 304 -14 q 101 169 147 85 q 56 363 56 254 q 101 558 56 472 q 226 692 147 643 q 401 742 304 742 q 507 724 456 742 q 599 674 558 706 q 665 604 640 643 q 693 524 690 565 l 664 524 l 664 1028 l 769 1028 l 769 0 l 664 0 l 664 196 l 686 197 q 657 118 682 156 q 594 51 632 81 q 507 3 556 21 q 406 -14 458 -14 m 418 79 q 547 116 490 79 q 635 217 603 153 q 667 364 667 281 q 635 511 667 447 q 547 613 603 575 q 417 650 490 650 q 285 613 343 650 q 195 510 228 575 q 163 363 163 446 q 195 217 163 282 q 285 116 228 153 q 418 79 343 79 m 433 -256 q 376 -235 396 -256 q 357 -181 357 -215 q 377 -128 357 -149 q 433 -108 397 -108 q 490 -128 471 -108 q 510 -182 510 -147 q 490 -235 510 -214 q 433 -256 469 -256 z "},"ḏ":{"ha":867,"x_min":56,"x_max":769,"o":"m 406 -14 q 226 35 304 -14 q 101 169 147 85 q 56 363 56 254 q 101 558 56 472 q 226 692 147 643 q 401 742 304 742 q 507 724 456 742 q 599 674 558 706 q 665 604 640 643 q 693 524 690 565 l 664 524 l 664 1028 l 769 1028 l 769 0 l 664 0 l 664 196 l 686 197 q 657 118 682 156 q 594 51 632 81 q 507 3 556 21 q 406 -14 458 -14 m 418 79 q 547 116 490 79 q 635 217 603 153 q 667 364 667 281 q 635 511 667 447 q 547 613 603 575 q 417 650 490 650 q 285 613 343 650 q 195 510 228 575 q 163 363 163 446 q 195 217 163 282 q 285 116 228 153 q 418 79 343 79 m 240 -221 l 240 -142 l 625 -142 l 625 -221 l 240 -221 z "},"ǆ":{"ha":1514,"x_min":56,"x_max":1456,"o":"m 406 -14 q 226 35 304 -14 q 101 169 147 85 q 56 363 56 254 q 101 558 56 472 q 226 692 147 643 q 401 742 304 742 q 507 724 456 742 q 599 674 558 706 q 665 604 640 643 q 693 524 690 565 l 664 524 l 664 1028 l 769 1028 l 769 0 l 664 0 l 664 196 l 686 197 q 657 118 682 156 q 594 51 632 81 q 507 3 556 21 q 406 -14 458 -14 m 418 79 q 547 116 490 79 q 635 217 603 153 q 667 364 667 281 q 635 511 667 447 q 547 613 603 575 q 417 650 490 650 q 285 613 343 650 q 195 510 228 575 q 163 363 163 446 q 195 217 163 282 q 285 116 228 153 q 418 79 343 79 m 929 0 l 929 92 l 1332 657 l 1331 636 l 929 636 l 929 729 l 1440 729 l 1440 639 l 1044 82 l 1039 93 l 1456 93 l 1456 0 l 929 0 m 1144 850 l 997 996 l 1038 1033 l 1207 924 l 1174 924 l 1343 1033 l 1383 996 l 1236 850 l 1144 850 z "},"e":{"ha":794,"x_min":56,"x_max":744,"o":"m 431 -14 q 236 34 321 -14 q 103 167 151 82 q 56 360 56 251 q 83 515 56 444 q 158 635 110 585 q 272 714 206 686 q 418 742 339 742 q 548 717 488 742 q 653 645 608 692 q 721 535 697 599 q 742 396 744 472 l 740 343 l 132 343 l 110 429 l 653 429 l 633 406 l 635 440 q 601 546 632 500 q 523 618 571 592 q 418 644 475 644 q 279 610 338 644 q 191 515 221 576 q 160 367 161 453 q 196 217 161 281 q 294 119 231 154 q 440 83 357 83 q 551 103 500 83 q 656 171 603 124 l 708 96 q 630 38 675 63 q 533 0 585 14 q 431 -14 482 -14 z "},"é":{"ha":794,"x_min":56,"x_max":744,"o":"m 431 -14 q 236 34 321 -14 q 103 167 151 82 q 56 360 56 251 q 83 515 56 444 q 158 635 110 585 q 272 714 206 686 q 418 742 339 742 q 548 717 488 742 q 653 645 608 692 q 721 535 697 599 q 742 396 744 472 l 740 343 l 132 343 l 110 429 l 653 429 l 633 406 l 635 440 q 601 546 632 500 q 523 618 571 592 q 418 644 475 644 q 279 610 338 644 q 191 515 221 576 q 160 367 161 453 q 196 217 161 281 q 294 119 231 154 q 440 83 357 83 q 551 103 500 83 q 656 171 603 124 l 708 96 q 630 38 675 63 q 533 0 585 14 q 431 -14 482 -14 m 331 844 l 294 899 l 492 1065 l 558 979 l 331 844 z "},"ĕ":{"ha":794,"x_min":56,"x_max":744,"o":"m 431 -14 q 236 34 321 -14 q 103 167 151 82 q 56 360 56 251 q 83 515 56 444 q 158 635 110 585 q 272 714 206 686 q 418 742 339 742 q 548 717 488 742 q 653 645 608 692 q 721 535 697 599 q 742 396 744 472 l 740 343 l 132 343 l 110 429 l 653 429 l 633 406 l 635 440 q 601 546 632 500 q 523 618 571 592 q 418 644 475 644 q 279 610 338 644 q 191 515 221 576 q 160 367 161 453 q 196 217 161 281 q 294 119 231 154 q 440 83 357 83 q 551 103 500 83 q 656 171 603 124 l 708 96 q 630 38 675 63 q 533 0 585 14 q 431 -14 482 -14 m 418 829 q 280 883 335 829 q 207 1028 225 936 l 286 1039 q 338 947 303 981 q 418 914 372 914 q 499 947 464 914 q 550 1039 535 981 l 629 1028 q 556 883 611 936 q 418 829 500 829 z "},"ě":{"ha":794,"x_min":56,"x_max":744,"o":"m 431 -14 q 236 34 321 -14 q 103 167 151 82 q 56 360 56 251 q 83 515 56 444 q 158 635 110 585 q 272 714 206 686 q 418 742 339 742 q 548 717 488 742 q 653 645 608 692 q 721 535 697 599 q 742 396 744 472 l 740 343 l 132 343 l 110 429 l 653 429 l 633 406 l 635 440 q 601 546 632 500 q 523 618 571 592 q 418 644 475 644 q 279 610 338 644 q 191 515 221 576 q 160 367 161 453 q 196 217 161 281 q 294 119 231 154 q 440 83 357 83 q 551 103 500 83 q 656 171 603 124 l 708 96 q 630 38 675 63 q 533 0 585 14 q 431 -14 482 -14 m 372 850 l 225 996 l 265 1033 l 435 924 l 401 924 l 571 1033 l 611 996 l 464 850 l 372 850 z "},"ḝ":{"ha":794,"x_min":56,"x_max":744,"o":"m 431 -14 q 236 34 321 -14 q 103 167 151 82 q 56 360 56 251 q 83 515 56 444 q 158 635 110 585 q 272 714 206 686 q 418 742 339 742 q 548 717 488 742 q 653 645 608 692 q 721 535 697 599 q 742 396 744 472 l 740 343 l 132 343 l 110 429 l 653 429 l 633 406 l 635 440 q 601 546 632 500 q 523 618 571 592 q 418 644 475 644 q 279 610 338 644 q 191 515 221 576 q 160 367 161 453 q 196 217 161 281 q 294 119 231 154 q 440 83 357 83 q 551 103 500 83 q 656 171 603 124 l 708 96 q 630 38 675 63 q 533 0 585 14 q 431 -14 482 -14 m 310 -331 l 300 -275 q 375 -262 338 -272 q 439 -233 413 -251 q 465 -192 465 -215 q 442 -156 465 -168 q 388 -139 418 -144 q 336 -133 358 -133 l 318 -119 l 408 22 l 474 22 l 411 -75 q 518 -117 483 -86 q 553 -193 553 -147 q 531 -255 553 -229 q 472 -297 508 -281 q 393 -322 436 -314 q 310 -331 350 -331 m 418 829 q 280 883 335 829 q 207 1028 225 936 l 286 1039 q 338 947 303 981 q 418 914 372 914 q 499 947 464 914 q 550 1039 535 981 l 629 1028 q 556 883 611 936 q 418 829 500 829 z "},"ê":{"ha":794,"x_min":56,"x_max":744,"o":"m 431 -14 q 236 34 321 -14 q 103 167 151 82 q 56 360 56 251 q 83 515 56 444 q 158 635 110 585 q 272 714 206 686 q 418 742 339 742 q 548 717 488 742 q 653 645 608 692 q 721 535 697 599 q 742 396 744 472 l 740 343 l 132 343 l 110 429 l 653 429 l 633 406 l 635 440 q 601 546 632 500 q 523 618 571 592 q 418 644 475 644 q 279 610 338 644 q 191 515 221 576 q 160 367 161 453 q 196 217 161 281 q 294 119 231 154 q 440 83 357 83 q 551 103 500 83 q 656 171 603 124 l 708 96 q 630 38 675 63 q 533 0 585 14 q 431 -14 482 -14 m 257 850 l 215 886 l 372 1033 l 464 1033 l 621 886 l 579 850 l 401 960 l 435 960 l 257 850 z "},"ế":{"ha":794,"x_min":56,"x_max":774,"o":"m 431 -14 q 236 34 321 -14 q 103 167 151 82 q 56 360 56 251 q 83 515 56 444 q 158 635 110 585 q 272 714 206 686 q 418 742 339 742 q 548 717 488 742 q 653 645 608 692 q 721 535 697 599 q 742 396 744 472 l 740 343 l 132 343 l 110 429 l 653 429 l 633 406 l 635 440 q 601 546 632 500 q 523 618 571 592 q 418 644 475 644 q 279 610 338 644 q 191 515 221 576 q 160 367 161 453 q 196 217 161 281 q 294 119 231 154 q 440 83 357 83 q 551 103 500 83 q 656 171 603 124 l 708 96 q 630 38 675 63 q 533 0 585 14 q 431 -14 482 -14 m 256 850 l 215 886 l 372 1033 l 464 1033 l 619 886 l 579 850 l 401 960 l 436 960 l 256 850 m 625 1025 l 571 1064 l 683 1250 l 774 1185 l 625 1025 z "},"ệ":{"ha":794,"x_min":56,"x_max":744,"o":"m 431 -14 q 236 34 321 -14 q 103 167 151 82 q 56 360 56 251 q 83 515 56 444 q 158 635 110 585 q 272 714 206 686 q 418 742 339 742 q 548 717 488 742 q 653 645 608 692 q 721 535 697 599 q 742 396 744 472 l 740 343 l 132 343 l 110 429 l 653 429 l 633 406 l 635 440 q 601 546 632 500 q 523 618 571 592 q 418 644 475 644 q 279 610 338 644 q 191 515 221 576 q 160 367 161 453 q 196 217 161 281 q 294 119 231 154 q 440 83 357 83 q 551 103 500 83 q 656 171 603 124 l 708 96 q 630 38 675 63 q 533 0 585 14 q 431 -14 482 -14 m 431 -256 q 374 -235 393 -256 q 354 -181 354 -215 q 374 -128 354 -149 q 431 -108 394 -108 q 488 -128 468 -108 q 507 -182 507 -147 q 487 -235 507 -214 q 431 -256 467 -256 m 257 850 l 215 886 l 372 1033 l 464 1033 l 621 886 l 579 850 l 401 960 l 435 960 l 257 850 z "},"ề":{"ha":794,"x_min":56,"x_max":744,"o":"m 431 -14 q 236 34 321 -14 q 103 167 151 82 q 56 360 56 251 q 83 515 56 444 q 158 635 110 585 q 272 714 206 686 q 418 742 339 742 q 548 717 488 742 q 653 645 608 692 q 721 535 697 599 q 742 396 744 472 l 740 343 l 132 343 l 110 429 l 653 429 l 633 406 l 635 440 q 601 546 632 500 q 523 618 571 592 q 418 644 475 644 q 279 610 338 644 q 191 515 221 576 q 160 367 161 453 q 196 217 161 281 q 294 119 231 154 q 440 83 357 83 q 551 103 500 83 q 656 171 603 124 l 708 96 q 630 38 675 63 q 533 0 585 14 q 431 -14 482 -14 m 256 850 l 215 886 l 372 1033 l 464 1033 l 619 886 l 579 850 l 401 960 l 435 960 l 256 850 m 618 1022 l 465 1183 l 556 1249 l 668 1063 l 618 1022 z "},"ể":{"ha":794,"x_min":56,"x_max":758,"o":"m 431 -14 q 236 34 321 -14 q 103 167 151 82 q 56 360 56 251 q 83 515 56 444 q 158 635 110 585 q 272 714 206 686 q 418 742 339 742 q 548 717 488 742 q 653 645 608 692 q 721 535 697 599 q 742 396 744 472 l 740 343 l 132 343 l 110 429 l 653 429 l 633 406 l 635 440 q 601 546 632 500 q 523 618 571 592 q 418 644 475 644 q 279 610 338 644 q 191 515 221 576 q 160 367 161 453 q 196 217 161 281 q 294 119 231 154 q 440 83 357 83 q 551 103 500 83 q 656 171 603 124 l 708 96 q 630 38 675 63 q 533 0 585 14 q 431 -14 482 -14 m 256 850 l 214 886 l 371 1033 l 463 1033 l 619 886 l 578 850 l 400 960 l 435 960 l 256 850 m 606 1015 q 594 1037 599 1026 q 589 1060 589 1047 q 599 1088 589 1074 q 631 1117 610 1103 q 664 1140 653 1131 q 675 1164 675 1150 q 659 1186 675 1179 q 619 1193 643 1193 q 571 1189 597 1193 q 521 1172 544 1185 l 503 1239 q 561 1260 531 1253 q 619 1268 592 1268 q 722 1240 686 1268 q 758 1172 758 1213 q 741 1119 758 1139 q 704 1089 724 1100 q 670 1069 682 1079 q 658 1047 658 1060 q 660 1038 658 1042 q 663 1029 661 1033 l 606 1015 z "},"ễ":{"ha":794,"x_min":56,"x_max":744,"o":"m 431 -14 q 236 34 321 -14 q 103 167 151 82 q 56 360 56 251 q 83 515 56 444 q 158 635 110 585 q 272 714 206 686 q 418 742 339 742 q 548 717 488 742 q 653 645 608 692 q 721 535 697 599 q 742 396 744 472 l 740 343 l 132 343 l 110 429 l 653 429 l 633 406 l 635 440 q 601 546 632 500 q 523 618 571 592 q 418 644 475 644 q 279 610 338 644 q 191 515 221 576 q 160 367 161 453 q 196 217 161 281 q 294 119 231 154 q 440 83 357 83 q 551 103 500 83 q 656 171 603 124 l 708 96 q 630 38 675 63 q 533 0 585 14 q 431 -14 482 -14 m 254 850 l 213 886 l 369 1033 l 463 1033 l 617 886 l 576 850 l 399 960 l 433 960 l 254 850 m 518 1117 q 456 1130 482 1117 q 406 1153 429 1143 q 371 1171 388 1163 q 335 1179 354 1179 q 301 1165 315 1179 q 281 1126 286 1151 l 207 1138 q 245 1225 211 1189 q 325 1261 279 1261 q 379 1249 356 1261 q 426 1224 403 1236 q 464 1206 446 1214 q 500 1199 482 1199 q 534 1211 519 1199 q 556 1253 549 1224 l 628 1242 q 610 1178 625 1207 q 573 1133 596 1150 q 518 1117 550 1117 z "},"ȅ":{"ha":794,"x_min":56,"x_max":744,"o":"m 431 -14 q 236 34 321 -14 q 103 167 151 82 q 56 360 56 251 q 83 515 56 444 q 158 635 110 585 q 272 714 206 686 q 418 742 339 742 q 548 717 488 742 q 653 645 608 692 q 721 535 697 599 q 742 396 744 472 l 740 343 l 132 343 l 110 429 l 653 429 l 633 406 l 635 440 q 601 546 632 500 q 523 618 571 592 q 418 644 475 644 q 279 610 338 644 q 191 515 221 576 q 160 367 161 453 q 196 217 161 281 q 294 119 231 154 q 440 83 357 83 q 551 103 500 83 q 656 171 603 124 l 708 96 q 630 38 675 63 q 533 0 585 14 q 431 -14 482 -14 m 547 844 l 319 979 l 386 1065 l 583 899 l 547 844 m 307 844 l 79 979 l 146 1065 l 343 899 l 307 844 z "},"ë":{"ha":794,"x_min":56,"x_max":744,"o":"m 431 -14 q 236 34 321 -14 q 103 167 151 82 q 56 360 56 251 q 83 515 56 444 q 158 635 110 585 q 272 714 206 686 q 418 742 339 742 q 548 717 488 742 q 653 645 608 692 q 721 535 697 599 q 742 396 744 472 l 740 343 l 132 343 l 110 429 l 653 429 l 633 406 l 635 440 q 601 546 632 500 q 523 618 571 592 q 418 644 475 644 q 279 610 338 644 q 191 515 221 576 q 160 367 161 453 q 196 217 161 281 q 294 119 231 154 q 440 83 357 83 q 551 103 500 83 q 656 171 603 124 l 708 96 q 630 38 675 63 q 533 0 585 14 q 431 -14 482 -14 m 546 901 q 489 921 508 901 q 469 975 469 940 q 489 1028 469 1007 q 546 1049 508 1049 q 602 1029 582 1049 q 622 975 622 1010 q 601 922 622 942 q 546 901 581 901 m 290 901 q 234 921 254 901 q 214 975 214 940 q 235 1028 214 1007 q 290 1049 256 1049 q 347 1029 326 1049 q 367 975 367 1010 q 347 922 367 942 q 290 901 328 901 z "},"ė":{"ha":794,"x_min":56,"x_max":744,"o":"m 431 -14 q 236 34 321 -14 q 103 167 151 82 q 56 360 56 251 q 83 515 56 444 q 158 635 110 585 q 272 714 206 686 q 418 742 339 742 q 548 717 488 742 q 653 645 608 692 q 721 535 697 599 q 742 396 744 472 l 740 343 l 132 343 l 110 429 l 653 429 l 633 406 l 635 440 q 601 546 632 500 q 523 618 571 592 q 418 644 475 644 q 279 610 338 644 q 191 515 221 576 q 160 367 161 453 q 196 217 161 281 q 294 119 231 154 q 440 83 357 83 q 551 103 500 83 q 656 171 603 124 l 708 96 q 630 38 675 63 q 533 0 585 14 q 431 -14 482 -14 m 418 900 q 361 920 381 900 q 342 974 342 940 q 362 1027 342 1007 q 418 1047 382 1047 q 475 1028 456 1047 q 494 974 494 1008 q 474 921 494 942 q 418 900 454 900 z "},"ẹ":{"ha":794,"x_min":56,"x_max":744,"o":"m 431 -14 q 236 34 321 -14 q 103 167 151 82 q 56 360 56 251 q 83 515 56 444 q 158 635 110 585 q 272 714 206 686 q 418 742 339 742 q 548 717 488 742 q 653 645 608 692 q 721 535 697 599 q 742 396 744 472 l 740 343 l 132 343 l 110 429 l 653 429 l 633 406 l 635 440 q 601 546 632 500 q 523 618 571 592 q 418 644 475 644 q 279 610 338 644 q 191 515 221 576 q 160 367 161 453 q 196 217 161 281 q 294 119 231 154 q 440 83 357 83 q 551 103 500 83 q 656 171 603 124 l 708 96 q 630 38 675 63 q 533 0 585 14 q 431 -14 482 -14 m 431 -256 q 374 -235 393 -256 q 354 -181 354 -215 q 374 -128 354 -149 q 431 -108 394 -108 q 488 -128 468 -108 q 507 -182 507 -147 q 487 -235 507 -214 q 431 -256 467 -256 z "},"è":{"ha":794,"x_min":56,"x_max":744,"o":"m 431 -14 q 236 34 321 -14 q 103 167 151 82 q 56 360 56 251 q 83 515 56 444 q 158 635 110 585 q 272 714 206 686 q 418 742 339 742 q 548 717 488 742 q 653 645 608 692 q 721 535 697 599 q 742 396 744 472 l 740 343 l 132 343 l 110 429 l 653 429 l 633 406 l 635 440 q 601 546 632 500 q 523 618 571 592 q 418 644 475 644 q 279 610 338 644 q 191 515 221 576 q 160 367 161 453 q 196 217 161 281 q 294 119 231 154 q 440 83 357 83 q 551 103 500 83 q 656 171 603 124 l 708 96 q 630 38 675 63 q 533 0 585 14 q 431 -14 482 -14 m 486 844 l 258 979 l 325 1065 l 522 899 l 486 844 z "},"ẻ":{"ha":794,"x_min":56,"x_max":744,"o":"m 431 -14 q 236 34 321 -14 q 103 167 151 82 q 56 360 56 251 q 83 515 56 444 q 158 635 110 585 q 272 714 206 686 q 418 742 339 742 q 548 717 488 742 q 653 645 608 692 q 721 535 697 599 q 742 396 744 472 l 740 343 l 132 343 l 110 429 l 653 429 l 633 406 l 635 440 q 601 546 632 500 q 523 618 571 592 q 418 644 475 644 q 279 610 338 644 q 191 515 221 576 q 160 367 161 453 q 196 217 161 281 q 294 119 231 154 q 440 83 357 83 q 551 103 500 83 q 656 171 603 124 l 708 96 q 630 38 675 63 q 533 0 585 14 q 431 -14 482 -14 m 392 829 q 380 852 385 842 q 375 874 375 863 q 385 903 375 889 q 417 931 396 917 q 450 956 439 946 q 461 978 461 965 q 445 1001 461 994 q 406 1008 429 1008 q 358 1003 383 1008 q 308 986 332 997 l 290 1053 q 347 1075 317 1068 q 407 1082 378 1082 q 509 1055 474 1082 q 544 986 544 1028 q 528 935 544 954 q 490 904 511 915 q 456 884 468 893 q 444 863 444 875 q 446 853 444 857 q 449 844 447 849 l 392 829 z "},"ȇ":{"ha":794,"x_min":56,"x_max":744,"o":"m 431 -14 q 236 34 321 -14 q 103 167 151 82 q 56 360 56 251 q 83 515 56 444 q 158 635 110 585 q 272 714 206 686 q 418 742 339 742 q 548 717 488 742 q 653 645 608 692 q 721 535 697 599 q 742 396 744 472 l 740 343 l 132 343 l 110 429 l 653 429 l 633 406 l 635 440 q 601 546 632 500 q 523 618 571 592 q 418 644 475 644 q 279 610 338 644 q 191 515 221 576 q 160 367 161 453 q 196 217 161 281 q 294 119 231 154 q 440 83 357 83 q 551 103 500 83 q 656 171 603 124 l 708 96 q 630 38 675 63 q 533 0 585 14 q 431 -14 482 -14 m 286 843 l 207 856 q 280 1000 225 947 q 418 1053 335 1053 q 556 1000 500 1053 q 629 856 611 947 l 550 843 q 499 935 535 901 q 418 969 464 969 q 338 935 372 969 q 286 843 303 901 z "},"ē":{"ha":794,"x_min":56,"x_max":744,"o":"m 431 -14 q 236 34 321 -14 q 103 167 151 82 q 56 360 56 251 q 83 515 56 444 q 158 635 110 585 q 272 714 206 686 q 418 742 339 742 q 548 717 488 742 q 653 645 608 692 q 721 535 697 599 q 742 396 744 472 l 740 343 l 132 343 l 110 429 l 653 429 l 633 406 l 635 440 q 601 546 632 500 q 523 618 571 592 q 418 644 475 644 q 279 610 338 644 q 191 515 221 576 q 160 367 161 453 q 196 217 161 281 q 294 119 231 154 q 440 83 357 83 q 551 103 500 83 q 656 171 603 124 l 708 96 q 630 38 675 63 q 533 0 585 14 q 431 -14 482 -14 m 225 901 l 225 982 l 611 982 l 611 901 l 225 901 z "},"ḗ":{"ha":794,"x_min":56,"x_max":744,"o":"m 431 -14 q 236 34 321 -14 q 103 167 151 82 q 56 360 56 251 q 83 515 56 444 q 158 635 110 585 q 272 714 206 686 q 418 742 339 742 q 548 717 488 742 q 653 645 608 692 q 721 535 697 599 q 742 396 744 472 l 740 343 l 132 343 l 110 429 l 653 429 l 633 406 l 635 440 q 601 546 632 500 q 523 618 571 592 q 418 644 475 644 q 279 610 338 644 q 191 515 221 576 q 160 367 161 453 q 196 217 161 281 q 294 119 231 154 q 440 83 357 83 q 551 103 500 83 q 656 171 603 124 l 708 96 q 630 38 675 63 q 533 0 585 14 q 431 -14 482 -14 m 225 888 l 225 968 l 611 968 l 611 888 l 225 888 m 414 1025 l 360 1063 l 482 1244 l 564 1185 l 414 1025 z "},"ḕ":{"ha":794,"x_min":56,"x_max":744,"o":"m 431 -14 q 236 34 321 -14 q 103 167 151 82 q 56 360 56 251 q 83 515 56 444 q 158 635 110 585 q 272 714 206 686 q 418 742 339 742 q 548 717 488 742 q 653 645 608 692 q 721 535 697 599 q 742 396 744 472 l 740 343 l 132 343 l 110 429 l 653 429 l 633 406 l 635 440 q 601 546 632 500 q 523 618 571 592 q 418 644 475 644 q 279 610 338 644 q 191 515 221 576 q 160 367 161 453 q 196 217 161 281 q 294 119 231 154 q 440 83 357 83 q 551 103 500 83 q 656 171 603 124 l 708 96 q 630 38 675 63 q 533 0 585 14 q 431 -14 482 -14 m 443 1025 l 294 1185 l 375 1244 l 497 1063 l 443 1025 m 225 888 l 225 968 l 611 968 l 611 888 l 225 888 z "},"ę":{"ha":794,"x_min":56,"x_max":744,"o":"m 551 -292 q 443 -251 483 -292 q 403 -154 403 -211 q 435 -49 403 -94 q 524 34 468 -3 q 646 103 579 71 l 668 64 q 540 -36 583 13 q 497 -135 497 -85 q 517 -190 497 -168 q 567 -211 536 -211 q 607 -199 592 -211 q 636 -167 622 -187 l 694 -211 q 639 -268 678 -244 q 551 -292 600 -292 m 431 -14 q 236 34 321 -14 q 103 167 151 82 q 56 360 56 251 q 83 515 56 444 q 158 635 110 585 q 272 714 206 686 q 418 742 339 742 q 548 717 488 742 q 653 645 608 692 q 721 535 697 599 q 742 396 744 472 l 740 343 l 132 343 l 110 429 l 653 429 l 633 406 l 635 440 q 601 546 632 500 q 523 618 571 592 q 418 644 475 644 q 279 610 338 644 q 191 515 221 576 q 160 367 161 453 q 196 217 161 281 q 294 119 231 154 q 440 83 357 83 q 551 103 500 83 q 656 171 603 124 l 708 96 q 630 38 675 63 q 533 0 585 14 q 431 -14 482 -14 z "},"ẽ":{"ha":794,"x_min":56,"x_max":744,"o":"m 431 -14 q 236 34 321 -14 q 103 167 151 82 q 56 360 56 251 q 83 515 56 444 q 158 635 110 585 q 272 714 206 686 q 418 742 339 742 q 548 717 488 742 q 653 645 608 692 q 721 535 697 599 q 742 396 744 472 l 740 343 l 132 343 l 110 429 l 653 429 l 633 406 l 635 440 q 601 546 632 500 q 523 618 571 592 q 418 644 475 644 q 279 610 338 644 q 191 515 221 576 q 160 367 161 453 q 196 217 161 281 q 294 119 231 154 q 440 83 357 83 q 551 103 500 83 q 656 171 603 124 l 708 96 q 630 38 675 63 q 533 0 585 14 q 431 -14 482 -14 m 496 863 q 445 876 467 863 q 403 906 424 889 q 360 937 374 929 q 335 944 346 944 q 301 924 317 944 q 282 865 285 904 l 210 876 q 247 979 211 936 q 340 1022 283 1022 q 390 1009 368 1022 q 433 978 411 996 q 470 950 454 961 q 500 939 486 939 q 535 958 521 939 q 553 1018 549 978 l 625 1008 q 608 935 625 968 q 562 882 590 901 q 496 863 533 863 z "},"ə":{"ha":794,"x_min":53,"x_max":739,"o":"m 378 -12 q 211 32 285 -12 q 95 154 138 76 q 53 333 53 232 l 54 386 l 663 386 l 685 300 l 142 300 l 161 324 l 160 290 q 194 184 164 231 q 272 111 224 138 q 376 85 319 85 q 516 118 458 85 q 604 214 574 151 q 635 363 635 276 q 599 512 635 449 q 501 610 564 575 q 354 646 438 646 q 243 625 294 646 q 139 558 192 604 l 86 633 q 165 691 121 667 q 261 729 210 715 q 364 743 313 743 q 560 695 475 743 q 692 563 644 647 q 739 369 739 479 q 713 215 739 285 q 638 94 686 144 q 524 15 590 43 q 378 -12 457 -12 z "},"f":{"ha":521,"x_min":56,"x_max":518,"o":"m 185 0 l 185 831 q 209 938 185 893 q 277 1008 233 983 q 376 1032 321 1032 q 460 1015 424 1032 q 518 971 496 999 l 479 892 q 436 922 460 913 q 388 932 413 932 q 335 922 357 932 q 301 890 313 913 q 290 831 290 867 l 290 0 l 239 0 q 211 0 225 0 q 185 0 197 0 m 56 624 l 56 721 l 476 721 l 476 624 l 56 624 z "},"g":{"ha":881,"x_min":56,"x_max":781,"o":"m 421 -324 q 270 -299 343 -324 q 151 -232 197 -274 l 190 -149 q 294 -207 232 -185 q 419 -229 356 -229 q 554 -199 497 -229 q 643 -110 611 -168 q 675 33 675 -51 l 675 192 l 689 188 q 638 88 679 133 q 538 14 597 42 q 414 -14 479 -14 q 230 35 311 -14 q 102 169 149 85 q 56 363 56 254 q 102 558 56 472 q 229 692 149 643 q 408 742 310 742 q 492 731 451 742 q 567 699 532 719 q 629 654 601 679 q 675 600 657 629 q 699 542 693 571 l 675 535 l 676 729 l 781 729 l 781 39 q 755 -115 781 -47 q 681 -228 729 -182 q 567 -299 633 -275 q 421 -324 501 -324 m 424 85 q 555 120 497 85 q 646 219 613 156 q 679 364 679 282 q 646 509 679 446 q 555 608 613 572 q 422 644 497 644 q 288 608 347 644 q 196 508 229 571 q 163 363 163 444 q 196 220 163 283 q 288 121 229 157 q 424 85 347 85 z "},"ğ":{"ha":881,"x_min":56,"x_max":781,"o":"m 421 -324 q 270 -299 343 -324 q 151 -232 197 -274 l 190 -149 q 294 -207 232 -185 q 419 -229 356 -229 q 554 -199 497 -229 q 643 -110 611 -168 q 675 33 675 -51 l 675 192 l 689 188 q 638 88 679 133 q 538 14 597 42 q 414 -14 479 -14 q 230 35 311 -14 q 102 169 149 85 q 56 363 56 254 q 102 558 56 472 q 229 692 149 643 q 408 742 310 742 q 492 731 451 742 q 567 699 532 719 q 629 654 601 679 q 675 600 657 629 q 699 542 693 571 l 675 535 l 676 729 l 781 729 l 781 39 q 755 -115 781 -47 q 681 -228 729 -182 q 567 -299 633 -275 q 421 -324 501 -324 m 424 85 q 555 120 497 85 q 646 219 613 156 q 679 364 679 282 q 646 509 679 446 q 555 608 613 572 q 422 644 497 644 q 288 608 347 644 q 196 508 229 571 q 163 363 163 444 q 196 220 163 283 q 288 121 229 157 q 424 85 347 85 m 436 829 q 298 883 353 829 q 225 1028 243 936 l 304 1039 q 356 947 321 981 q 436 914 390 914 q 517 947 482 914 q 568 1039 553 981 l 647 1028 q 574 883 629 936 q 436 829 518 829 z "},"ǧ":{"ha":881,"x_min":56,"x_max":781,"o":"m 421 -324 q 270 -299 343 -324 q 151 -232 197 -274 l 190 -149 q 294 -207 232 -185 q 419 -229 356 -229 q 554 -199 497 -229 q 643 -110 611 -168 q 675 33 675 -51 l 675 192 l 689 188 q 638 88 679 133 q 538 14 597 42 q 414 -14 479 -14 q 230 35 311 -14 q 102 169 149 85 q 56 363 56 254 q 102 558 56 472 q 229 692 149 643 q 408 742 310 742 q 492 731 451 742 q 567 699 532 719 q 629 654 601 679 q 675 600 657 629 q 699 542 693 571 l 675 535 l 676 729 l 781 729 l 781 39 q 755 -115 781 -47 q 681 -228 729 -182 q 567 -299 633 -275 q 421 -324 501 -324 m 424 85 q 555 120 497 85 q 646 219 613 156 q 679 364 679 282 q 646 509 679 446 q 555 608 613 572 q 422 644 497 644 q 288 608 347 644 q 196 508 229 571 q 163 363 163 444 q 196 220 163 283 q 288 121 229 157 q 424 85 347 85 m 390 850 l 243 996 l 283 1033 l 453 924 l 419 924 l 589 1033 l 629 996 l 482 850 l 390 850 z "},"ĝ":{"ha":881,"x_min":56,"x_max":781,"o":"m 421 -324 q 270 -299 343 -324 q 151 -232 197 -274 l 190 -149 q 294 -207 232 -185 q 419 -229 356 -229 q 554 -199 497 -229 q 643 -110 611 -168 q 675 33 675 -51 l 675 192 l 689 188 q 638 88 679 133 q 538 14 597 42 q 414 -14 479 -14 q 230 35 311 -14 q 102 169 149 85 q 56 363 56 254 q 102 558 56 472 q 229 692 149 643 q 408 742 310 742 q 492 731 451 742 q 567 699 532 719 q 629 654 601 679 q 675 600 657 629 q 699 542 693 571 l 675 535 l 676 729 l 781 729 l 781 39 q 755 -115 781 -47 q 681 -228 729 -182 q 567 -299 633 -275 q 421 -324 501 -324 m 424 85 q 555 120 497 85 q 646 219 613 156 q 679 364 679 282 q 646 509 679 446 q 555 608 613 572 q 422 644 497 644 q 288 608 347 644 q 196 508 229 571 q 163 363 163 444 q 196 220 163 283 q 288 121 229 157 q 424 85 347 85 m 275 850 l 233 886 l 390 1033 l 482 1033 l 639 886 l 597 850 l 419 960 l 453 960 l 275 850 z "},"ģ":{"ha":881,"x_min":56,"x_max":781,"o":"m 421 -324 q 270 -299 343 -324 q 151 -232 197 -274 l 190 -149 q 294 -207 232 -185 q 419 -229 356 -229 q 554 -199 497 -229 q 643 -110 611 -168 q 675 33 675 -51 l 675 192 l 689 188 q 638 88 679 133 q 538 14 597 42 q 414 -14 479 -14 q 230 35 311 -14 q 102 169 149 85 q 56 363 56 254 q 102 558 56 472 q 229 692 149 643 q 408 742 310 742 q 492 731 451 742 q 567 699 532 719 q 629 654 601 679 q 675 600 657 629 q 699 542 693 571 l 675 535 l 676 729 l 781 729 l 781 39 q 755 -115 781 -47 q 681 -228 729 -182 q 567 -299 633 -275 q 421 -324 501 -324 m 424 85 q 555 120 497 85 q 646 219 613 156 q 679 364 679 282 q 646 509 679 446 q 555 608 613 572 q 422 644 497 644 q 288 608 347 644 q 196 508 229 571 q 163 363 163 444 q 196 220 163 283 q 288 121 229 157 q 424 85 347 85 m 442 843 q 381 866 410 843 q 353 936 353 889 q 367 990 353 967 q 403 1033 382 1014 q 447 1067 424 1053 q 490 1089 471 1081 l 518 1044 q 488 1029 503 1040 q 463 1004 472 1018 q 453 975 453 990 q 460 958 453 963 q 479 947 468 953 q 505 934 494 943 q 515 900 515 925 q 494 858 515 874 q 442 843 474 843 z "},"ġ":{"ha":881,"x_min":56,"x_max":781,"o":"m 421 -324 q 270 -299 343 -324 q 151 -232 197 -274 l 190 -149 q 294 -207 232 -185 q 419 -229 356 -229 q 554 -199 497 -229 q 643 -110 611 -168 q 675 33 675 -51 l 675 192 l 689 188 q 638 88 679 133 q 538 14 597 42 q 414 -14 479 -14 q 230 35 311 -14 q 102 169 149 85 q 56 363 56 254 q 102 558 56 472 q 229 692 149 643 q 408 742 310 742 q 492 731 451 742 q 567 699 532 719 q 629 654 601 679 q 675 600 657 629 q 699 542 693 571 l 675 535 l 676 729 l 781 729 l 781 39 q 755 -115 781 -47 q 681 -228 729 -182 q 567 -299 633 -275 q 421 -324 501 -324 m 424 85 q 555 120 497 85 q 646 219 613 156 q 679 364 679 282 q 646 509 679 446 q 555 608 613 572 q 422 644 497 644 q 288 608 347 644 q 196 508 229 571 q 163 363 163 444 q 196 220 163 283 q 288 121 229 157 q 424 85 347 85 m 436 900 q 379 920 399 900 q 360 974 360 940 q 380 1027 360 1007 q 436 1047 400 1047 q 493 1028 474 1047 q 513 974 513 1008 q 492 921 513 942 q 436 900 472 900 z "},"ḡ":{"ha":881,"x_min":56,"x_max":781,"o":"m 421 -324 q 270 -299 343 -324 q 151 -232 197 -274 l 190 -149 q 294 -207 232 -185 q 419 -229 356 -229 q 554 -199 497 -229 q 643 -110 611 -168 q 675 33 675 -51 l 675 192 l 689 188 q 638 88 679 133 q 538 14 597 42 q 414 -14 479 -14 q 230 35 311 -14 q 102 169 149 85 q 56 363 56 254 q 102 558 56 472 q 229 692 149 643 q 408 742 310 742 q 492 731 451 742 q 567 699 532 719 q 629 654 601 679 q 675 600 657 629 q 699 542 693 571 l 675 535 l 676 729 l 781 729 l 781 39 q 755 -115 781 -47 q 681 -228 729 -182 q 567 -299 633 -275 q 421 -324 501 -324 m 424 85 q 555 120 497 85 q 646 219 613 156 q 679 364 679 282 q 646 509 679 446 q 555 608 613 572 q 422 644 497 644 q 288 608 347 644 q 196 508 229 571 q 163 363 163 444 q 196 220 163 283 q 288 121 229 157 q 424 85 347 85 m 243 901 l 243 982 l 629 982 l 629 901 l 243 901 z "},"h":{"ha":801,"x_min":99,"x_max":707,"o":"m 99 0 l 99 1028 l 204 1028 l 204 574 l 183 561 q 240 651 199 610 q 337 717 281 692 q 454 742 393 742 q 592 710 536 742 q 678 614 649 679 q 707 449 707 549 l 707 0 l 601 0 l 601 442 q 581 558 601 513 q 522 625 561 604 q 422 644 482 646 q 335 629 375 644 q 267 588 296 614 q 221 531 238 563 q 204 469 204 500 l 204 0 l 153 0 q 126 0 140 0 q 99 0 113 0 z "},"ħ":{"ha":801,"x_min":4,"x_max":707,"o":"m 4 839 l 4 932 l 376 932 l 376 839 l 4 839 m 99 0 l 99 1028 l 204 1028 l 204 574 l 183 561 q 240 651 199 610 q 337 717 281 692 q 454 742 393 742 q 592 710 536 742 q 678 614 649 679 q 707 449 707 549 l 707 0 l 601 0 l 601 442 q 581 558 601 513 q 522 625 561 604 q 422 644 482 646 q 335 629 375 644 q 267 588 296 614 q 221 531 238 563 q 204 469 204 500 l 204 0 l 153 0 q 126 0 140 0 q 99 0 113 0 z "}}}
